<svg width="50" height="50" viewBox="0 0 800 800" fill="none" xmlns="http://www.w3.org/2000/svg">
<path fill-rule="evenodd" clip-rule="evenodd" d="M163.669 172.185C150.677 146.804 146.575 124.838 152.446 97.9171C164.378 42.9681 206.408 28.7737 256.197 48.3451C278.403 57.0542 296.615 71.8621 312.553 89.0757C378.306 68.814 449.042 71.9035 512.778 97.8209L517.662 99.0238C537.666 75.0377 570.001 56.7174 600.17 52.832C641.995 47.4309 682.617 57.0061 686.407 106.313C687.766 124.032 681.848 145.757 674.281 161.732L661.759 188.196L658.547 187.137C666.895 201.572 674.065 216.007 678.347 228.878C684.494 247.307 692.193 276.838 686.467 296.374L685.36 300.163L683.616 303.182C679.827 310.111 675.52 324.053 678.191 331.703C689.017 362.654 681.583 404.167 661.458 430.053C658.79 433.477 655.866 436.694 652.713 439.677C650.488 445.98 647.805 453.234 644.93 461.185C645.135 462.388 645.291 463.591 645.435 464.878C667.172 463.434 687.802 465.804 708.384 479.216C708.384 479.216 666.51 478.916 645.977 481.622C645.848 484.229 645.628 486.839 645.315 489.453C670.696 495.059 693.516 504.466 712.317 526.828C712.317 526.828 664.453 511.984 641.345 508.423C636.967 522.858 629.653 536.09 619.693 546.026C617.385 557.317 615.921 568.765 615.314 580.273C623.336 582.646 631.617 584.032 639.974 584.399C691.699 586.011 733.056 563.95 733.056 563.95C715.553 787.054 376.548 795.51 226.184 709.153C29.7965 596.404 22.555 333.953 163.633 172.137" fill="#0F111A"/>
<path fill-rule="evenodd" clip-rule="evenodd" d="M515.196 516.326C515.196 516.326 498.8 514.438 471.675 523.893C444.549 533.348 430.655 539.663 415.523 536.511C400.39 533.36 394.7 519.478 394.7 519.478C394.7 519.478 406.73 510.637 429.404 506.859C452.079 503.082 476.715 501.819 476.715 501.819C476.715 501.819 437.019 495.516 419.312 496.779C401.605 498.042 392.174 502.457 392.174 502.457C392.174 502.457 388.397 492.364 394.075 487.312C399.753 482.26 421.826 478.483 437.596 478.483C447.302 478.499 456.997 479.13 466.623 480.371C466.623 480.371 440.748 468.342 420.563 467.139C400.378 465.936 390.911 468.414 390.911 468.414C390.911 468.414 394.7 457.696 402.94 453.979C411.18 450.262 417.46 449.553 428.202 452.704C438.944 455.856 454.064 462.797 454.064 462.797C454.064 462.797 433.879 445.126 423.149 442.612C417.16 441.133 411.031 440.286 404.865 440.086L417.472 427.467C417.472 427.467 398.562 426.842 380.253 447.027C361.945 467.211 366.312 499.281 366.312 499.281C366.312 499.281 356.207 487.938 317.1 466.49C277.994 445.042 269.152 424.231 265.989 398.982C262.825 373.733 267.889 357.975 267.889 357.975C267.889 357.975 229.829 380.83 219.111 432.555C191.228 566.981 230.034 612.992 281.566 679.574C300.813 704.51 220.783 656.357 195.137 630.254C89.6177 522.714 62.516 312.685 232.62 178.681C232.62 178.681 257.039 161.84 238.959 134.714C220.88 107.589 210.546 101.045 201.513 110.103C192.479 119.161 196.352 164.33 196.352 164.33C196.352 164.33 178.308 134.642 184.732 104.942C191.156 75.2423 207.972 64.9093 244.132 79.1036C280.291 93.298 308.692 135.917 321.599 153.997C334.507 172.077 335.806 175.962 335.806 175.962L331.932 133.343C331.932 133.343 349.976 121.723 431.353 121.723C512.73 121.723 555.313 148.836 555.313 148.836L539.82 124.297C539.82 124.297 564.359 90.7117 604.392 85.5512C644.425 80.3907 652.172 92.0229 653.459 108.804C654.746 125.584 644.413 147.537 644.413 147.537C644.413 147.537 650.861 115.263 631.494 116.55C612.127 117.837 595.346 152.71 595.346 152.71C595.346 152.71 635.379 204.363 646.999 239.211C658.619 274.06 654.746 286.991 654.746 286.991C654.746 286.991 637.965 316.691 646.999 342.505C656.033 368.32 644.401 398.032 635.367 409.652C626.333 421.272 618.586 422.559 618.586 422.559L581.14 413.525C581.14 413.525 596.633 425.158 609.553 456.133C618.526 477.665 611.285 503.563 599.544 518.227C597.632 542.454 589.199 568.22 573.898 583.521C577.579 568.809 577.375 548.468 574.404 529.883C556.083 528.512 534.707 516.82 534.707 516.82C534.707 516.82 535.995 496.165 556.661 481.935C577.327 467.705 573.357 442.937 583.786 435.454C594.215 427.972 572.154 441.914 535.995 445.788C499.835 449.661 470.147 435.454 470.147 435.454C470.147 435.454 470.147 452.235 488.191 465.154C506.234 478.074 534.719 516.82 515.196 516.326Z" fill="#F2F2F2"/>
<path fill-rule="evenodd" clip-rule="evenodd" d="M116.671 479.866C94.8978 378.497 123.563 264.545 232.631 178.597C232.631 178.597 251.661 165.449 243.662 143.712C247.776 148.524 249.424 143.929 255.39 174.603C261.357 205.277 166.627 259.865 137.758 361.391C108.888 462.917 118.03 457.817 116.719 479.866" fill="white"/>
<path fill-rule="evenodd" clip-rule="evenodd" d="M555.241 148.704V148.62L555.373 148.704H555.241ZM333.773 153.516L331.932 133.343C331.932 133.343 349.976 121.723 431.353 121.723C509.338 121.723 551.716 146.623 555.097 148.692C480.312 141.378 415.475 132.79 333.833 153.504L333.773 153.516Z" fill="white"/>
<path fill-rule="evenodd" clip-rule="evenodd" d="M555.325 148.824L539.819 124.297C539.819 124.297 564.359 90.7114 604.392 85.5509C641.802 80.7393 651.017 90.5671 653.11 105.579C615.627 101.129 581.921 125.115 555.325 148.824Z" fill="white"/>
<path fill-rule="evenodd" clip-rule="evenodd" d="M197.976 78.9471C207.683 70.8876 222.407 70.5267 244.132 79.0914C280.291 93.2978 308.692 135.905 321.599 153.985C333.303 170.38 335.457 175.096 335.769 175.83L299.598 176.022C299.598 176.022 288.122 144.482 241.208 102.464C224.079 87.1149 209.548 80.8116 198 78.9471" fill="white"/>
<path fill-rule="evenodd" clip-rule="evenodd" d="M560.365 504.983L588.032 514.305C596.57 504.2 600.97 491.24 600.35 478.026C599.352 455.724 592.688 446.75 592.688 446.75C592.688 446.75 592.688 465.72 581.043 475.379C569.399 485.039 560.365 504.983 560.365 504.983ZM413.514 431.28L417.411 427.383C417.411 427.383 398.489 426.757 380.193 446.942C361.897 467.127 366.311 499.293 366.311 499.293C366.311 499.293 356.231 487.938 317.112 466.49C277.994 445.042 269.164 424.231 266 398.994C262.837 373.757 267.901 357.975 267.901 357.975C132.465 463.976 280.496 700.444 462.977 724.021C290.528 719.643 156.054 655.215 117.224 480.888C151.399 411.925 248.185 297.757 319.277 296.013C319.277 296.013 275.708 355.497 305.817 388.866C339.643 426.348 370.666 387.374 418.313 426.89L413.514 431.28ZM470.375 524.362C449.3 531.784 407.956 551.884 394.7 519.49C394.7 519.49 406.729 510.661 429.404 506.871C452.079 503.082 476.715 501.831 476.715 501.831C476.715 501.831 437.019 495.528 419.312 496.791C401.605 498.054 392.186 502.457 392.186 502.457C392.186 502.457 388.397 492.376 394.075 487.324C399.752 482.272 421.826 478.495 437.596 478.495C447.302 478.511 456.996 479.142 466.622 480.383C466.622 480.383 440.748 468.354 420.563 467.151C400.378 465.948 390.911 468.354 390.911 468.354C390.911 468.354 394.7 457.636 402.94 453.847C411.18 450.058 417.459 449.432 428.201 452.644C431.99 453.847 435.96 455.459 439.809 456.722C443.719 458.671 449.661 460.716 454.052 462.737L452.933 461.786C465.287 467.127 476.582 473.334 476.582 473.334C476.582 473.334 464.986 469.04 457.047 450.792C449.264 432.916 455.58 411.252 455.844 410.374C457.047 405.562 466.466 393.256 469.894 389.455C468.15 420.105 465.576 451.056 488.239 465.239C507.678 477.388 534.719 516.88 515.256 516.386C515.256 516.386 498.86 514.498 471.735 523.953L470.375 524.362ZM594.684 402.627L616.337 409.291C616.337 409.291 629.677 398.056 635.92 384.728C642.163 371.399 639.24 360.994 639.24 360.994C639.24 360.994 609.3 399.704 594.684 402.615V402.627Z" fill="#E6E6E6"/>
<path d="M108.888 284.316L345.435 270.09L345.435 302.799L110 302.799L108.888 284.316Z" fill="#0F111A"/>
<path d="M454.725 263.474H388.565L335.637 348.279L339.847 361.511L371.123 369.33L395.181 372.939L454.725 263.474Z" fill="#F11012"/>
<path d="M647.793 263.474H581.633L528.705 348.279L532.915 361.511L564.191 369.33L588.249 372.939L647.793 263.474Z" fill="#F11012"/>
<path d="M501.12 280.874C500.887 281.735 500.707 282.61 500.581 283.493V284.167C500.389 285.404 500.293 286.655 500.297 287.908V295.121C496.51 293.526 492.433 292.731 488.325 292.787C484.199 292.784 480.12 293.651 476.352 295.331V287.998C476.349 286.493 476.219 284.991 475.963 283.508C475.877 282.615 475.701 281.733 475.439 280.874C476.077 280.59 476.732 280.345 477.4 280.141C480.906 278.988 484.574 278.407 488.265 278.42C491.949 278.452 495.605 279.063 499.1 280.231C499.765 280.442 500.419 280.687 501.06 280.964L501.12 280.874Z" fill="#0F111A"/>
<path d="M388.881 365.292C374.138 365.526 359.493 362.857 345.781 357.436L397.351 268.168H445.24L388.881 365.292ZM476.023 283.493C475.935 282.6 475.76 281.717 475.499 280.859C475.294 280.016 475.039 279.187 474.736 278.374C473.41 274.565 471.282 271.085 468.496 268.168C468.017 267.689 467.583 267.225 467.119 266.791L465.622 265.534L463.602 264.038L462.345 263.215C461.821 262.885 461.282 262.586 460.729 262.302C460.143 261.967 459.532 261.677 458.903 261.434C458.297 261.155 457.672 260.92 457.032 260.73L455.132 260.117L453.635 259.773H452.603C452.176 259.713 451.742 259.713 451.316 259.773L450.029 259.339H338.508C330.887 259.339 323.579 262.366 318.19 267.754C312.802 273.143 309.774 280.451 309.774 288.072V313.513C309.774 338.55 320.654 356.119 342.099 365.741C356.89 371.713 372.74 374.615 388.686 374.272H393.056C417.853 374.272 436.575 370.441 450.178 362.554C467.553 352.392 476.412 335.841 476.412 313.408V287.997C476.394 286.493 476.264 284.992 476.023 283.507V283.493Z" fill="#0F111A"/>
<path d="M630.255 277.297L627.666 282.086L612.821 307.931L610.247 312.346L584.806 356.269L579.239 365.353C564.499 365.602 549.856 362.932 536.154 357.496L539.835 351.091L562.283 312.45L564.827 307.961L579.882 281.787L582.516 276.998L587.679 268.019H635.568L630.255 277.297ZM638.142 259.339H528.013C527.121 259.388 526.231 259.482 525.349 259.623H525.005C523.803 259.719 522.617 259.961 521.473 260.341C516.402 261.744 511.811 264.507 508.199 268.333C505.372 271.212 503.212 274.675 501.869 278.479C501.567 279.291 501.317 280.121 501.12 280.964C500.891 281.815 500.711 282.68 500.582 283.553V284.286C500.432 285.517 500.357 286.757 500.357 287.997V313.438C500.357 338.146 511.551 356.194 532.727 365.682C547.515 371.663 563.365 374.575 579.314 374.242H583.624C608.481 374.242 627.142 370.411 640.791 362.524C658.18 352.363 667.04 335.811 667.04 313.378V287.997C667.038 284.212 666.288 280.464 664.834 276.969C663.38 273.474 661.25 270.301 658.567 267.631C655.883 264.961 652.699 262.848 649.196 261.412C645.694 259.976 641.942 259.246 638.157 259.264L638.142 259.339Z" fill="#0F111A"/>
<path d="M528.686 259.339C524.827 259.377 521.015 260.191 517.477 261.734C513.939 263.277 510.748 265.516 508.094 268.318H468.496C465.845 265.512 462.654 263.271 459.116 261.728C455.578 260.185 451.764 259.372 447.904 259.339H528.686Z" fill="#0F111A"/>
</svg>
