<svg width="800" height="800" viewBox="0 0 800 800" fill="none" xmlns="http://www.w3.org/2000/svg">
<path fill-rule="evenodd" clip-rule="evenodd" d="M163.669 172.185C150.677 146.804 146.575 124.838 152.446 97.9171C164.378 42.9681 206.408 28.7737 256.197 48.3451C278.403 57.0542 296.615 71.8621 312.553 89.0757C378.306 68.814 449.042 71.9035 512.778 97.8209L517.662 99.0238C537.666 75.0377 570.001 56.7174 600.17 52.832C641.995 47.4309 682.617 57.0061 686.407 106.313C687.766 124.032 681.848 145.757 674.281 161.732L661.759 188.196L658.547 187.137C666.895 201.572 674.065 216.007 678.347 228.878C684.494 247.307 692.193 276.838 686.467 296.374L685.36 300.163L683.616 303.182C679.827 310.111 675.52 324.053 678.191 331.703C689.017 362.654 681.583 404.167 661.458 430.053C658.79 433.477 655.866 436.694 652.713 439.677C650.488 445.98 647.805 453.234 644.93 461.185C645.135 462.388 645.291 463.591 645.435 464.878C667.172 463.434 687.802 465.804 708.384 479.216C708.384 479.216 666.51 478.916 645.977 481.622C645.848 484.229 645.628 486.839 645.315 489.453C670.696 495.059 693.516 504.466 712.317 526.828C712.317 526.828 664.453 511.984 641.345 508.423C636.967 522.858 629.653 536.09 619.693 546.026C617.385 557.317 615.921 568.765 615.314 580.273C623.336 582.646 631.617 584.032 639.974 584.399C691.699 586.011 733.056 563.95 733.056 563.95C715.553 787.054 376.548 795.51 226.184 709.153C29.7965 596.404 22.555 333.953 163.633 172.137" fill="#0F111A"/>
<path fill-rule="evenodd" clip-rule="evenodd" d="M515.196 516.326C515.196 516.326 498.801 514.438 471.675 523.893C444.549 533.348 430.655 539.663 415.523 536.511C400.39 533.36 394.7 519.478 394.7 519.478C394.7 519.478 406.73 510.637 429.404 506.859C452.079 503.082 476.715 501.819 476.715 501.819C476.715 501.819 437.019 495.516 419.312 496.779C401.605 498.042 392.174 502.457 392.174 502.457C392.174 502.457 388.397 492.364 394.075 487.312C399.753 482.26 421.826 478.483 437.596 478.483C447.302 478.499 456.997 479.13 466.623 480.371C466.623 480.371 440.748 468.342 420.563 467.139C400.378 465.936 390.911 468.414 390.911 468.414C390.911 468.414 394.7 457.696 402.94 453.979C411.18 450.262 417.46 449.553 428.202 452.704C438.944 455.856 454.064 462.797 454.064 462.797C454.064 462.797 433.879 445.126 423.149 442.612C417.16 441.133 411.031 440.286 404.865 440.086L417.472 427.467C417.472 427.467 398.562 426.842 380.253 447.027C361.945 467.211 366.312 499.281 366.312 499.281C366.312 499.281 356.207 487.938 317.101 466.49C277.994 445.042 269.152 424.231 265.989 398.982C262.825 373.733 267.889 357.975 267.889 357.975C267.889 357.975 229.829 380.83 219.111 432.555C191.228 566.981 230.034 612.992 281.566 679.574C300.813 704.51 220.783 656.357 195.137 630.254C89.6177 522.714 62.516 312.685 232.62 178.681C232.62 178.681 257.039 161.84 238.959 134.714C220.88 107.589 210.547 101.045 201.513 110.103C192.479 119.161 196.352 164.33 196.352 164.33C196.352 164.33 178.308 134.642 184.732 104.942C191.156 75.2423 207.972 64.9093 244.132 79.1036C280.291 93.298 308.692 135.917 321.599 153.997C334.507 172.077 335.806 175.962 335.806 175.962L331.932 133.343C331.932 133.343 349.976 121.723 431.353 121.723C512.73 121.723 555.313 148.836 555.313 148.836L539.82 124.297C539.82 124.297 564.359 90.7117 604.392 85.5512C644.425 80.3907 652.172 92.0229 653.459 108.804C654.746 125.584 644.413 147.537 644.413 147.537C644.413 147.537 650.861 115.263 631.494 116.55C612.127 117.837 595.346 152.71 595.346 152.71C595.346 152.71 635.379 204.363 646.999 239.211C658.62 274.06 654.746 286.991 654.746 286.991C654.746 286.991 637.966 316.691 646.999 342.505C656.033 368.32 644.401 398.032 635.367 409.652C626.333 421.272 618.587 422.559 618.587 422.559L581.14 413.525C581.14 413.525 596.633 425.158 609.553 456.133C618.526 477.665 611.285 503.563 599.544 518.227C597.632 542.454 589.199 568.22 573.898 583.521C577.579 568.809 577.375 548.468 574.404 529.883C556.083 528.512 534.707 516.82 534.707 516.82C534.707 516.82 535.995 496.165 556.661 481.935C577.327 467.705 573.357 442.937 583.786 435.454C594.216 427.972 572.154 441.914 535.995 445.788C499.835 449.661 470.147 435.454 470.147 435.454C470.147 435.454 470.147 452.235 488.191 465.154C506.235 478.074 534.719 516.82 515.196 516.326Z" fill="#F2F2F2"/>
<path fill-rule="evenodd" clip-rule="evenodd" d="M116.671 479.866C94.8978 378.497 123.563 264.545 232.631 178.597C232.631 178.597 251.661 165.449 243.662 143.712C247.776 148.524 249.424 143.929 255.39 174.603C261.357 205.277 166.628 259.865 137.758 361.391C108.888 462.917 118.03 457.817 116.719 479.866" fill="white"/>
<path fill-rule="evenodd" clip-rule="evenodd" d="M555.241 148.704V148.62L555.373 148.704H555.241ZM333.773 153.516L331.932 133.343C331.932 133.343 349.976 121.723 431.353 121.723C509.338 121.723 551.716 146.623 555.097 148.692C480.312 141.378 415.475 132.79 333.833 153.504L333.773 153.516Z" fill="white"/>
<path fill-rule="evenodd" clip-rule="evenodd" d="M555.325 148.824L539.819 124.297C539.819 124.297 564.359 90.7114 604.392 85.5509C641.802 80.7393 651.017 90.5671 653.11 105.579C615.627 101.129 581.921 125.115 555.325 148.824Z" fill="white"/>
<path fill-rule="evenodd" clip-rule="evenodd" d="M197.976 78.9471C207.683 70.8876 222.407 70.5267 244.132 79.0914C280.291 93.2978 308.692 135.905 321.599 153.985C333.304 170.38 335.457 175.096 335.769 175.83L299.598 176.022C299.598 176.022 288.122 144.482 241.209 102.464C224.079 87.1149 209.548 80.8116 198 78.9471" fill="white"/>
<path fill-rule="evenodd" clip-rule="evenodd" d="M560.365 504.983L588.032 514.305C596.57 504.2 600.97 491.24 600.35 478.026C599.352 455.724 592.688 446.75 592.688 446.75C592.688 446.75 592.688 465.72 581.043 475.379C569.399 485.039 560.365 504.983 560.365 504.983ZM413.514 431.28L417.411 427.383C417.411 427.383 398.489 426.757 380.193 446.942C361.897 467.127 366.311 499.293 366.311 499.293C366.311 499.293 356.231 487.938 317.112 466.49C277.994 445.042 269.164 424.231 266 398.994C262.837 373.757 267.901 357.975 267.901 357.975C132.465 463.976 280.496 700.444 462.977 724.021C290.528 719.643 156.054 655.215 117.224 480.888C151.399 411.925 248.185 297.757 319.278 296.013C319.278 296.013 275.708 355.497 305.817 388.866C339.643 426.348 370.666 387.374 418.313 426.89L413.514 431.28ZM470.375 524.362C449.3 531.784 407.956 551.884 394.7 519.49C394.7 519.49 406.729 510.661 429.404 506.871C452.079 503.082 476.715 501.831 476.715 501.831C476.715 501.831 437.019 495.528 419.312 496.791C401.605 498.054 392.186 502.457 392.186 502.457C392.186 502.457 388.397 492.376 394.075 487.324C399.752 482.272 421.826 478.495 437.596 478.495C447.302 478.511 456.996 479.142 466.622 480.383C466.622 480.383 440.748 468.354 420.563 467.151C400.378 465.948 390.911 468.354 390.911 468.354C390.911 468.354 394.7 457.636 402.94 453.847C411.18 450.058 417.459 449.432 428.201 452.644C431.99 453.847 435.96 455.459 439.809 456.722C443.719 458.671 449.661 460.716 454.052 462.737L452.933 461.786C465.287 467.127 476.582 473.334 476.582 473.334C476.582 473.334 464.986 469.04 457.047 450.792C449.264 432.916 455.58 411.252 455.844 410.374C457.047 405.562 466.466 393.256 469.894 389.455C468.15 420.105 465.576 451.056 488.239 465.239C507.678 477.388 534.719 516.88 515.256 516.386C515.256 516.386 498.86 514.498 471.735 523.953L470.375 524.362ZM594.684 402.627L616.337 409.291C616.337 409.291 629.677 398.056 635.92 384.728C642.163 371.399 639.24 360.994 639.24 360.994C639.24 360.994 609.3 399.704 594.684 402.615V402.627Z" fill="#E6E6E6"/>
<circle cx="389.985" cy="312.893" r="47.5275" fill="#0F111A"/>
<path d="M368.968 336.242C369.496 334.407 370.024 332.426 370.552 330.565C371.212 328.32 371.872 328.056 373.853 329.113C377.237 330.845 380.903 331.962 384.678 332.413C387.094 332.711 389.547 332.393 391.807 331.489C396.019 329.641 396.679 324.756 393.128 321.719C391.888 320.723 390.503 319.922 389.022 319.343C385.212 317.944 381.51 316.267 377.945 314.326C372.255 310.894 368.558 306.273 369.1 299.276C369.615 291.5 373.985 286.483 381.246 283.961C384.137 282.905 384.282 282.905 384.282 279.869V276.7C384.282 274.324 384.678 273.928 387.055 273.928H389.167C394.184 273.928 394.184 273.928 394.184 278.945C394.184 282.509 394.184 282.509 397.748 283.037C400.389 283.442 402.964 284.197 405.405 285.282C405.703 285.382 405.977 285.541 406.211 285.749C406.446 285.958 406.637 286.211 406.772 286.494C406.907 286.777 406.985 287.084 406.999 287.397C407.014 287.711 406.966 288.024 406.858 288.318C406.198 290.43 405.67 292.675 405.009 294.787C404.349 296.9 403.689 297.032 401.841 296.107C398.025 294.26 393.793 293.441 389.563 293.731C388.432 293.747 387.313 293.971 386.262 294.391C382.566 295.975 381.906 300.068 385.087 302.576C386.69 303.842 388.469 304.865 390.368 305.613C393.674 306.85 396.894 308.305 400.006 309.97C409.907 315.514 412.548 327.924 405.551 336.374C403.058 339.396 399.684 341.565 395.9 342.579C395.54 342.611 395.19 342.716 394.873 342.888C394.555 343.061 394.276 343.297 394.053 343.582C393.83 343.866 393.669 344.194 393.577 344.543C393.486 344.893 393.468 345.258 393.524 345.615C393.669 347.331 393.524 349.048 393.524 350.764C393.524 352.48 392.731 353.14 391.279 353.14H385.748C385.416 353.172 385.081 353.127 384.768 353.011C384.456 352.894 384.174 352.708 383.944 352.466C383.714 352.225 383.542 351.934 383.44 351.616C383.339 351.299 383.311 350.962 383.358 350.632V346.935C383.358 344.163 383.226 344.031 380.586 343.635C377.211 343.195 373.919 342.261 370.816 340.862C368.572 339.41 368.308 338.75 368.968 336.242ZM433.394 357.629C442.143 348.882 448.101 337.736 450.516 325.602C452.93 313.468 451.692 300.89 446.958 289.46C442.224 278.03 434.206 268.26 423.92 261.386C413.633 254.512 401.539 250.844 389.167 250.844C376.795 250.844 364.701 254.512 354.414 261.386C344.127 268.26 336.11 278.03 331.376 289.46C326.642 300.89 325.404 313.468 327.818 325.602C330.233 337.736 336.191 348.882 344.94 357.629C356.67 369.358 372.579 375.946 389.167 375.946C405.755 375.946 421.664 369.358 433.394 357.629Z" fill="#FFCB6B"/>
<circle cx="555.987" cy="308.081" r="47.5275" fill="#0F111A"/>
<path d="M534.97 331.43C535.498 329.595 536.026 327.615 536.554 325.753C537.214 323.509 537.874 323.245 539.854 324.301C543.239 326.033 546.905 327.151 550.68 327.601C553.096 327.9 555.549 327.582 557.809 326.677C562.021 324.829 562.681 319.944 559.129 316.908C557.889 315.912 556.505 315.11 555.024 314.531C551.214 313.132 547.511 311.456 543.947 309.514C538.257 306.082 534.56 301.461 535.102 294.464C535.617 286.688 539.986 281.671 547.248 279.15C550.139 278.094 550.284 278.094 550.284 275.057V271.889C550.284 269.512 550.68 269.116 553.057 269.116H555.169C560.186 269.116 560.186 269.116 560.186 274.133C560.186 277.697 560.186 277.697 563.75 278.226C566.391 278.631 568.966 279.385 571.407 280.47C571.704 280.571 571.978 280.73 572.213 280.938C572.448 281.146 572.638 281.399 572.774 281.682C572.909 281.965 572.986 282.272 573.001 282.585C573.016 282.899 572.968 283.212 572.86 283.506C572.2 285.619 571.671 287.863 571.011 289.975C570.351 292.088 569.691 292.22 567.843 291.296C564.027 289.448 559.795 288.629 555.565 288.919C554.434 288.935 553.315 289.159 552.264 289.579C548.568 291.164 547.908 295.256 551.089 297.765C552.692 299.03 554.471 300.053 556.37 300.801C559.676 302.038 562.896 303.493 566.008 305.158C575.909 310.703 578.55 323.113 571.553 331.562C569.06 334.584 565.686 336.753 561.902 337.767C561.542 337.799 561.192 337.904 560.874 338.077C560.557 338.249 560.278 338.485 560.055 338.77C559.832 339.054 559.67 339.382 559.579 339.732C559.488 340.081 559.47 340.446 559.526 340.803C559.671 342.52 559.526 344.236 559.526 345.952C559.526 347.668 558.733 348.329 557.281 348.329H551.749C551.417 348.36 551.083 348.316 550.77 348.199C550.458 348.082 550.176 347.896 549.946 347.654C549.716 347.413 549.544 347.122 549.442 346.805C549.341 346.487 549.312 346.15 549.36 345.82V342.124C549.36 339.351 549.228 339.219 546.587 338.823C543.213 338.384 539.921 337.45 536.818 336.051C534.574 334.598 534.31 333.938 534.97 331.43ZM599.396 352.817C608.145 344.07 614.103 332.924 616.518 320.79C618.932 308.656 617.694 296.078 612.96 284.648C608.226 273.218 600.208 263.448 589.922 256.574C579.635 249.701 567.541 246.032 555.169 246.032C542.797 246.032 530.703 249.701 520.416 256.574C510.129 263.448 502.112 273.218 497.378 284.648C492.644 296.078 491.406 308.656 493.82 320.79C496.234 332.924 502.193 344.07 510.942 352.817C522.672 364.546 538.581 371.135 555.169 371.135C571.757 371.135 587.665 364.546 599.396 352.817Z" fill="#FFCB6B"/>
</svg>
