<svg width="50" height="50" viewBox="0 0 800 800" fill="none" xmlns="http://www.w3.org/2000/svg">
<g clip-path="url(#clip0)">
<path fill-rule="evenodd" clip-rule="evenodd" d="M163.669 172.185C150.677 146.804 146.575 124.838 152.446 97.9171C164.378 42.9681 206.408 28.7737 256.197 48.3451C278.403 57.0542 296.615 71.8621 312.553 89.0757C378.306 68.814 449.042 71.9035 512.778 97.8209L517.662 99.0238C537.666 75.0377 570.001 56.7174 600.17 52.832C641.995 47.4309 682.617 57.0061 686.406 106.313C687.766 124.032 681.847 145.757 674.281 161.732L661.759 188.196L658.547 187.137C666.895 201.572 674.065 216.007 678.347 228.878C684.494 247.307 692.193 276.838 686.467 296.374L685.36 300.163L683.616 303.182C679.827 310.111 675.52 324.053 678.191 331.703C689.017 362.654 681.583 404.167 661.458 430.053C658.79 433.477 655.866 436.694 652.713 439.677C650.488 445.98 647.805 453.234 644.93 461.185C645.135 462.388 645.291 463.591 645.435 464.878C667.172 463.434 687.802 465.804 708.384 479.216C708.384 479.216 666.51 478.916 645.977 481.622C645.848 484.229 645.628 486.839 645.315 489.453C670.696 495.059 693.516 504.466 712.317 526.828C712.317 526.828 664.453 511.984 641.345 508.423C636.967 522.858 629.653 536.09 619.693 546.026C617.385 557.317 615.921 568.765 615.314 580.273C623.336 582.646 631.617 584.032 639.974 584.399C691.699 586.011 733.055 563.95 733.055 563.95C715.553 787.054 376.548 795.51 226.184 709.153C29.7965 596.404 22.555 333.953 163.633 172.137" fill="#0F111A"/>
<path fill-rule="evenodd" clip-rule="evenodd" d="M515.196 516.326C515.196 516.326 498.8 514.438 471.675 523.893C444.549 533.348 430.655 539.663 415.523 536.511C400.39 533.36 394.7 519.478 394.7 519.478C394.7 519.478 406.729 510.637 429.404 506.859C452.079 503.082 476.715 501.819 476.715 501.819C476.715 501.819 437.019 495.516 419.312 496.779C401.605 498.042 392.174 502.457 392.174 502.457C392.174 502.457 388.397 492.364 394.075 487.312C399.753 482.26 421.826 478.483 437.596 478.483C447.302 478.499 456.997 479.13 466.622 480.371C466.622 480.371 440.748 468.342 420.563 467.139C400.378 465.936 390.911 468.414 390.911 468.414C390.911 468.414 394.7 457.696 402.94 453.979C411.18 450.262 417.459 449.553 428.201 452.704C438.943 455.856 454.064 462.797 454.064 462.797C454.064 462.797 433.879 445.126 423.149 442.612C417.16 441.133 411.031 440.286 404.865 440.086L417.471 427.467C417.471 427.467 398.562 426.842 380.253 447.027C361.945 467.211 366.312 499.281 366.312 499.281C366.312 499.281 356.207 487.938 317.1 466.49C277.994 445.042 269.152 424.231 265.989 398.982C262.825 373.733 267.889 357.975 267.889 357.975C267.889 357.975 229.829 380.83 219.111 432.555C191.228 566.981 230.034 612.992 281.566 679.574C300.813 704.51 220.783 656.357 195.137 630.254C89.6176 522.714 62.5159 312.685 232.62 178.681C232.62 178.681 257.039 161.84 238.959 134.714C220.879 107.589 210.546 101.045 201.513 110.103C192.479 119.161 196.352 164.33 196.352 164.33C196.352 164.33 178.308 134.642 184.732 104.942C191.155 75.2423 207.972 64.9093 244.132 79.1036C280.291 93.298 308.692 135.917 321.599 153.997C334.507 172.077 335.806 175.962 335.806 175.962L331.932 133.343C331.932 133.343 349.976 121.723 431.353 121.723C512.73 121.723 555.313 148.836 555.313 148.836L539.82 124.297C539.82 124.297 564.359 90.7117 604.392 85.5512C644.425 80.3907 652.172 92.0229 653.459 108.804C654.746 125.584 644.413 147.537 644.413 147.537C644.413 147.537 650.861 115.263 631.494 116.55C612.127 117.837 595.346 152.71 595.346 152.71C595.346 152.71 635.379 204.363 646.999 239.211C658.619 274.06 654.746 286.991 654.746 286.991C654.746 286.991 637.965 316.691 646.999 342.505C656.033 368.32 644.401 398.032 635.367 409.652C626.333 421.272 618.586 422.559 618.586 422.559L581.14 413.525C581.14 413.525 596.633 425.158 609.553 456.133C618.526 477.665 611.285 503.563 599.544 518.227C597.632 542.454 589.199 568.22 573.898 583.521C577.579 568.809 577.375 548.468 574.403 529.883C556.083 528.512 534.707 516.82 534.707 516.82C534.707 516.82 535.994 496.165 556.66 481.935C577.327 467.705 573.357 442.937 583.786 435.454C594.215 427.972 572.154 441.914 535.994 445.788C499.835 449.661 470.147 435.454 470.147 435.454C470.147 435.454 470.147 452.235 488.191 465.154C506.234 478.074 534.719 516.82 515.196 516.326Z" fill="#F2F2F2"/>
<path fill-rule="evenodd" clip-rule="evenodd" d="M116.671 479.866C94.8982 378.497 123.564 264.545 232.632 178.597C232.632 178.597 251.662 165.449 243.662 143.712C247.776 148.524 249.424 143.929 255.391 174.603C261.357 205.277 166.628 259.865 137.758 361.391C108.888 462.917 118.03 457.817 116.719 479.866" fill="white"/>
<path fill-rule="evenodd" clip-rule="evenodd" d="M555.241 148.704V148.62L555.373 148.704H555.241ZM333.773 153.516L331.932 133.343C331.932 133.343 349.976 121.723 431.353 121.723C509.338 121.723 551.716 146.623 555.096 148.692C480.311 141.378 415.474 132.79 333.833 153.504L333.773 153.516Z" fill="white"/>
<path fill-rule="evenodd" clip-rule="evenodd" d="M555.325 148.824L539.819 124.297C539.819 124.297 564.359 90.7115 604.392 85.551C641.802 80.7394 651.017 90.5672 653.11 105.58C615.627 101.129 581.921 125.115 555.325 148.824Z" fill="white"/>
<path fill-rule="evenodd" clip-rule="evenodd" d="M197.976 78.9471C207.684 70.8876 222.407 70.5267 244.132 79.0914C280.291 93.2978 308.692 135.905 321.599 153.985C333.304 170.38 335.457 175.096 335.77 175.83L299.598 176.022C299.598 176.022 288.122 144.482 241.209 102.464C224.079 87.1149 209.548 80.8116 198 78.9471" fill="white"/>
<path fill-rule="evenodd" clip-rule="evenodd" d="M468.042 368.091C468.042 368.091 456.109 308.415 444.717 298.659C433.326 288.904 388.842 268.887 368.236 272.628C347.63 276.369 340.028 298.118 340.028 298.118C340.028 298.118 356.303 306.25 368.236 314.959C380.169 323.668 383.417 329.057 401.316 332.317C412.121 334.262 423.216 333.893 433.867 331.234C433.867 331.234 449.048 363.231 468.042 368.115" fill="#0F111A"/>
<path fill-rule="evenodd" clip-rule="evenodd" d="M568.401 364.831C568.401 364.831 552.679 305.167 553.761 299.742C554.844 294.317 577.627 281.842 591.184 279.136C604.741 276.429 613.426 274.793 622.64 283.478C625.336 286.034 627.42 289.166 628.734 292.641C630.048 296.116 630.56 299.843 630.231 303.543C624.539 305.157 619.322 308.125 615.026 312.192C608.518 318.688 602.54 331.162 592.784 333.844C586.967 335.477 580.9 336.028 574.885 335.468L568.401 364.831Z" fill="#0F111A"/>
<path fill-rule="evenodd" clip-rule="evenodd" d="M416.437 324.774C433.422 325.087 440.808 313.142 440.808 313.142L432.472 310.315C432.472 310.315 421.477 316.126 415.968 313.299C410.458 310.472 407.8 303.675 407.8 303.675L388.782 300.849C393.389 312.745 402.447 324.474 416.449 324.738" fill="#F11012"/>
<path fill-rule="evenodd" clip-rule="evenodd" d="M589.319 316.679C575.991 318.676 568.954 310.027 568.954 310.027L575.221 306.947C575.221 306.947 584.472 310.4 588.513 307.609C592.555 304.818 593.963 299.188 593.963 299.188L608.638 295.014C606.232 304.854 600.302 315.007 589.319 316.667" fill="#F11012"/>
<path fill-rule="evenodd" clip-rule="evenodd" d="M340.028 298.118C340.028 298.118 370.473 343.408 401.208 355.858C431.942 368.308 468.042 368.079 468.042 368.079C449.048 363.196 433.867 331.198 433.867 331.198C423.215 333.857 412.121 334.226 401.316 332.281C383.417 329.021 380.169 323.608 368.236 314.923C356.303 306.238 340.028 298.082 340.028 298.082V298.118ZM560.365 504.983L588.032 514.305C596.57 504.2 600.97 491.24 600.35 478.026C599.352 455.724 592.687 446.75 592.687 446.75C592.687 446.75 592.687 465.72 581.043 475.379C569.399 485.039 560.365 504.983 560.365 504.983ZM413.514 431.28L417.411 427.383C417.411 427.383 398.489 426.757 380.193 446.942C361.897 467.127 366.311 499.293 366.311 499.293C366.311 499.293 356.231 487.938 317.112 466.49C277.993 445.042 269.164 424.231 266 398.994C262.837 373.757 267.901 357.975 267.901 357.975C132.465 463.976 280.495 700.444 462.977 724.021C290.528 719.643 156.054 655.215 117.224 480.888C151.399 411.925 248.185 297.757 319.277 296.013C319.277 296.013 275.708 355.497 305.817 388.866C339.643 426.348 370.666 387.374 418.313 426.89L413.514 431.28ZM470.375 524.362C449.3 531.784 407.956 551.884 394.7 519.49C394.7 519.49 406.729 510.661 429.404 506.871C452.079 503.082 476.715 501.831 476.715 501.831C476.715 501.831 437.018 495.528 419.312 496.791C401.605 498.054 392.186 502.457 392.186 502.457C392.186 502.457 388.397 492.376 394.074 487.324C399.752 482.272 421.826 478.495 437.596 478.495C447.301 478.511 456.996 479.142 466.622 480.383C466.622 480.383 440.748 468.354 420.563 467.151C400.378 465.948 390.911 468.354 390.911 468.354C390.911 468.354 394.7 457.636 402.94 453.847C411.18 450.058 417.459 449.432 428.201 452.644C431.99 453.847 435.96 455.459 439.809 456.722C443.719 458.671 449.661 460.716 454.052 462.737L452.933 461.786C465.287 467.127 476.582 473.334 476.582 473.334C476.582 473.334 464.986 469.04 457.047 450.792C449.264 432.916 455.579 411.252 455.844 410.374C457.047 405.562 466.466 393.256 469.894 389.455C468.15 420.105 465.576 451.056 488.238 465.239C507.678 477.388 534.719 516.88 515.256 516.386C515.256 516.386 498.86 514.498 471.735 523.953L470.375 524.362ZM594.684 402.627L616.337 409.291C616.337 409.291 629.677 398.056 635.92 384.728C642.163 371.399 639.24 360.994 639.24 360.994C639.24 360.994 609.3 399.704 594.684 402.615V402.627ZM611.08 316.823C609.083 323.403 603.321 337.573 591.99 346.415L568.401 364.831L574.908 335.541C580.924 336.1 586.991 335.55 592.808 333.917L593.169 333.808H593.265L593.53 333.724L593.71 333.652L593.89 333.592L594.155 333.496H594.239L594.588 333.363L594.925 333.207H595.009L595.262 333.087L595.442 333.002L595.598 332.93L595.863 332.798H595.935L596.272 332.617L596.585 332.437H596.693L596.922 332.305L597.102 332.184L597.246 332.1L597.499 331.932L597.824 331.715L598.113 331.511L598.209 331.439L598.425 331.282L598.606 331.15L598.738 331.054L598.991 330.849L599.303 330.609L599.58 330.38L599.688 330.296L599.881 330.127L600.061 329.971L600.182 329.875L600.434 329.634L600.879 329.033L601.132 328.792L601.24 328.696L601.421 328.516L601.601 328.335L601.709 328.239L601.95 327.986L602.239 327.698L602.479 327.433L602.587 327.325L602.756 327.144L602.936 326.94L603.032 326.843L603.285 326.567L603.562 326.254L603.79 326.001L603.911 325.869L604.067 325.689L604.247 325.484L604.332 325.376L604.584 325.075L604.849 324.774V324.702L605.065 324.45L605.186 324.305L605.318 324.125L605.499 323.896L605.583 323.8L605.823 323.499L606.076 323.175V323.102L606.28 322.862L606.401 322.705L606.533 322.525L606.713 322.296L606.786 322.2L607.038 321.875L607.279 321.551V321.466L607.471 321.214L607.604 321.057L607.724 320.889L607.916 320.648V320.564L608.157 320.239L608.41 319.915L608.47 319.831L608.65 319.59L608.782 319.422L608.891 319.265L609.083 319.013V318.94L609.324 318.628L609.564 318.315L609.637 318.231L609.817 318.002L609.937 317.834L610.058 317.689L610.238 317.437L611.08 316.823Z" fill="#E6E6E6"/>
<path d="M458.643 596.462C475.238 582.234 513.841 563.578 535.494 602.774C522.65 611.699 489.299 622.932 458.643 596.462Z" fill="#F11012"/>
<path d="M448.127 584.068C453.453 588.724 460.311 592.778 468.237 595.955C476.162 599.133 484.972 601.36 494.07 602.487C503.169 603.614 512.344 603.614 520.977 602.487C529.61 601.36 537.499 599.132 544.112 595.955C545.152 595.419 546.515 595.123 547.984 595.114C549.453 595.105 550.944 595.384 552.222 595.905C553.5 596.427 554.491 597.162 555.04 597.994C555.588 598.827 555.662 599.709 555.249 600.501C548.383 614.842 521.163 622.655 491.491 618.98C461.82 615.305 438.115 601.186 436.225 585.761C436.22 584.961 436.641 584.21 437.432 583.609C438.223 583.008 439.344 582.587 440.644 582.402C441.944 582.217 443.359 582.278 444.698 582.576C446.037 582.874 447.234 583.395 448.127 584.068Z" fill="#E6E6E6"/>
<path d="M76.8885 717.211C76.8885 717.211 112.571 732.89 145.141 715.468C145.141 715.468 176.168 653.702 128.47 633.339C128.47 633.339 98.943 615.239 98.943 610.714C98.943 610.714 83.0438 662.752 69.4159 669.539C69.4159 669.539 54.8114 701.531 76.8885 717.211Z" fill="#F11012"/>
<path fill-rule="evenodd" clip-rule="evenodd" d="M57.0704 595.94C37.0656 561.946 71.2071 548.19 70.4069 530.762C86.8109 564.099 54.8477 567.906 57.0704 595.94Z" fill="#FFB52B"/>
<path fill-rule="evenodd" clip-rule="evenodd" d="M48.8868 608.277C51.1524 623.451 57.2241 637.106 73.8079 645.453C54.0976 611.316 63.1825 576.431 88.1942 562.005C85.9287 566.541 82.8928 576.431 89.7122 580.967C110.102 558.966 115.472 524.08 110.918 496C136.677 520.95 151.086 555.926 134.412 587.046C123.084 609.025 141.208 630.278 151.086 587.046C196.533 630.278 195.038 706.127 125.327 722.821C131.376 715.246 168.508 680.338 131.376 640.894C135.907 671.991 110.986 671.991 114.701 702.339C95.0136 668.974 137.357 667.454 101.108 618.892C110.17 659.107 51.1071 675.03 92.7707 722.073C30.6944 709.053 25.393 651.373 48.8868 608.277Z" fill="#FFB52B"/>
<path d="M217.831 175.247C217.831 175.247 188.747 188.124 162.199 173.816C162.199 173.816 136.909 123.089 175.787 106.366C175.787 106.366 199.854 91.5007 199.854 87.7844C199.854 87.7844 212.814 130.522 223.922 136.096C223.922 136.096 235.807 162.37 217.831 175.247Z" fill="#F11012"/>
<path fill-rule="evenodd" clip-rule="evenodd" d="M241.277 86.1553C239.42 98.4751 234.443 109.561 220.849 116.338C237.005 88.623 229.54 60.3004 209.057 48.5883C210.914 52.2713 213.402 60.3004 207.813 63.9834C191.099 46.1207 186.698 17.798 190.412 -5C169.297 15.2567 157.505 43.653 171.173 68.9187C180.458 86.763 165.602 104.018 157.505 68.9187C120.234 104.018 121.478 165.599 178.62 179.152C173.643 173.002 143.224 144.66 173.643 112.636C169.929 137.884 190.356 137.884 187.311 162.523C203.467 135.434 168.74 134.201 198.453 94.7737C191.025 127.424 239.457 140.351 205.287 178.545C256.263 167.974 260.534 121.144 241.277 86.1553Z" fill="#FFB52B"/>
<path d="M187.795 379.65C187.795 379.65 158.33 392.596 131.434 378.211C131.434 378.211 105.814 327.212 145.201 310.399C145.201 310.399 169.584 295.454 169.584 291.718C169.584 291.718 182.713 334.684 193.966 340.289C193.966 340.289 206.007 366.704 187.795 379.65Z" fill="#F11012"/>
<path fill-rule="evenodd" clip-rule="evenodd" d="M204.686 279.519C221.793 251.451 192.596 240.092 193.281 225.702C179.252 253.228 206.586 256.372 204.686 279.519Z" fill="#FFB52B"/>
<path fill-rule="evenodd" clip-rule="evenodd" d="M211.549 289.705C209.667 302.234 204.625 313.508 190.853 320.4C207.221 292.214 199.658 263.41 178.907 251.499C180.788 255.245 183.309 263.41 177.646 267.156C160.714 248.99 156.255 220.186 160.018 197C138.626 217.601 126.679 246.48 140.526 272.175C149.933 290.323 134.882 307.871 126.679 272.175C88.9202 307.871 90.1807 370.498 148.071 384.282C143.029 378.027 112.212 349.204 143.029 316.636C139.266 342.312 159.961 342.312 156.876 367.371C173.244 339.822 138.062 338.567 168.164 298.47C160.638 331.675 209.705 344.822 175.087 383.664C226.731 372.914 231.058 325.288 211.549 289.705Z" fill="#FFB52B"/>
<path d="M592.016 781.173C592.016 781.173 565.531 792.81 541.356 779.88C541.356 779.88 518.327 734.04 553.73 718.928C553.73 718.928 575.646 705.494 575.646 702.136C575.646 702.136 587.447 740.756 597.562 745.794C597.562 745.794 608.385 769.537 592.016 781.173Z" fill="#F11012"/>
<path fill-rule="evenodd" clip-rule="evenodd" d="M607.197 691.172C622.574 665.943 596.331 655.733 596.946 642.799C584.337 667.54 608.905 670.366 607.197 691.172Z" fill="#FFB52B"/>
<path fill-rule="evenodd" clip-rule="evenodd" d="M613.366 700.327C611.675 711.589 607.143 721.723 594.764 727.917C609.476 702.583 602.678 676.692 584.026 665.986C585.717 669.353 587.983 676.692 582.893 680.059C567.673 663.73 563.665 637.84 567.047 617C547.82 635.517 537.082 661.475 549.528 684.571C557.983 700.882 544.455 716.656 537.082 684.571C503.142 716.656 504.275 772.948 556.309 785.337C551.777 779.715 524.078 753.808 551.777 724.534C548.395 747.613 566.997 747.613 564.223 770.136C578.936 745.374 547.313 744.246 574.37 708.205C567.605 738.051 611.708 749.869 580.593 784.782C627.013 775.119 630.902 732.311 613.366 700.327Z" fill="#FFB52B"/>
<path d="M721.879 331.227C721.879 331.227 684.577 347.616 650.528 329.406C650.528 329.406 618.094 264.843 667.956 243.558C667.956 243.558 698.823 224.638 698.823 219.908C698.823 219.908 715.444 274.302 729.691 281.397C729.691 281.397 744.934 314.838 721.879 331.227Z" fill="#F11012"/>
<path fill-rule="evenodd" clip-rule="evenodd" d="M743.262 204.466C764.919 168.932 727.957 154.553 728.824 136.336C711.065 171.183 745.668 175.162 743.262 204.466Z" fill="#FFB52B"/>
<path fill-rule="evenodd" clip-rule="evenodd" d="M751.95 217.36C749.568 233.222 743.185 247.495 725.751 256.22C746.472 220.537 736.897 184.073 710.626 168.994C713.008 173.736 716.2 184.073 709.031 188.815C687.595 165.817 681.95 129.352 686.714 100C659.633 126.08 644.509 162.64 662.039 195.169C673.948 218.143 654.894 240.358 644.509 195.169C596.707 240.358 598.303 319.642 671.59 337.092C665.207 329.173 626.194 292.684 665.207 251.454C660.443 283.959 686.642 283.959 682.736 315.682C703.457 280.806 658.919 279.218 697.027 228.456C687.5 270.493 749.616 287.136 705.792 336.309C771.17 322.7 776.648 262.408 751.95 217.36Z" fill="#FFB52B"/>
<path d="M519.727 190.835C519.727 190.835 550.032 204.254 577.695 189.344C577.695 189.344 604.046 136.481 563.536 119.054C563.536 119.054 538.458 103.563 538.458 99.6904C538.458 99.6904 524.955 144.227 513.38 150.036C513.38 150.036 500.976 177.416 519.727 190.835Z" fill="#F11012"/>
<path fill-rule="evenodd" clip-rule="evenodd" d="M495.937 98.0404C497.861 110.885 503.015 122.444 517.095 129.509C500.361 100.613 508.074 71.0835 529.308 58.8722C527.385 62.7122 524.808 71.0835 530.597 74.9235C547.908 56.2994 552.466 26.7697 548.6 3C570.546 24.1009 582.837 53.6306 568.623 79.9731C559.006 98.578 574.393 116.568 582.779 79.9731C621.305 116.568 620.093 180.773 560.91 194.905C566.045 188.492 597.57 158.943 566.045 125.554C569.892 151.877 548.735 151.877 551.889 177.567C535.175 149.324 571.123 148.037 540.349 106.93C548.042 140.972 497.899 154.45 533.27 194.271C480.492 183.346 475.992 134.521 495.937 98.0404Z" fill="#FFB52B"/>
<path d="M45.2463 236.598C45.2463 236.598 71.6414 248.286 95.7347 235.3C95.7347 235.3 118.686 189.258 83.4024 174.079C83.4024 174.079 61.5605 160.587 61.5605 157.214C61.5605 157.214 49.7995 196.004 39.7186 201.064C39.7186 201.064 28.9152 224.911 45.2463 236.598Z" fill="#F11012"/>
<path fill-rule="evenodd" clip-rule="evenodd" d="M24.526 155.777C26.2013 166.965 30.6908 177.032 42.9534 183.186C28.379 158.018 35.0967 132.299 53.5911 121.663C51.9159 125.007 49.6711 132.299 54.7135 135.643C69.7905 119.422 73.7607 93.7026 70.3935 73C89.5078 91.3782 100.212 117.098 87.8326 140.041C79.4565 156.245 92.8582 171.914 100.162 140.041C133.717 171.914 132.661 227.835 81.1149 240.143C85.5878 234.557 113.045 208.821 85.5878 179.741C88.9382 202.667 70.5108 202.667 73.2582 225.042C58.7005 200.443 90.0104 199.323 63.2068 163.52C69.9077 193.169 26.2348 204.908 57.042 239.591C11.074 230.076 7.15401 187.55 24.526 155.777Z" fill="#FFB52B"/>
<path d="M219.246 767.598C219.246 767.598 245.641 779.286 269.735 766.3C269.735 766.3 292.686 720.258 257.402 705.079C257.402 705.079 235.561 691.587 235.561 688.214C235.561 688.214 223.799 727.004 213.719 732.064C213.719 732.064 202.915 755.911 219.246 767.598Z" fill="#F11012"/>
<path fill-rule="evenodd" clip-rule="evenodd" d="M198.526 686.777C200.201 697.965 204.691 708.032 216.953 714.186C202.379 689.018 209.097 663.299 227.591 652.663C225.916 656.007 223.671 663.299 228.713 666.643C243.79 650.422 247.761 624.703 244.394 604C263.508 622.378 274.212 648.098 261.833 671.041C253.456 687.245 266.858 702.914 274.162 671.041C307.717 702.914 306.661 758.835 255.115 771.143C259.588 765.557 287.045 739.821 259.588 710.741C262.938 733.667 244.511 733.667 247.258 756.042C232.701 731.443 264.01 730.323 237.207 694.52C243.908 724.169 200.235 735.908 231.042 770.591C185.074 761.076 181.154 718.55 198.526 686.777Z" fill="#FFB52B"/>
<path d="M740.498 708.852C740.498 708.852 705.023 724.559 672.642 707.107C672.642 707.107 641.796 645.234 689.216 624.836C689.216 624.836 718.572 606.704 718.572 602.172C718.572 602.172 734.379 654.299 747.927 661.099C747.927 661.099 762.424 693.146 740.498 708.852Z" fill="#F11012"/>
<path fill-rule="evenodd" clip-rule="evenodd" d="M769.095 600.185C766.83 615.211 760.76 628.733 744.179 636.999C763.886 603.194 754.78 568.649 729.796 554.363C732.061 558.855 735.096 568.649 728.278 573.141C707.892 551.353 702.524 516.807 707.054 489C681.3 513.708 666.917 548.343 683.588 579.161C694.913 600.926 676.793 621.972 666.917 579.161C621.456 621.972 622.974 697.084 692.671 713.615C686.601 706.113 649.498 671.545 686.601 632.484C682.07 663.279 706.986 663.279 703.272 693.333C722.978 660.292 680.621 658.787 716.862 610.697C707.802 650.521 766.875 666.289 725.198 712.874C787.375 699.981 792.584 642.862 769.095 600.185Z" fill="#FFB52B"/>
</g>
<defs>
<clipPath id="clip0">
<rect width="800" height="800" fill="white"/>
</clipPath>
</defs>
</svg>
