<svg width="50" height="50" viewBox="0 0 800 800" fill="none" xmlns="http://www.w3.org/2000/svg">
<path fill-rule="evenodd" clip-rule="evenodd" d="M163.669 172.185C150.677 146.804 146.575 124.838 152.446 97.9171C164.378 42.9681 206.408 28.7737 256.197 48.3451C278.403 57.0542 296.615 71.8621 312.553 89.0757C378.306 68.814 449.042 71.9035 512.778 97.8209L517.662 99.0238C537.666 75.0377 570.001 56.7174 600.17 52.832C641.995 47.4309 682.617 57.0061 686.407 106.313C687.766 124.032 681.848 145.757 674.281 161.732L661.759 188.196L658.547 187.137C666.895 201.572 674.065 216.007 678.347 228.878C684.494 247.307 692.193 276.838 686.467 296.374L685.36 300.163L683.616 303.182C679.827 310.111 675.52 324.053 678.191 331.703C689.017 362.654 681.583 404.167 661.458 430.053C658.79 433.477 655.866 436.694 652.713 439.677C650.488 445.98 647.805 453.234 644.93 461.185C645.135 462.388 645.291 463.591 645.435 464.878C667.172 463.434 687.802 465.804 708.384 479.216C708.384 479.216 666.51 478.916 645.977 481.622C645.848 484.229 645.628 486.839 645.315 489.453C670.696 495.059 693.516 504.466 712.317 526.828C712.317 526.828 664.453 511.984 641.345 508.423C636.967 522.858 629.653 536.09 619.693 546.026C617.385 557.317 615.921 568.765 615.314 580.273C623.336 582.646 631.617 584.032 639.974 584.399C691.699 586.011 733.056 563.95 733.056 563.95C715.553 787.054 376.548 795.51 226.184 709.153C29.7965 596.404 22.555 333.953 163.633 172.137" fill="#0F111A"/>
<path fill-rule="evenodd" clip-rule="evenodd" d="M515.196 516.326C515.196 516.326 498.8 514.438 471.675 523.893C444.549 533.348 430.655 539.663 415.523 536.511C400.39 533.36 394.7 519.478 394.7 519.478C394.7 519.478 406.729 510.637 429.404 506.859C452.079 503.082 476.715 501.819 476.715 501.819C476.715 501.819 437.019 495.516 419.312 496.779C401.605 498.042 392.174 502.457 392.174 502.457C392.174 502.457 388.397 492.364 394.075 487.312C399.753 482.26 421.826 478.483 437.596 478.483C447.302 478.499 456.997 479.13 466.622 480.371C466.622 480.371 440.748 468.342 420.563 467.139C400.378 465.936 390.911 468.414 390.911 468.414C390.911 468.414 394.7 457.696 402.94 453.979C411.18 450.262 417.459 449.553 428.201 452.704C438.943 455.856 454.064 462.797 454.064 462.797C454.064 462.797 433.879 445.126 423.149 442.612C417.16 441.133 411.031 440.286 404.865 440.086L417.471 427.467C417.471 427.467 398.562 426.842 380.253 447.027C361.945 467.211 366.312 499.281 366.312 499.281C366.312 499.281 356.207 487.938 317.1 466.49C277.994 445.042 269.152 424.231 265.989 398.982C262.825 373.733 267.889 357.975 267.889 357.975C267.889 357.975 229.829 380.83 219.111 432.555C191.228 566.981 230.034 612.992 281.566 679.574C300.813 704.51 220.783 656.357 195.137 630.254C89.6176 522.714 62.5159 312.685 232.62 178.681C232.62 178.681 257.039 161.84 238.959 134.714C220.879 107.589 210.546 101.045 201.513 110.103C192.479 119.161 196.352 164.33 196.352 164.33C196.352 164.33 178.308 134.642 184.732 104.942C191.155 75.2423 207.972 64.9093 244.132 79.1036C280.291 93.298 308.692 135.917 321.599 153.997C334.507 172.077 335.806 175.962 335.806 175.962L331.932 133.343C331.932 133.343 349.976 121.723 431.353 121.723C512.73 121.723 555.313 148.836 555.313 148.836L539.82 124.297C539.82 124.297 564.359 90.7117 604.392 85.5512C644.425 80.3907 652.172 92.0229 653.459 108.804C654.746 125.584 644.413 147.537 644.413 147.537C644.413 147.537 650.861 115.263 631.494 116.55C612.127 117.837 595.346 152.71 595.346 152.71C595.346 152.71 635.379 204.363 646.999 239.211C658.619 274.06 654.746 286.991 654.746 286.991C654.746 286.991 637.965 316.691 646.999 342.505C656.033 368.32 644.401 398.032 635.367 409.652C626.333 421.272 618.586 422.559 618.586 422.559L581.14 413.525C581.14 413.525 596.633 425.158 609.553 456.133C618.526 477.665 611.285 503.563 599.544 518.227C597.632 542.454 589.199 568.22 573.898 583.521C577.579 568.809 577.375 548.468 574.403 529.883C556.083 528.512 534.707 516.82 534.707 516.82C534.707 516.82 535.994 496.165 556.66 481.935C577.327 467.705 573.357 442.937 583.786 435.454C594.215 427.972 572.154 441.914 535.994 445.788C499.835 449.661 470.147 435.454 470.147 435.454C470.147 435.454 470.147 452.235 488.191 465.154C506.234 478.074 534.719 516.82 515.196 516.326Z" fill="#F2F2F2"/>
<path fill-rule="evenodd" clip-rule="evenodd" d="M116.67 479.866C94.8977 378.497 123.563 264.545 232.631 178.597C232.631 178.597 251.661 165.449 243.662 143.712C247.776 148.524 249.424 143.929 255.39 174.603C261.357 205.277 166.627 259.865 137.757 361.391C108.888 462.917 118.03 457.817 116.719 479.866" fill="white"/>
<path fill-rule="evenodd" clip-rule="evenodd" d="M555.241 148.704V148.62L555.373 148.704H555.241ZM333.773 153.516L331.932 133.343C331.932 133.343 349.976 121.723 431.353 121.723C509.338 121.723 551.716 146.623 555.097 148.692C480.312 141.378 415.475 132.79 333.833 153.504L333.773 153.516Z" fill="white"/>
<path fill-rule="evenodd" clip-rule="evenodd" d="M555.325 148.824L539.819 124.297C539.819 124.297 564.359 90.7114 604.392 85.5509C641.802 80.7393 651.017 90.5671 653.11 105.579C615.627 101.129 581.921 125.115 555.325 148.824Z" fill="white"/>
<path fill-rule="evenodd" clip-rule="evenodd" d="M197.976 78.9471C207.683 70.8876 222.407 70.5267 244.132 79.0914C280.291 93.2978 308.692 135.905 321.599 153.985C333.304 170.38 335.457 175.096 335.769 175.83L299.598 176.022C299.598 176.022 288.122 144.482 241.209 102.464C224.079 87.1149 209.548 80.8116 198 78.9471" fill="white"/>
<path fill-rule="evenodd" clip-rule="evenodd" d="M560.365 504.983L588.032 514.305C596.57 504.2 600.97 491.24 600.35 478.026C599.352 455.724 592.687 446.75 592.687 446.75C592.687 446.75 592.687 465.72 581.043 475.379C569.399 485.039 560.365 504.983 560.365 504.983ZM413.514 431.28L417.411 427.383C417.411 427.383 398.489 426.757 380.193 446.942C361.897 467.127 366.311 499.293 366.311 499.293C366.311 499.293 356.231 487.938 317.112 466.49C277.993 445.042 269.164 424.231 266 398.994C262.837 373.757 267.901 357.975 267.901 357.975C132.465 463.976 280.495 700.444 462.977 724.021C290.528 719.643 156.054 655.215 117.224 480.888C151.399 411.925 248.185 297.757 319.277 296.013C319.277 296.013 275.708 355.497 305.817 388.866C339.643 426.348 370.666 387.374 418.313 426.89L413.514 431.28ZM470.375 524.362C449.3 531.784 407.956 551.884 394.7 519.49C394.7 519.49 406.729 510.661 429.404 506.871C452.079 503.082 476.715 501.831 476.715 501.831C476.715 501.831 437.018 495.528 419.312 496.791C401.605 498.054 392.186 502.457 392.186 502.457C392.186 502.457 388.397 492.376 394.074 487.324C399.752 482.272 421.826 478.495 437.596 478.495C447.301 478.511 456.996 479.142 466.622 480.383C466.622 480.383 440.748 468.354 420.563 467.151C400.378 465.948 390.911 468.354 390.911 468.354C390.911 468.354 394.7 457.636 402.94 453.847C411.18 450.058 417.459 449.432 428.201 452.644C431.99 453.847 435.96 455.459 439.809 456.722C443.719 458.671 449.661 460.716 454.052 462.737L452.933 461.786C465.287 467.127 476.582 473.334 476.582 473.334C476.582 473.334 464.986 469.04 457.047 450.792C449.264 432.916 455.579 411.252 455.844 410.374C457.047 405.562 466.466 393.256 469.894 389.455C468.15 420.105 465.576 451.056 488.238 465.239C507.678 477.388 534.719 516.88 515.256 516.386C515.256 516.386 498.86 514.498 471.735 523.953L470.375 524.362ZM594.684 402.627L616.337 409.291C616.337 409.291 629.677 398.056 635.92 384.728C642.163 371.399 639.24 360.994 639.24 360.994C639.24 360.994 609.3 399.704 594.684 402.615V402.627Z" fill="#E6E6E6"/>
<path d="M361.752 274.965H361.178C348.953 276.111 340.607 282.969 338.725 292.452C336.844 301.935 341.153 313.231 351.654 323.714C351.916 323.996 352.232 324.222 352.582 324.379C352.933 324.536 353.311 324.62 353.694 324.627C354.272 324.64 354.84 324.476 355.324 324.157C355.808 323.839 356.186 323.38 356.408 322.841C356.63 322.302 356.685 321.709 356.568 321.138C356.45 320.566 356.164 320.044 355.748 319.639C346.181 310.07 343.021 300.471 344.385 293.54C345.75 286.609 351.295 281.65 361.752 280.678C362.514 280.678 363.245 280.373 363.784 279.829C364.323 279.285 364.625 278.548 364.625 277.778C364.625 277.009 364.323 276.272 363.784 275.728C363.245 275.184 362.514 274.878 361.752 274.878V274.965ZM416.44 262.873C421.576 262.933 426.652 264.007 431.38 266.033C445.472 272.123 455.398 287 450.413 304.821C443.087 331.631 410.637 357.571 390.669 375.014C390.407 375.301 390.09 375.531 389.738 375.691C389.386 375.851 389.005 375.937 388.619 375.946C388.233 375.954 387.849 375.883 387.49 375.738C387.132 375.593 386.806 375.376 386.532 375.101C354.383 347.175 333.497 326.744 326.702 304.864C321.531 285.579 332.735 272.007 345.692 266.033C351.099 263.702 356.958 262.637 362.83 262.916C372.568 263.395 381.763 267.588 388.558 274.646C395.319 267.583 404.494 263.388 414.213 262.916C414.96 262.916 415.65 262.916 416.469 262.916L416.44 262.873Z" fill="#F11012"/>
<path d="M528.957 273.763H528.383C516.158 274.908 507.812 281.766 505.93 291.249C504.049 300.732 508.358 312.028 518.859 322.511C519.121 322.793 519.437 323.019 519.787 323.176C520.138 323.333 520.516 323.417 520.899 323.425C521.477 323.437 522.045 323.273 522.529 322.954C523.013 322.636 523.391 322.177 523.613 321.638C523.835 321.1 523.89 320.506 523.773 319.935C523.655 319.363 523.369 318.841 522.953 318.437C513.386 308.867 510.226 299.268 511.59 292.337C512.955 285.406 518.5 280.447 528.957 279.475C529.719 279.475 530.45 279.17 530.989 278.626C531.528 278.082 531.83 277.345 531.83 276.575C531.83 275.806 531.528 275.069 530.989 274.525C530.45 273.981 529.719 273.676 528.957 273.676V273.763ZM583.645 261.67C588.781 261.73 593.857 262.804 598.585 264.831C612.677 270.921 622.603 285.797 617.618 303.618C610.292 330.428 577.841 356.368 557.874 373.811C557.612 374.098 557.295 374.328 556.943 374.488C556.591 374.648 556.21 374.735 555.824 374.743C555.438 374.751 555.054 374.68 554.695 374.535C554.337 374.39 554.011 374.174 553.737 373.898C521.588 345.972 500.702 325.541 493.907 303.661C488.736 284.376 499.94 270.805 512.897 264.831C518.304 262.5 524.162 261.434 530.035 261.713C539.773 262.192 548.968 266.385 555.763 273.444C562.524 266.38 571.699 262.185 581.418 261.713C582.165 261.713 582.855 261.713 583.674 261.713L583.645 261.67Z" fill="#F11012"/>
</svg>
