<svg width="50" height="50" viewBox="0 0 800 800" fill="none" xmlns="http://www.w3.org/2000/svg">
<path fill-rule="evenodd" clip-rule="evenodd" d="M163.669 172.185C150.677 146.804 146.575 124.838 152.446 97.9171C164.378 42.9681 206.408 28.7737 256.197 48.3451C278.403 57.0542 296.615 71.8621 312.553 89.0757C378.306 68.814 449.042 71.9035 512.778 97.8209L517.662 99.0238C537.666 75.0377 570.001 56.7174 600.17 52.832C641.995 47.4309 682.617 57.0061 686.407 106.313C687.766 124.032 681.848 145.757 674.281 161.732L661.759 188.196L658.547 187.137C666.895 201.572 674.065 216.007 678.347 228.878C684.494 247.307 692.193 276.838 686.467 296.374L685.36 300.163L683.616 303.182C679.827 310.111 675.52 324.053 678.191 331.703C689.017 362.654 681.583 404.167 661.458 430.053C658.79 433.477 655.866 436.694 652.713 439.677C650.488 445.98 647.805 453.234 644.93 461.185C645.135 462.388 645.291 463.591 645.435 464.878C667.172 463.434 687.802 465.804 708.384 479.216C708.384 479.216 666.51 478.916 645.977 481.622C645.848 484.229 645.628 486.839 645.315 489.453C670.696 495.059 693.516 504.466 712.317 526.828C712.317 526.828 664.453 511.984 641.345 508.423C636.967 522.858 629.653 536.09 619.693 546.026C617.385 557.317 615.921 568.765 615.314 580.273C623.336 582.646 631.617 584.032 639.974 584.399C691.699 586.011 733.056 563.95 733.056 563.95C715.553 787.054 376.548 795.51 226.184 709.153C29.7965 596.404 22.555 333.953 163.633 172.137" fill="#0F111A"/>
<path fill-rule="evenodd" clip-rule="evenodd" d="M515.196 516.326C515.196 516.326 498.8 514.438 471.674 523.893C444.549 533.348 430.655 539.663 415.522 536.511C400.39 533.36 394.7 519.478 394.7 519.478C394.7 519.478 406.729 510.637 429.404 506.859C452.079 503.082 476.715 501.819 476.715 501.819C476.715 501.819 437.019 495.516 419.312 496.779C401.605 498.042 392.174 502.457 392.174 502.457C392.174 502.457 388.397 492.364 394.075 487.312C399.752 482.26 421.826 478.483 437.596 478.483C447.302 478.499 456.996 479.13 466.622 480.371C466.622 480.371 440.748 468.342 420.563 467.139C400.378 465.936 390.911 468.414 390.911 468.414C390.911 468.414 394.7 457.696 402.94 453.979C411.18 450.262 417.459 449.553 428.201 452.704C438.943 455.856 454.064 462.797 454.064 462.797C454.064 462.797 433.879 445.126 423.149 442.612C417.159 441.133 411.031 440.286 404.865 440.086L417.471 427.467C417.471 427.467 398.561 426.842 380.253 447.027C361.945 467.211 366.311 499.281 366.311 499.281C366.311 499.281 356.207 487.938 317.1 466.49C277.993 445.042 269.152 424.231 265.988 398.982C262.825 373.733 267.889 357.975 267.889 357.975C267.889 357.975 229.829 380.83 219.111 432.555C191.227 566.981 230.033 612.992 281.566 679.574C300.813 704.51 220.783 656.357 195.137 630.254C89.6173 522.714 62.5157 312.685 232.62 178.681C232.62 178.681 257.039 161.84 238.959 134.714C220.879 107.589 210.546 101.045 201.512 110.103C192.478 119.161 196.352 164.33 196.352 164.33C196.352 164.33 178.308 134.642 184.732 104.942C191.155 75.2423 207.972 64.9093 244.131 79.1036C280.291 93.298 308.692 135.917 321.599 153.997C334.506 172.077 335.805 175.962 335.805 175.962L331.932 133.343C331.932 133.343 349.976 121.723 431.353 121.723C512.73 121.723 555.313 148.836 555.313 148.836L539.819 124.297C539.819 124.297 564.359 90.7117 604.392 85.5512C644.425 80.3907 652.172 92.0229 653.459 108.804C654.746 125.584 644.413 147.537 644.413 147.537C644.413 147.537 650.86 115.263 631.493 116.55C612.127 117.837 595.346 152.71 595.346 152.71C595.346 152.71 635.379 204.363 646.999 239.211C658.619 274.06 654.746 286.991 654.746 286.991C654.746 286.991 637.965 316.691 646.999 342.505C656.033 368.32 644.401 398.032 635.367 409.652C626.333 421.272 618.586 422.559 618.586 422.559L581.14 413.525C581.14 413.525 596.633 425.158 609.552 456.133C618.526 477.665 611.285 503.563 599.544 518.227C597.631 542.454 589.199 568.22 573.898 583.521C577.579 568.809 577.374 548.468 574.403 529.883C556.083 528.512 534.707 516.82 534.707 516.82C534.707 516.82 535.994 496.165 556.66 481.935C577.326 467.705 573.357 442.937 583.786 435.454C594.215 427.972 572.154 441.914 535.994 445.788C499.835 449.661 470.147 435.454 470.147 435.454C470.147 435.454 470.147 452.235 488.19 465.154C506.234 478.074 534.719 516.82 515.196 516.326Z" fill="#F2F2F2"/>
<path fill-rule="evenodd" clip-rule="evenodd" d="M116.671 479.866C94.8984 378.497 123.564 264.545 232.632 178.597C232.632 178.597 251.662 165.449 243.663 143.712C247.777 148.524 249.425 143.929 255.391 174.603C261.358 205.277 166.628 259.865 137.758 361.391C108.888 462.917 118.03 457.817 116.719 479.866" fill="white"/>
<path fill-rule="evenodd" clip-rule="evenodd" d="M555.241 148.704V148.62L555.373 148.704H555.241ZM333.773 153.516L331.932 133.343C331.932 133.343 349.976 121.723 431.353 121.723C509.338 121.723 551.716 146.623 555.096 148.692C480.311 141.378 415.474 132.79 333.833 153.504L333.773 153.516Z" fill="white"/>
<path fill-rule="evenodd" clip-rule="evenodd" d="M555.325 148.824L539.819 124.297C539.819 124.297 564.359 90.7114 604.392 85.5509C641.802 80.7393 651.017 90.5671 653.11 105.579C615.627 101.129 581.921 125.115 555.325 148.824Z" fill="white"/>
<path fill-rule="evenodd" clip-rule="evenodd" d="M197.976 78.9471C207.683 70.8876 222.407 70.5267 244.132 79.0914C280.291 93.2978 308.692 135.905 321.599 153.985C333.304 170.38 335.457 175.096 335.769 175.83L299.598 176.022C299.598 176.022 288.122 144.482 241.209 102.464C224.079 87.1149 209.548 80.8116 198 78.9471" fill="white"/>
<path fill-rule="evenodd" clip-rule="evenodd" d="M560.365 504.983L588.032 514.305C596.57 504.2 600.97 491.24 600.35 478.026C599.352 455.724 592.687 446.75 592.687 446.75C592.687 446.75 592.687 465.72 581.043 475.379C569.399 485.039 560.365 504.983 560.365 504.983ZM413.514 431.28L417.411 427.383C417.411 427.383 398.489 426.757 380.193 446.942C361.897 467.127 366.311 499.293 366.311 499.293C366.311 499.293 356.231 487.938 317.112 466.49C277.993 445.042 269.164 424.231 266 398.994C262.837 373.757 267.901 357.975 267.901 357.975C132.465 463.976 280.495 700.444 462.977 724.021C290.528 719.643 156.054 655.215 117.224 480.888C151.399 411.925 248.185 297.757 319.277 296.013C319.277 296.013 275.708 355.497 305.817 388.866C339.643 426.348 370.666 387.374 418.313 426.89L413.514 431.28ZM470.375 524.362C449.3 531.784 407.956 551.884 394.7 519.49C394.7 519.49 406.729 510.661 429.404 506.871C452.079 503.082 476.715 501.831 476.715 501.831C476.715 501.831 437.018 495.528 419.312 496.791C401.605 498.054 392.186 502.457 392.186 502.457C392.186 502.457 388.397 492.376 394.074 487.324C399.752 482.272 421.826 478.495 437.596 478.495C447.301 478.511 456.996 479.142 466.622 480.383C466.622 480.383 440.748 468.354 420.563 467.151C400.378 465.948 390.911 468.354 390.911 468.354C390.911 468.354 394.7 457.636 402.94 453.847C411.18 450.058 417.459 449.432 428.201 452.644C431.99 453.847 435.96 455.459 439.809 456.722C443.719 458.671 449.661 460.716 454.052 462.737L452.933 461.786C465.287 467.127 476.582 473.334 476.582 473.334C476.582 473.334 464.986 469.04 457.047 450.792C449.264 432.916 455.579 411.252 455.844 410.374C457.047 405.562 466.466 393.256 469.894 389.455C468.15 420.105 465.576 451.056 488.238 465.239C507.678 477.388 534.719 516.88 515.256 516.386C515.256 516.386 498.86 514.498 471.735 523.953L470.375 524.362ZM594.684 402.627L616.337 409.291C616.337 409.291 629.677 398.056 635.92 384.728C642.163 371.399 639.24 360.994 639.24 360.994C639.24 360.994 609.3 399.704 594.684 402.615V402.627Z" fill="#E6E6E6"/>
<path d="M434.88 341.651C430.482 336.527 425.049 332.418 418.948 329.602C412.847 326.786 406.221 325.329 399.517 325.329C392.813 325.329 386.187 326.786 380.086 329.602C373.986 332.418 368.553 336.527 364.154 341.651C363.466 342.503 362.517 343.099 361.458 343.344C360.398 343.588 359.288 343.468 358.303 343.002C357.319 342.536 356.515 341.751 356.021 340.771C355.526 339.791 355.368 338.672 355.572 337.59C358.829 318.111 377.56 303.771 399.423 303.771C421.286 303.771 440.08 318.111 443.275 337.59C443.373 338.615 443.158 339.645 442.658 340.541C442.158 341.437 441.399 342.156 440.482 342.599C439.565 343.043 438.536 343.19 437.533 343.02C436.531 342.85 435.605 342.373 434.88 341.651Z" fill="#0F111A"/>
<path d="M600.882 341.651C596.484 336.527 591.051 332.418 584.95 329.602C578.849 326.786 572.223 325.329 565.519 325.329C558.815 325.329 552.189 326.786 546.088 329.602C539.988 332.418 534.555 336.527 530.156 341.651C529.468 342.503 528.519 343.099 527.46 343.344C526.4 343.588 525.29 343.468 524.305 343.002C523.321 342.536 522.517 341.751 522.023 340.771C521.528 339.791 521.37 338.672 521.574 337.59C524.831 318.111 543.562 303.771 565.425 303.771C587.288 303.771 606.082 318.111 609.277 337.59C609.375 338.615 609.16 339.645 608.66 340.541C608.16 341.437 607.401 342.156 606.484 342.599C605.567 343.043 604.537 343.19 603.535 343.02C602.533 342.85 601.607 342.373 600.882 341.651Z" fill="#0F111A"/>
<path d="M458.642 596.462C475.237 582.234 513.841 563.578 535.494 602.774C522.65 611.699 489.299 622.932 458.642 596.462Z" fill="#F11012"/>
<path d="M448.127 584.068C453.453 588.724 460.311 592.778 468.237 595.956C476.162 599.133 484.972 601.36 494.07 602.487C503.169 603.614 512.344 603.614 520.977 602.487C529.61 601.36 537.499 599.133 544.112 595.955C545.152 595.419 546.515 595.124 547.984 595.115C549.453 595.106 550.944 595.384 552.222 595.906C553.5 596.427 554.491 597.162 555.04 597.995C555.588 598.827 555.662 599.709 555.249 600.501C548.383 614.843 521.163 622.655 491.491 618.98C461.82 615.306 438.115 601.187 436.225 585.761C436.22 584.962 436.641 584.211 437.432 583.61C438.223 583.009 439.344 582.587 440.644 582.402C441.944 582.217 443.359 582.278 444.698 582.576C446.037 582.874 447.234 583.395 448.127 584.068Z" fill="#E6E6E6"/>
</svg>
