<svg width="50" height="50" viewBox="0 0 800 800" fill="none" xmlns="http://www.w3.org/2000/svg">
<g clip-path="url(#clip0)">
<path d="M181.602 595.474L183.429 546.041L141.704 569.821L90.9681 556.787L104.084 604.484L74.5868 643.882L124.238 647.577L153.014 691.56L170.935 642.149L222.151 626.731L181.602 595.474Z" fill="#82AF3A"/>
<path d="M107.364 715.697L108.537 685.372L82.6418 699.992L51.1874 692.037L59.2837 721.285L40.9593 745.476L71.7479 747.703L89.5588 774.661L100.712 744.337L132.486 734.838L107.364 715.697Z" fill="#FFB52B"/>
<circle cx="231.531" cy="674.862" r="16.9243" transform="rotate(173.371 231.531 674.862)" fill="#FFCB6B"/>
<circle cx="181.007" cy="745.102" r="16.9243" transform="rotate(173.371 181.007 745.102)" fill="#765CD7"/>
<circle cx="134.106" cy="504.445" r="20.6852" transform="rotate(173.371 134.106 504.445)" fill="#F11012"/>
<circle cx="42.1833" cy="601.266" r="19.745" transform="rotate(173.371 42.1833 601.266)" fill="#82AAFF"/>
<path d="M62.936 722.376C63.3065 721.924 63.5618 721.39 63.6801 720.82C63.7984 720.249 63.7761 719.659 63.6151 719.099L56.2613 694.193L80.7012 703.525C81.2564 703.731 81.854 703.799 82.442 703.722C83.0218 703.669 83.5778 703.467 84.055 703.135L105.739 688.443L104.27 714.483C104.242 715.065 104.356 715.645 104.602 716.173C104.848 716.701 105.218 717.162 105.683 717.516L126.41 733.274L101.078 739.852C100.507 739.997 99.9788 740.277 99.5405 740.67C99.1021 741.063 98.7665 741.556 98.5626 742.106L89.71 766.571L75.4825 744.789C75.1617 744.304 74.7279 743.903 74.2178 743.621C73.7078 743.339 73.1366 743.183 72.5528 743.167L46.3874 742.575L62.936 722.376ZM35.6121 747.352C35.8952 747.965 36.3454 748.486 36.9118 748.857C37.4783 749.228 38.1381 749.433 38.8165 749.45L70.4677 750.386L87.5214 776.671C87.8898 777.233 88.4086 777.682 89.0195 777.966C89.6304 778.251 90.3093 778.36 90.9798 778.282C91.6503 778.204 92.286 777.942 92.8153 777.525C93.3447 777.108 93.7468 776.553 93.9766 775.921L104.799 746.396L135.437 738.293C136.093 738.119 136.688 737.765 137.153 737.272C137.618 736.779 137.935 736.167 138.067 735.504C138.2 734.841 138.142 734.155 137.902 733.524C137.662 732.892 137.248 732.341 136.708 731.932L111.644 712.827L113.418 681.555C113.469 680.868 113.321 680.181 112.991 679.576C112.662 678.97 112.165 678.471 111.559 678.138C110.889 677.764 110.116 677.613 109.352 677.704C108.778 677.778 108.226 677.978 107.739 678.291L81.5295 695.871L51.9864 684.771C51.3815 684.566 50.7325 684.523 50.1051 684.646C49.4777 684.77 48.8941 685.057 48.4134 685.477C47.9003 685.94 47.531 686.54 47.3492 687.205C47.1674 687.87 47.1808 688.572 47.3876 689.23L56.2873 719.261L36.165 743.618C35.7482 744.128 35.4794 744.742 35.3876 745.393C35.2957 746.044 35.3844 746.708 35.644 747.312L35.6121 747.352Z" fill="#0F111A"/>
<path d="M107.915 606.428C108.295 605.968 108.555 605.424 108.674 604.842C108.793 604.26 108.767 603.658 108.598 603.09L95.5863 559.085L138.903 575.546C139.462 575.766 140.067 575.847 140.665 575.78C141.251 575.714 141.811 575.498 142.289 575.152L180.676 549.196L178.104 595.011C178.069 595.604 178.182 596.195 178.431 596.735C178.68 597.274 179.059 597.744 179.533 598.104L216.248 626.024L171.35 637.87C170.777 638.025 170.25 638.316 169.815 638.717C169.379 639.119 169.048 639.619 168.85 640.175L153.146 683.488L127.971 644.999C127.651 644.503 127.214 644.092 126.698 643.802C126.182 643.511 125.603 643.349 125.009 643.33L78.5103 642.033L107.915 606.428ZM67.6838 646.989C67.9695 647.607 68.424 648.133 68.9957 648.506C69.5675 648.88 70.2336 649.087 70.9185 649.104L122.732 650.405L150.917 693.524C151.287 694.101 151.812 694.562 152.433 694.855C153.055 695.148 153.747 695.261 154.431 695.182C155.115 695.102 155.763 694.833 156.301 694.405C156.838 693.978 157.244 693.408 157.471 692.763L175.052 644.324L225.186 631.174C225.849 630.998 226.449 630.642 226.919 630.145C227.389 629.648 227.708 629.03 227.842 628.362C227.976 627.695 227.918 627.003 227.676 626.367C227.433 625.73 227.016 625.175 226.47 624.763L185.383 593.506L188.248 542.274C188.303 541.584 188.16 540.894 187.834 540.283C187.508 539.673 187.013 539.167 186.408 538.826C185.815 538.493 185.14 538.331 184.458 538.359C183.777 538.386 183.117 538.602 182.551 538.981L139.58 568.034L91.1267 549.607C90.5626 549.415 89.9629 549.347 89.3693 549.408C88.6034 549.515 87.8849 549.841 87.3009 550.345C86.7898 550.815 86.4242 551.421 86.2471 552.09C86.07 552.759 86.0886 553.464 86.3008 554.123L100.84 603.332L68.0159 643.179C67.6017 643.697 67.3373 644.317 67.2509 644.972C67.1645 645.627 67.2595 646.293 67.5256 646.898L67.6838 646.989Z" fill="#0F111A"/>
<path d="M51.4182 536.646C52.3658 536.646 53.2746 536.245 53.9447 535.531C54.6147 534.817 54.9911 533.849 54.9911 532.84V521.648H65.7098C66.6574 521.648 67.5662 521.247 68.2362 520.533C68.9063 519.819 69.2827 518.851 69.2827 517.841C69.2827 516.832 68.9063 515.864 68.2362 515.15C67.5662 514.436 66.6574 514.035 65.7098 514.035H54.9911V502.843C54.9911 501.834 54.6147 500.866 53.9447 500.152C53.2746 499.438 52.3658 499.037 51.4182 499.037C50.4706 499.037 49.5619 499.438 48.8918 500.152C48.2218 500.866 47.8453 501.834 47.8453 502.843V514.035H37.1266C36.179 514.035 35.2703 514.436 34.6002 515.15C33.9302 515.864 33.5537 516.832 33.5537 517.841C33.5537 518.851 33.9302 519.819 34.6002 520.533C35.2703 521.247 36.179 521.648 37.1266 521.648H47.8453V532.84C47.8453 533.339 47.9377 533.834 48.1173 534.296C48.2969 534.758 48.56 535.178 48.8918 535.531C49.2236 535.885 49.6175 536.165 50.0509 536.356C50.4844 536.548 50.949 536.646 51.4182 536.646Z" fill="#0F111A"/>
<path d="M233.1 689.963C230.122 690.272 227.118 689.694 224.468 688.301C221.818 686.907 219.639 684.761 218.205 682.133C216.771 679.504 216.147 676.51 216.411 673.527C216.675 670.544 217.815 667.706 219.687 665.37C221.56 663.034 224.082 661.304 226.936 660.397C229.79 659.491 232.848 659.449 235.725 660.276C238.603 661.104 241.172 662.764 243.108 665.047C245.045 667.331 246.263 670.137 246.608 673.111C247.047 677.136 245.871 681.171 243.338 684.33C240.806 687.489 237.124 689.515 233.1 689.963ZM228.742 652.47C224.321 653.02 220.162 654.867 216.789 657.778C213.416 660.688 210.98 664.532 209.788 668.825C208.596 673.118 208.701 677.667 210.09 681.9C211.48 686.133 214.091 689.86 217.595 692.612C221.1 695.363 225.34 697.015 229.781 697.361C234.223 697.706 238.668 696.729 242.555 694.552C246.442 692.376 249.598 689.097 251.625 685.13C253.652 681.162 254.46 676.684 253.946 672.258C253.223 666.294 250.163 660.86 245.437 657.15C240.712 653.44 234.708 651.757 228.742 652.47Z" fill="#0F111A"/>
<path d="M165.927 747.038C165.542 744.041 166.057 740.997 167.406 738.293C168.755 735.589 170.878 733.347 173.504 731.853C176.13 730.358 179.141 729.678 182.155 729.898C185.169 730.119 188.049 731.231 190.429 733.092C192.81 734.954 194.583 737.481 195.524 740.352C196.464 743.224 196.53 746.31 195.713 749.219C194.895 752.128 193.232 754.729 190.933 756.69C188.634 758.651 185.804 759.885 182.802 760.234C178.816 760.717 174.8 759.599 171.636 757.125C168.473 754.651 166.419 751.024 165.927 747.038ZM203.443 742.678C202.962 738.231 201.172 734.028 198.298 730.601C195.424 727.174 191.597 724.678 187.302 723.431C183.007 722.183 178.438 722.24 174.176 723.594C169.913 724.948 166.149 727.538 163.361 731.036C160.574 734.533 158.888 738.78 158.519 743.237C158.149 747.694 159.113 752.16 161.287 756.069C163.46 759.978 166.747 763.152 170.728 765.189C174.71 767.227 179.207 768.035 183.648 767.512C189.562 766.834 194.967 763.84 198.677 759.185C202.387 754.53 204.101 748.594 203.443 742.678Z" fill="#0F111A"/>
<path d="M56.2325 598.503C56.6173 601.5 56.1039 604.543 54.7574 607.247C53.4109 609.951 51.2921 612.192 48.6704 613.686C46.0486 615.18 43.0422 615.86 40.0332 615.639C37.0243 615.417 34.1486 614.305 31.7716 612.443C29.3946 610.582 27.6237 608.054 26.6838 605.183C25.744 602.311 25.6777 599.225 26.4933 596.316C27.3089 593.407 28.9696 590.807 31.2645 588.846C33.5593 586.885 36.3846 585.652 39.3813 585.304C43.3618 584.822 47.3713 585.94 50.5303 588.415C53.6894 590.889 55.74 594.517 56.2325 598.503ZM18.777 602.856C19.2574 607.302 21.046 611.506 23.9159 614.933C26.7858 618.361 30.6076 620.857 34.8959 622.105C39.1842 623.353 43.7457 623.297 48.0012 621.944C52.2567 620.591 56.0143 618.002 58.7968 614.505C61.5794 611.008 63.2615 606.762 63.6295 602.305C63.9976 597.848 63.0349 593.381 60.8638 589.473C58.6927 585.564 55.4111 582.389 51.4356 580.351C47.4601 578.313 42.97 577.504 38.5355 578.026C35.6045 578.352 32.7666 579.254 30.1838 580.678C27.6009 582.103 25.3238 584.023 23.4823 586.33C21.6408 588.636 20.271 591.283 19.4512 594.12C18.6314 596.957 18.3776 599.929 18.7044 602.864L18.777 602.856Z" fill="#0F111A"/>
<path d="M117.135 507.581C116.676 504.002 117.291 500.368 118.902 497.141C120.513 493.913 123.048 491.237 126.183 489.452C129.319 487.668 132.914 486.857 136.512 487.12C140.11 487.384 143.549 488.712 146.391 490.934C149.232 493.157 151.349 496.174 152.472 499.602C153.595 503.031 153.674 506.716 152.698 510.189C151.722 513.662 149.735 516.766 146.99 519.108C144.246 521.449 140.867 522.922 137.283 523.339C134.923 523.642 132.527 523.473 130.232 522.843C127.938 522.213 125.792 521.134 123.917 519.668C122.043 518.203 120.479 516.379 119.314 514.304C118.15 512.23 117.409 509.944 117.135 507.581ZM160.389 502.554C159.85 497.552 157.839 492.824 154.608 488.968C151.378 485.112 147.076 482.303 142.246 480.897C137.417 479.49 132.278 479.55 127.483 481.069C122.687 482.588 118.451 485.497 115.312 489.427C112.173 493.357 110.272 498.131 109.851 503.144C109.43 508.156 110.507 513.181 112.946 517.58C115.385 521.979 119.076 525.554 123.551 527.852C128.025 530.15 133.081 531.067 138.078 530.486C141.382 530.131 144.584 529.124 147.498 527.525C150.411 525.926 152.979 523.766 155.054 521.169C157.128 518.572 158.667 515.59 159.583 512.395C160.499 509.2 160.772 505.855 160.389 502.554Z" fill="#0F111A"/>
<path d="M686.648 157.908L723.497 174.119L718.023 135.421L743.103 100.949L703.085 96.5632L682.129 62.4301L664.44 98.8828L622.534 107.458L654.538 135.838L650.838 179.208L686.648 157.908Z" fill="#765CD7"/>
<path d="M604.36 77.6836L626.95 87.6672L623.657 63.6917L639.11 42.2828L614.555 39.634L601.752 18.5149L590.831 41.1385L565.094 46.526L584.689 64.06L582.344 90.9466L604.36 77.6836Z" fill="#FFCB6B"/>
<path d="M748.838 249.558L771.428 259.541L768.135 235.566L783.588 214.157L759.033 211.508L746.23 190.389L735.309 213.013L709.572 218.4L729.167 235.934L726.822 262.821L748.838 249.558Z" fill="#82AF3A"/>
<circle cx="769.759" cy="149.283" r="16.8338" transform="rotate(-75 769.759 149.283)" fill="#FFCB6B"/>
<circle cx="724.088" cy="50.7" r="16.0686" transform="rotate(-75 724.088 50.7)" fill="#F11012"/>
<path d="M755.847 212.514C756.077 212.94 756.407 213.302 756.808 213.566C757.209 213.831 757.668 213.991 758.146 214.032L779.187 215.843L764.762 231.891C764.437 232.25 764.201 232.684 764.075 233.154C763.949 233.624 763.937 234.118 764.039 234.591L768.564 255.717L749.41 246.634C748.976 246.43 748.498 246.339 748.019 246.368C747.54 246.397 747.073 246.545 746.66 246.799L728.454 258.007L731.172 236.519C731.234 236.032 731.178 235.538 731.009 235.08C730.84 234.623 730.563 234.216 730.203 233.895L714.395 219.702L735.181 215.315C735.649 215.219 736.089 215.009 736.463 214.703C736.836 214.396 737.132 214.003 737.325 213.556L745.716 193.588L755.847 212.514ZM745.267 183.916C744.718 183.949 744.187 184.138 743.734 184.462C743.282 184.787 742.926 185.233 742.708 185.75L732.441 209.883L707.36 215.204C706.824 215.318 706.327 215.582 705.927 215.967C705.526 216.352 705.237 216.841 705.093 217.381C704.948 217.921 704.953 218.489 705.108 219.023C705.263 219.556 705.56 220.033 705.968 220.4L725.036 237.52L721.861 263.553C721.788 264.112 721.87 264.679 722.099 265.189C722.328 265.699 722.694 266.131 723.154 266.436C723.615 266.742 724.152 266.907 724.704 266.915C725.256 266.922 725.801 266.771 726.276 266.478L748.329 252.94L771.432 263.736C771.936 263.982 772.5 264.075 773.058 264.004C773.616 263.933 774.144 263.7 774.58 263.335C775.008 262.982 775.332 262.515 775.517 261.987C775.701 261.46 775.738 260.892 775.624 260.347L770.289 234.866L787.65 215.466C787.963 215.093 788.195 214.656 788.327 214.185C788.494 213.57 788.466 212.92 788.247 212.328C788.048 211.797 787.703 211.337 787.255 211.002C786.806 210.667 786.271 210.47 785.714 210.435L760.308 208.233L747.979 185.482C747.724 185.003 747.344 184.606 746.881 184.334C746.418 184.062 745.889 183.925 745.352 183.938L745.267 183.916Z" fill="#0F111A"/>
<path d="M612.635 42.07C612.865 42.4857 613.193 42.839 613.589 43.0996C613.985 43.3602 614.438 43.5204 614.91 43.5666L635.957 45.4745L621.567 61.1642C621.244 61.5224 621.014 61.9542 620.895 62.4219C620.761 62.8763 620.747 63.3577 620.856 63.8184L625.466 84.6298L606.206 75.7071C605.775 75.5112 605.302 75.4233 604.829 75.4509C604.356 75.4786 603.896 75.6209 603.488 75.8658L585.349 86.8195L587.972 65.6825C588.035 65.2066 587.98 64.7231 587.815 64.2737C587.649 63.8242 587.377 63.4224 587.022 63.1031L571.17 49.0675L591.916 44.8382C592.379 44.7409 592.812 44.5329 593.178 44.2317C593.545 43.9306 593.834 43.5452 594.021 43.1083L602.318 23.4917L612.635 42.07ZM601.937 13.9072C601.388 13.9376 600.859 14.1218 600.408 14.439C599.958 14.7562 599.604 15.1938 599.388 15.702L589.186 39.3656L564.185 44.3818C563.649 44.492 563.155 44.75 562.756 45.1268C562.358 45.5036 562.071 45.9843 561.929 46.5149C561.787 47.0456 561.795 47.6051 561.951 48.1307C562.108 48.6563 562.407 49.1271 562.816 49.4903L581.906 66.5346L578.845 92.1425C578.78 92.6914 578.869 93.2473 579.102 93.747C579.336 94.2467 579.704 94.6701 580.166 94.969C580.628 95.268 581.164 95.4305 581.714 95.4381C582.263 95.4457 582.805 95.298 583.276 95.012L605.248 81.7819L628.373 92.5052C628.877 92.7496 629.441 92.8435 629.998 92.7759C630.555 92.7084 631.081 92.4821 631.515 92.1238C631.999 91.7286 632.346 91.1895 632.506 90.5844C632.622 90.1275 632.636 89.6503 632.545 89.188L627.108 64.0867L644.368 45.0669C644.705 44.6709 644.932 44.1929 645.026 43.6811C645.121 43.1692 645.079 42.6418 644.905 42.1522C644.709 41.6249 644.366 41.1657 643.917 40.8287C643.469 40.4918 642.933 40.2911 642.374 40.2505L616.986 37.9747L604.596 15.4456C604.334 14.9771 603.951 14.5896 603.486 14.3248C603.021 14.0601 602.492 13.9282 601.957 13.9434L601.937 13.9072Z" fill="#0F111A"/>
<path d="M700.465 98.8784C700.699 99.3032 701.033 99.6636 701.438 99.9281C701.842 100.193 702.305 100.353 702.786 100.396L739.979 103.753L714.533 131.584C714.198 131.941 713.956 132.374 713.827 132.847C713.701 133.31 713.697 133.799 713.815 134.264L721.936 171.09L688.048 155.401C687.61 155.197 687.128 155.105 686.646 155.131C686.163 155.158 685.694 155.303 685.279 155.554L653.144 174.954L657.65 137.435C657.705 136.955 657.644 136.469 657.471 136.019C657.297 135.57 657.018 135.169 656.657 134.853L628.601 109.979L665.27 102.48C665.741 102.387 666.183 102.18 666.558 101.877C666.933 101.574 667.229 101.184 667.422 100.74L682.351 65.9527L700.465 98.8784ZM681.849 56.2756C681.296 56.3065 680.762 56.4927 680.308 56.8131C679.854 57.1336 679.497 57.5754 679.279 58.0885L662.752 96.8951L621.677 105.283C621.13 105.39 620.624 105.649 620.216 106.031C619.808 106.413 619.514 106.903 619.369 107.444C619.224 107.985 619.233 108.556 619.396 109.091C619.558 109.626 619.867 110.104 620.287 110.47L651.657 138.3L646.567 180.171C646.501 180.725 646.591 181.286 646.826 181.791C647.061 182.295 647.432 182.722 647.897 183.024C648.362 183.325 648.903 183.489 649.457 183.497C650.011 183.504 650.557 183.355 651.032 183.066L687.003 161.359L724.901 178.894C725.406 179.143 725.971 179.242 726.531 179.179C727.091 179.115 727.622 178.893 728.061 178.537C728.491 178.188 728.816 177.726 728.999 177.202C729.183 176.678 729.218 176.114 729.101 175.573L720.013 134.35L748.487 103.222C748.801 102.853 749.033 102.42 749.164 101.952C749.313 101.341 749.283 100.7 749.077 100.107C748.874 99.5788 748.525 99.1207 748.072 98.7859C747.619 98.4512 747.08 98.2538 746.518 98.2169L704.93 94.4541L684.632 57.6698C684.364 57.2012 683.975 56.8152 683.505 56.5533C683.035 56.2914 682.503 56.1635 681.965 56.1833L681.849 56.2756Z" fill="#0F111A"/>
<path d="M768.538 96.6067C769.31 96.6067 770.049 96.2803 770.594 95.6994C771.14 95.1184 771.446 94.3305 771.446 93.5089L771.446 84.4011L780.169 84.4011C780.94 84.4011 781.68 84.0748 782.225 83.4938C782.77 82.9128 783.077 82.1249 783.077 81.3033C783.077 80.4817 782.77 79.6937 782.225 79.1128C781.68 78.5318 780.94 78.2054 780.169 78.2054L771.446 78.2054L771.446 69.0977C771.446 68.2761 771.14 67.4882 770.594 66.9072C770.049 66.3263 769.31 65.9999 768.538 65.9999C767.767 65.9999 767.028 66.3263 766.482 66.9072C765.937 67.4882 765.631 68.2761 765.631 69.0977L765.631 78.2054L756.908 78.2054C756.137 78.2054 755.397 78.5318 754.852 79.1128C754.306 79.6937 754 80.4817 754 81.3033C754 82.1249 754.306 82.9128 754.852 83.4938C755.397 84.0748 756.137 84.4011 756.908 84.4011L765.631 84.4011L765.631 93.5089C765.631 93.9157 765.706 94.3185 765.852 94.6944C765.998 95.0702 766.212 95.4117 766.482 95.6994C766.752 95.987 767.073 96.2152 767.426 96.3709C767.778 96.5266 768.157 96.6067 768.538 96.6067Z" fill="#0F111A"/>
<path d="M721.964 62.1575C719.581 61.5496 717.433 60.2482 715.791 58.4185C714.15 56.5889 713.09 54.3137 712.746 51.8821C712.402 49.4505 712.79 46.9723 713.86 44.7624C714.93 42.5525 716.634 40.7106 718.755 39.4709C720.877 38.2312 723.32 37.6496 725.774 37.8C728.228 37.9504 730.583 38.8261 732.539 40.3157C734.495 41.8053 735.964 43.8416 736.759 46.1658C737.554 48.49 737.639 50.9972 737.004 53.3688C736.175 56.5247 734.125 59.2223 731.306 60.8699C728.486 62.5175 725.127 62.9806 721.964 62.1575ZM729.906 32.5165C726.398 31.546 722.682 31.6381 719.228 32.7811C715.774 33.9242 712.739 36.0665 710.509 38.9362C708.278 41.8059 706.952 45.2735 706.699 48.8987C706.447 52.524 707.278 56.1433 709.089 59.2973C710.899 62.4512 713.607 64.9975 716.869 66.6129C720.13 68.2283 723.798 68.8398 727.406 68.3699C731.014 67.9 734.4 66.3698 737.135 63.9737C739.869 61.5775 741.828 58.4235 742.763 54.912C743.395 52.5969 743.565 50.1797 743.262 47.7984C742.959 45.4171 742.189 43.1183 740.997 41.0333C739.804 38.9484 738.213 37.118 736.312 35.6468C734.412 34.1757 732.24 33.0924 729.922 32.459L729.906 32.5165Z" fill="#0F111A"/>
<path d="M772.478 135.504C775.322 136.231 777.887 137.786 779.846 139.973C781.804 142.161 783.069 144.881 783.478 147.788C783.887 150.695 783.422 153.659 782.143 156.301C780.864 158.944 778.829 161.147 776.295 162.63C773.761 164.113 770.844 164.81 767.913 164.631C764.983 164.452 762.172 163.406 759.837 161.626C757.502 159.846 755.75 157.411 754.802 154.633C753.854 151.854 753.753 148.856 754.513 146.02C754.991 144.144 755.838 142.381 757.003 140.835C758.168 139.288 759.628 137.988 761.299 137.01C762.97 136.032 764.819 135.395 766.737 135.137C768.656 134.878 770.608 135.003 772.478 135.504ZM763.306 169.734C767.251 170.827 771.431 170.724 775.317 169.437C779.203 168.15 782.619 165.738 785.132 162.506C787.644 159.274 789.14 155.369 789.43 151.286C789.719 147.202 788.789 143.125 786.758 139.571C784.726 136.018 781.685 133.148 778.019 131.325C774.354 129.503 770.23 128.811 766.17 129.336C762.11 129.862 758.298 131.582 755.218 134.277C752.137 136.973 749.927 140.523 748.867 144.477C748.145 147.084 747.946 149.808 748.282 152.491C748.617 155.175 749.481 157.766 750.824 160.114C752.166 162.463 753.96 164.522 756.103 166.173C758.245 167.824 760.693 169.034 763.306 169.734Z" fill="#0F111A"/>
<path fill-rule="evenodd" clip-rule="evenodd" d="M163.669 172.185C150.677 146.804 146.575 124.838 152.445 97.9171C164.378 42.9681 206.408 28.7737 256.197 48.3451C278.402 57.0542 296.615 71.8621 312.553 89.0757C378.306 68.814 449.042 71.9035 512.778 97.8209L517.662 99.0238C537.666 75.0377 570.001 56.7174 600.17 52.832C641.995 47.4309 682.617 57.0061 686.406 106.313C687.766 124.032 681.847 145.757 674.281 161.732L661.759 188.196L658.547 187.137C666.895 201.572 674.065 216.007 678.347 228.878C684.494 247.307 692.193 276.838 686.467 296.374L685.36 300.163L683.616 303.182C679.827 310.111 675.52 324.053 678.191 331.703C689.017 362.654 681.583 404.167 661.458 430.053C658.79 433.477 655.866 436.694 652.713 439.677C650.487 445.98 647.805 453.234 644.93 461.185C645.134 462.388 645.291 463.591 645.435 464.878C667.172 463.434 687.802 465.804 708.384 479.216C708.384 479.216 666.51 478.916 645.977 481.622C645.848 484.229 645.628 486.839 645.315 489.453C670.696 495.059 693.516 504.466 712.317 526.828C712.317 526.828 664.453 511.984 641.345 508.423C636.967 522.858 629.653 536.09 619.693 546.026C617.385 557.317 615.921 568.765 615.314 580.273C623.336 582.646 631.617 584.032 639.974 584.399C691.699 586.011 733.055 563.95 733.055 563.95C715.553 787.054 376.548 795.51 226.184 709.153C29.7965 596.404 22.5549 333.953 163.633 172.137" fill="#0F111A"/>
<path fill-rule="evenodd" clip-rule="evenodd" d="M515.196 516.326C515.196 516.326 498.8 514.438 471.675 523.893C444.549 533.348 430.655 539.663 415.523 536.511C400.39 533.36 394.7 519.478 394.7 519.478C394.7 519.478 406.729 510.637 429.404 506.859C452.079 503.082 476.715 501.819 476.715 501.819C476.715 501.819 437.019 495.516 419.312 496.779C401.605 498.042 392.174 502.457 392.174 502.457C392.174 502.457 388.397 492.364 394.075 487.312C399.752 482.26 421.826 478.483 437.596 478.483C447.302 478.499 456.996 479.13 466.622 480.371C466.622 480.371 440.748 468.342 420.563 467.139C400.378 465.936 390.911 468.414 390.911 468.414C390.911 468.414 394.7 457.696 402.94 453.979C411.18 450.262 417.459 449.553 428.201 452.704C438.943 455.856 454.064 462.797 454.064 462.797C454.064 462.797 433.879 445.126 423.149 442.612C417.159 441.133 411.031 440.286 404.865 440.086L417.471 427.467C417.471 427.467 398.562 426.842 380.253 447.027C361.945 467.211 366.311 499.281 366.311 499.281C366.311 499.281 356.207 487.938 317.1 466.49C277.994 445.042 269.152 424.231 265.989 398.982C262.825 373.733 267.889 357.975 267.889 357.975C267.889 357.975 229.829 380.83 219.111 432.555C191.227 566.981 230.033 612.992 281.566 679.574C300.813 704.51 220.783 656.357 195.137 630.254C89.6174 522.714 62.5158 312.685 232.62 178.681C232.62 178.681 257.039 161.84 238.959 134.714C220.879 107.589 210.546 101.045 201.512 110.103C192.479 119.161 196.352 164.33 196.352 164.33C196.352 164.33 178.308 134.642 184.732 104.942C191.155 75.2423 207.972 64.9093 244.132 79.1036C280.291 93.298 308.692 135.917 321.599 153.997C334.506 172.077 335.806 175.962 335.806 175.962L331.932 133.343C331.932 133.343 349.976 121.723 431.353 121.723C512.73 121.723 555.313 148.836 555.313 148.836L539.82 124.297C539.82 124.297 564.359 90.7117 604.392 85.5512C644.425 80.3907 652.172 92.0229 653.459 108.804C654.746 125.584 644.413 147.537 644.413 147.537C644.413 147.537 650.86 115.263 631.494 116.55C612.127 117.837 595.346 152.71 595.346 152.71C595.346 152.71 635.379 204.363 646.999 239.211C658.619 274.06 654.746 286.991 654.746 286.991C654.746 286.991 637.965 316.691 646.999 342.505C656.033 368.32 644.401 398.032 635.367 409.652C626.333 421.272 618.586 422.559 618.586 422.559L581.14 413.525C581.14 413.525 596.633 425.158 609.552 456.133C618.526 477.665 611.285 503.563 599.544 518.227C597.632 542.454 589.199 568.22 573.898 583.521C577.579 568.809 577.375 548.468 574.403 529.883C556.083 528.512 534.707 516.82 534.707 516.82C534.707 516.82 535.994 496.165 556.66 481.935C577.326 467.705 573.357 442.937 583.786 435.454C594.215 427.972 572.154 441.914 535.994 445.788C499.835 449.661 470.147 435.454 470.147 435.454C470.147 435.454 470.147 452.235 488.191 465.154C506.234 478.074 534.719 516.82 515.196 516.326Z" fill="#F2F2F2"/>
<path fill-rule="evenodd" clip-rule="evenodd" d="M116.671 479.866C94.8979 378.497 123.563 264.545 232.631 178.597C232.631 178.597 251.661 165.449 243.662 143.712C247.776 148.524 249.424 143.929 255.391 174.603C261.357 205.277 166.628 259.865 137.758 361.391C108.888 462.917 118.03 457.817 116.719 479.866" fill="white"/>
<path fill-rule="evenodd" clip-rule="evenodd" d="M555.241 148.704V148.62L555.373 148.704H555.241ZM333.773 153.516L331.932 133.343C331.932 133.343 349.976 121.723 431.353 121.723C509.338 121.723 551.716 146.623 555.096 148.692C480.311 141.378 415.474 132.79 333.833 153.504L333.773 153.516Z" fill="white"/>
<path fill-rule="evenodd" clip-rule="evenodd" d="M555.325 148.824L539.819 124.297C539.819 124.297 564.359 90.7115 604.392 85.551C641.802 80.7394 651.017 90.5672 653.11 105.58C615.627 101.129 581.921 125.115 555.325 148.824Z" fill="white"/>
<path fill-rule="evenodd" clip-rule="evenodd" d="M197.976 78.9471C207.683 70.8876 222.407 70.5267 244.132 79.0914C280.291 93.2978 308.692 135.905 321.599 153.985C333.304 170.38 335.457 175.096 335.77 175.83L299.598 176.022C299.598 176.022 288.122 144.482 241.209 102.464C224.079 87.1149 209.548 80.8116 198 78.9471" fill="white"/>
<path fill-rule="evenodd" clip-rule="evenodd" d="M468.042 368.091C468.042 368.091 456.109 308.415 444.717 298.659C433.326 288.904 388.842 268.887 368.236 272.628C347.63 276.369 340.028 298.118 340.028 298.118C340.028 298.118 356.303 306.25 368.236 314.959C380.169 323.668 383.417 329.057 401.316 332.317C412.121 334.262 423.215 333.893 433.867 331.234C433.867 331.234 449.048 363.231 468.042 368.115" fill="#0F111A"/>
<path fill-rule="evenodd" clip-rule="evenodd" d="M568.401 364.831C568.401 364.831 552.679 305.167 553.761 299.742C554.844 294.317 577.627 281.842 591.184 279.136C604.741 276.429 613.426 274.793 622.64 283.478C625.336 286.034 627.42 289.166 628.734 292.641C630.048 296.116 630.56 299.843 630.231 303.543C624.539 305.157 619.322 308.125 615.026 312.192C608.518 318.688 602.54 331.162 592.784 333.844C586.967 335.477 580.9 336.028 574.885 335.468L568.401 364.831Z" fill="#0F111A"/>
<path fill-rule="evenodd" clip-rule="evenodd" d="M416.436 324.774C433.422 325.087 440.807 313.142 440.807 313.142L432.471 310.315C432.471 310.315 421.477 316.126 415.967 313.299C410.458 310.472 407.8 303.675 407.8 303.675L388.781 300.849C393.389 312.745 402.447 324.474 416.448 324.738" fill="#F11012"/>
<path fill-rule="evenodd" clip-rule="evenodd" d="M589.319 316.679C575.991 318.676 568.954 310.027 568.954 310.027L575.221 306.947C575.221 306.947 584.472 310.4 588.513 307.609C592.555 304.818 593.963 299.188 593.963 299.188L608.638 295.014C606.232 304.854 600.302 315.007 589.319 316.667" fill="#F11012"/>
<path fill-rule="evenodd" clip-rule="evenodd" d="M340.027 298.118C340.027 298.118 370.473 343.408 401.208 355.858C431.942 368.308 468.041 368.079 468.041 368.079C449.047 363.196 433.867 331.198 433.867 331.198C423.215 333.857 412.121 334.226 401.316 332.281C383.416 329.021 380.169 323.608 368.236 314.923C356.303 306.238 340.027 298.082 340.027 298.082V298.118ZM560.365 504.983L588.032 514.305C596.569 504.2 600.97 491.24 600.35 478.026C599.351 455.724 592.687 446.75 592.687 446.75C592.687 446.75 592.687 465.72 581.043 475.379C569.399 485.039 560.365 504.983 560.365 504.983ZM413.513 431.28L417.411 427.383C417.411 427.383 398.489 426.757 380.193 446.942C361.896 467.127 366.311 499.293 366.311 499.293C366.311 499.293 356.231 487.938 317.112 466.49C277.993 445.042 269.164 424.231 266 398.994C262.836 373.757 267.901 357.975 267.901 357.975C132.465 463.976 280.495 700.444 462.977 724.021C290.528 719.643 156.054 655.215 117.224 480.888C151.399 411.925 248.185 297.757 319.277 296.013C319.277 296.013 275.708 355.497 305.817 388.866C339.642 426.348 370.666 387.374 418.313 426.89L413.513 431.28ZM470.375 524.362C449.3 531.784 407.956 551.884 394.7 519.49C394.7 519.49 406.729 510.661 429.404 506.871C452.079 503.082 476.714 501.831 476.714 501.831C476.714 501.831 437.018 495.528 419.311 496.791C401.604 498.054 392.186 502.457 392.186 502.457C392.186 502.457 388.397 492.376 394.074 487.324C399.752 482.272 421.825 478.495 437.596 478.495C447.301 478.511 456.996 479.142 466.622 480.383C466.622 480.383 440.747 468.354 420.562 467.151C400.378 465.948 390.911 468.354 390.911 468.354C390.911 468.354 394.7 457.636 402.94 453.847C411.18 450.058 417.459 449.432 428.201 452.644C431.99 453.847 435.96 455.459 439.809 456.722C443.718 458.671 449.661 460.716 454.052 462.737L452.933 461.786C465.287 467.127 476.582 473.334 476.582 473.334C476.582 473.334 464.986 469.04 457.047 450.792C449.264 432.916 455.579 411.252 455.844 410.374C457.047 405.562 466.466 393.256 469.894 389.455C468.15 420.105 465.575 451.056 488.238 465.239C507.677 477.388 534.719 516.88 515.256 516.386C515.256 516.386 498.86 514.498 471.734 523.953L470.375 524.362ZM594.684 402.627L616.336 409.291C616.336 409.291 629.677 398.056 635.92 384.728C642.163 371.399 639.24 360.994 639.24 360.994C639.24 360.994 609.299 399.704 594.684 402.615V402.627ZM611.08 316.823C609.083 323.403 603.321 337.573 591.99 346.415L568.4 364.831L574.908 335.541C580.924 336.1 586.991 335.55 592.807 333.917L593.168 333.808H593.265L593.529 333.724L593.71 333.652L593.89 333.592L594.155 333.496H594.239L594.588 333.363L594.925 333.207H595.009L595.261 333.087L595.442 333.002L595.598 332.93L595.863 332.798H595.935L596.272 332.617L596.585 332.437H596.693L596.921 332.305L597.102 332.184L597.246 332.1L597.499 331.932L597.824 331.715L598.112 331.511L598.209 331.439L598.425 331.282L598.606 331.15L598.738 331.054L598.99 330.849L599.303 330.609L599.58 330.38L599.688 330.296L599.881 330.127L600.061 329.971L600.181 329.875L600.434 329.634L600.879 329.033L601.132 328.792L601.24 328.696L601.42 328.516L601.601 328.335L601.709 328.239L601.95 327.986L602.238 327.698L602.479 327.433L602.587 327.325L602.756 327.144L602.936 326.94L603.032 326.843L603.285 326.567L603.562 326.254L603.79 326.001L603.91 325.869L604.067 325.689L604.247 325.484L604.331 325.376L604.584 325.075L604.849 324.774V324.702L605.065 324.45L605.185 324.305L605.318 324.125L605.498 323.896L605.582 323.8L605.823 323.499L606.076 323.175V323.102L606.28 322.862L606.4 322.705L606.533 322.525L606.713 322.296L606.785 322.2L607.038 321.875L607.279 321.551V321.466L607.471 321.214L607.603 321.057L607.724 320.889L607.916 320.648V320.564L608.157 320.239L608.409 319.915L608.469 319.831L608.65 319.59L608.782 319.422L608.89 319.265L609.083 319.013V318.94L609.324 318.628L609.564 318.315L609.636 318.231L609.817 318.002L609.937 317.834L610.057 317.689L610.238 317.437L611.08 316.823Z" fill="#E6E6E6"/>
<path d="M501.712 247.398C479.978 252.858 471.633 233.729 470.178 223.482C480.95 210.645 504.817 212.956 515.404 215.716C519.896 224.002 523.445 241.938 501.712 247.398Z" fill="#82AF3A"/>
<circle cx="496.039" cy="223.753" r="12.6306" transform="rotate(0.829926 496.039 223.753)" fill="white"/>
<path d="M503.951 226.172C504.633 226.129 505.306 226.02 505.961 225.848C505.775 227.151 505.349 228.415 504.698 229.575C503.661 231.422 502.1 232.92 500.212 233.88C498.323 234.84 496.193 235.218 494.089 234.967C491.986 234.716 490.004 233.847 488.395 232.47C486.785 231.092 485.62 229.269 485.047 227.229C484.474 225.19 484.519 223.027 485.175 221.012C485.832 218.998 487.071 217.224 488.736 215.915C489.784 215.09 490.97 214.473 492.233 214.088C492.163 214.759 492.155 215.438 492.212 216.116C492.323 217.546 492.714 218.94 493.364 220.219L495.593 219.088L493.364 220.219C494.014 221.502 494.912 222.643 496.004 223.578L497.63 221.678L496.004 223.578C497.097 224.513 498.363 225.223 499.73 225.668C501.091 226.11 502.525 226.282 503.951 226.172Z" fill="#0F111A" stroke="#0F111A" stroke-width="5"/>
<path d="M458.294 239.666C462.822 245.808 468.84 250.696 475.779 253.869C482.719 257.043 490.352 258.398 497.96 257.807C505.568 257.216 512.9 254.698 519.266 250.49C525.632 246.282 530.822 240.523 534.347 233.755C529.8 227.642 523.777 222.782 516.842 219.627C509.907 216.473 502.285 215.128 494.689 215.719C487.093 216.309 479.771 218.815 473.406 223.003C467.041 227.191 461.842 232.923 458.294 239.666ZM498.391 263.349C489.525 264.008 480.64 262.338 472.619 258.505C464.597 254.672 457.716 248.81 452.658 241.498L451.758 240.174L452.442 238.726C456.286 230.703 462.173 223.832 469.511 218.803C476.849 213.775 485.381 210.764 494.251 210.075C503.12 209.386 512.015 211.042 520.042 214.876C528.069 218.711 534.946 224.59 539.983 231.923L540.882 233.238L540.198 234.685C536.35 242.706 530.463 249.576 523.126 254.606C515.789 259.637 507.259 262.651 498.391 263.349Z" fill="#0F111A"/>
<path fill-rule="evenodd" clip-rule="evenodd" d="M494.39 211.874C485.836 212.539 477.608 215.442 470.53 220.292C463.454 225.141 457.778 231.765 454.071 239.501C454.07 239.502 454.07 239.504 454.069 239.505L453.829 240.013L454.145 240.478C459.024 247.528 465.66 253.181 473.396 256.877C481.133 260.574 489.702 262.185 498.253 261.55C506.805 260.877 515.03 257.969 522.105 253.118C529.18 248.267 534.858 241.643 538.569 233.91C538.569 233.908 538.57 233.907 538.571 233.905L538.808 233.402L538.496 232.944C538.495 232.944 538.496 232.944 538.496 232.944C533.638 225.873 527.005 220.203 519.264 216.505C511.522 212.806 502.944 211.209 494.39 211.874ZM498.39 263.349L498.532 265.148C507.715 264.426 516.548 261.304 524.146 256.094C531.744 250.885 537.84 243.772 541.824 235.466L541.829 235.457L542.956 233.073L541.472 230.904L541.47 230.901C536.254 223.307 529.132 217.22 520.819 213.248C512.506 209.277 503.295 207.562 494.11 208.276C484.925 208.99 476.09 212.107 468.49 217.315C460.891 222.523 454.795 229.638 450.815 237.946L449.685 240.335L451.165 242.512L451.173 242.525C456.41 250.095 463.535 256.165 471.84 260.133C480.146 264.102 489.344 265.83 498.524 265.148L498.39 263.349ZM472.414 221.496C479.033 217.14 486.649 214.534 494.549 213.92C502.449 213.306 510.376 214.704 517.589 217.985C524.802 221.265 531.065 226.321 535.795 232.678L536.47 233.586L535.947 234.589C532.28 241.628 526.882 247.618 520.261 251.995C513.639 256.372 506.013 258.991 498.099 259.606C490.186 260.221 482.246 258.811 475.028 255.51C467.81 252.209 461.551 247.125 456.841 240.736L458.293 239.666L456.696 238.825C460.387 231.813 465.794 225.851 472.414 221.496ZM460.434 239.504C464.695 244.973 470.214 249.34 476.529 252.228C483.19 255.275 490.517 256.576 497.82 256.008C505.122 255.441 512.16 253.024 518.271 248.985C524.064 245.156 528.842 239.988 532.206 233.926C527.93 228.483 522.406 224.14 516.095 221.27C509.437 218.242 502.12 216.951 494.829 217.518C487.537 218.084 480.507 220.49 474.397 224.51C468.605 228.321 463.819 233.465 460.434 239.504Z" fill="#0F111A"/>
<path d="M479.716 242.738C484.566 246.896 490.867 248.961 497.237 248.478L497.275 248.475C500.891 248.166 504.391 247.048 507.517 245.204C510.645 243.358 513.319 240.833 515.339 237.814C517.359 234.795 518.674 231.361 519.187 227.765C519.581 225 519.494 222.195 518.935 219.472L518.378 219.65C518.586 220.626 518.728 221.616 518.803 222.612C518.803 222.614 518.803 222.615 518.803 222.616L516.311 222.804L479.716 242.738ZM479.716 242.738C474.869 238.582 471.867 232.673 471.369 226.308M479.716 242.738L471.369 226.308M471.369 226.308C471.315 225.505 471.293 224.7 471.303 223.895L471.937 223.97C471.929 224.734 471.96 225.5 472.029 226.262L471.369 226.308Z" fill="#0F111A" stroke="#0F111A" stroke-width="5"/>
<path fill-rule="evenodd" clip-rule="evenodd" d="M474.126 268.717L472.323 267.879L458.503 290.678L465.589 294.028L474.126 268.717ZM459.933 290.248L473.178 268.397L473.178 268.397L459.933 290.248L465.001 292.644L465 292.644L459.933 290.248ZM497.991 271.042L497.154 297.724L504.923 297.12L499.974 270.888L497.991 271.042ZM498.991 271.075L498.991 271.073L503.734 296.209L498.188 296.64L498.188 296.64L503.734 296.209L498.991 271.075ZM524.844 263.798L523.192 264.904L535.537 288.593L542.021 284.188L524.844 263.798ZM535.905 287.134L524.079 264.442L524.079 264.442L535.905 287.134Z" fill="#0F111A"/>
<path d="M458.643 596.462C475.238 582.234 513.841 563.578 535.494 602.774C522.65 611.699 489.299 622.932 458.643 596.462Z" fill="#F11012"/>
<path d="M448.127 584.068C453.453 588.724 460.31 592.778 468.236 595.955C476.162 599.133 484.972 601.36 494.07 602.487C503.169 603.614 512.344 603.614 520.977 602.487C529.61 601.36 537.499 599.132 544.112 595.955C545.152 595.419 546.515 595.123 547.984 595.114C549.452 595.105 550.944 595.384 552.222 595.905C553.499 596.427 554.491 597.162 555.039 597.994C555.588 598.827 555.661 599.709 555.249 600.501C548.383 614.842 521.162 622.655 491.491 618.98C461.82 615.305 438.115 601.186 436.225 585.761C436.22 584.961 436.641 584.21 437.432 583.609C438.222 583.008 439.344 582.587 440.644 582.402C441.944 582.217 443.359 582.278 444.698 582.576C446.037 582.874 447.234 583.395 448.127 584.068Z" fill="#E6E6E6"/>
<path d="M136.461 184.058L129.777 227.503L169.045 210.794L212.49 227.503L205.806 184.058L235.884 152.31L192.439 143.955L171.552 102.181L150.665 143.955L103.877 152.31L136.461 184.058Z" fill="#FFB52B"/>
<path d="M214.32 85.5599L210.174 112.206L234.53 101.958L261.477 112.206L257.331 85.5599L275.987 66.0876L249.04 60.9633L236.085 35.3418L223.13 60.9633L194.11 66.0876L214.32 85.5599Z" fill="#F11012"/>
<path d="M47.2232 230.934L43.0775 257.581L67.4334 247.332L94.3804 257.581L90.2347 230.934L108.89 211.462L81.9434 206.338L68.9881 180.716L56.0328 206.338L27.0129 211.462L47.2232 230.934Z" fill="#765CD7"/>
<circle cx="100.536" cy="108.865" r="15.0387" fill="#FFCB6B"/>
<circle cx="152.335" cy="52.0517" r="15.0387" fill="#82AF3A"/>
<circle cx="169.045" cy="269.277" r="18.3806" fill="#F11012"/>
<circle cx="260.113" cy="193.248" r="17.5452" fill="#82AAFF"/>
<path d="M88.2737 227.857C87.8888 228.221 87.6009 228.671 87.435 229.169C87.2691 229.666 87.2303 230.196 87.322 230.711L91.3584 253.415L70.3558 242.736C69.8851 242.495 69.3615 242.369 68.8298 242.369C68.2982 242.369 67.7745 242.495 67.3038 242.736L46.3012 253.479L50.4689 230.711C50.5606 230.196 50.5218 229.666 50.3559 229.169C50.19 228.671 49.9021 228.221 49.5172 227.857L32.551 211.824L55.9821 208.617C56.5137 208.545 57.0191 208.346 57.4539 208.038C57.8887 207.731 58.2398 207.324 58.4762 206.853L68.9775 186.17L79.4788 206.853C79.7122 207.32 80.0581 207.724 80.4868 208.032C80.9156 208.339 81.4143 208.54 81.9401 208.617L105.371 211.824L88.2737 227.857ZM115.446 208.617C115.256 208.047 114.906 207.54 114.436 207.155C113.966 206.77 113.395 206.521 112.788 206.436L84.4341 202.428L71.7341 177.479C71.4619 176.946 71.0429 176.497 70.5241 176.183C70.0052 175.869 69.4072 175.703 68.797 175.703C68.1868 175.703 67.5888 175.869 67.0699 176.183C66.5511 176.497 66.1321 176.946 65.8599 177.479L53.1927 202.428L24.8391 206.436C24.2287 206.517 23.654 206.765 23.1807 207.15C22.7074 207.536 22.3548 208.044 22.163 208.616C21.9713 209.188 21.9482 209.801 22.0965 210.385C22.2448 210.97 22.5584 211.501 23.0014 211.92L43.5118 231.353L38.6549 258.77C38.5378 259.371 38.5991 259.993 38.8317 260.561C39.0643 261.129 39.4585 261.62 39.9676 261.977C40.4607 262.329 41.0444 262.539 41.6531 262.584C42.2618 262.63 42.8714 262.508 43.4133 262.233L68.7806 249.406L94.1478 262.233C94.6296 262.459 95.156 262.579 95.6902 262.586C96.3854 262.589 97.0633 262.375 97.6264 261.977C98.1296 261.616 98.5173 261.123 98.7439 260.555C98.9706 259.988 99.0269 259.368 98.9062 258.77L94.0494 231.353L114.56 211.92C114.993 211.515 115.305 211.002 115.461 210.437C115.617 209.872 115.612 209.276 115.446 208.713V208.617Z" fill="#0F111A"/>
<path d="M254.219 84.2227C253.846 84.5832 253.566 85.0282 253.403 85.5196C253.24 86.011 253.199 86.5344 253.284 87.0449L257.22 109.783L236.605 99.0391C236.136 98.8002 235.616 98.6791 235.089 98.6863C234.572 98.6733 234.06 98.7949 233.605 99.0391L212.958 109.783L216.926 86.9487C217.011 86.4381 216.97 85.9148 216.807 85.4234C216.644 84.932 216.364 84.487 215.991 84.1265L199.312 68.0915L222.346 64.8845C222.865 64.8155 223.36 64.6218 223.787 64.32C224.214 64.0183 224.561 63.6176 224.798 63.1527L235.121 42.4676L245.445 63.1527C245.678 63.6136 246.02 64.0117 246.441 64.3131C246.862 64.6146 247.35 64.8106 247.864 64.8845L270.898 68.0915L254.219 84.2227ZM280.899 64.9807C280.712 64.4108 280.368 63.9043 279.906 63.5188C279.444 63.1334 278.883 62.8843 278.286 62.8L250.445 58.7271L238.089 33.7766C237.822 33.2429 237.41 32.794 236.9 32.4802C236.39 32.1664 235.802 32.0001 235.202 32.0001C234.602 32.0001 234.014 32.1664 233.504 32.4802C232.994 32.794 232.582 33.2429 232.314 33.7766L219.733 58.7271L191.86 62.7358C191.262 62.822 190.701 63.0731 190.24 63.4606C189.779 63.848 189.437 64.3563 189.252 64.9276C189.067 65.499 189.047 66.1104 189.194 66.6923C189.342 67.2743 189.65 67.8035 190.085 68.2198L210.248 87.6542L205.474 115.074C205.358 115.675 205.419 116.297 205.647 116.865C205.876 117.433 206.264 117.925 206.764 118.281C207.318 118.679 207.984 118.893 208.667 118.89C209.182 118.884 209.689 118.764 210.151 118.538L235.089 105.71L260.026 118.538C260.539 118.781 261.108 118.886 261.674 118.841C262.241 118.796 262.785 118.603 263.252 118.281C263.753 117.925 264.14 117.433 264.369 116.865C264.598 116.297 264.658 115.675 264.543 115.074L259.768 87.6542L280.028 68.2198C280.448 67.8118 280.748 67.2975 280.896 66.7323C281.044 66.1672 281.034 65.5726 280.867 65.0128L280.899 64.9807Z" fill="#0F111A"/>
<path d="M202.624 181.949C202.242 182.316 201.956 182.77 201.792 183.271C201.627 183.773 201.588 184.306 201.679 184.826L208.65 225.001L172.105 206.029C171.634 205.777 171.109 205.643 170.574 205.641C170.049 205.639 169.533 205.773 169.076 206.029L132.531 225.001L139.501 184.826C139.592 184.306 139.554 183.773 139.389 183.271C139.225 182.77 138.939 182.316 138.557 181.949L109.015 153.539L149.859 147.689C150.381 147.612 150.876 147.409 151.301 147.099C151.727 146.79 152.07 146.382 152.302 145.912L170.607 109.292L188.879 145.847C189.111 146.318 189.454 146.725 189.879 147.035C190.305 147.344 190.8 147.547 191.322 147.625L232.231 153.539L202.624 181.949ZM242.295 150.275C242.107 149.701 241.759 149.19 241.293 148.802C240.827 148.413 240.26 148.162 239.657 148.077L194.058 141.613L173.603 100.662C173.337 100.116 172.92 99.6551 172.402 99.3326C171.883 99.0101 171.284 98.8391 170.672 98.8391C170.06 98.8391 169.46 99.0101 168.942 99.3326C168.424 99.6551 168.007 100.116 167.74 100.662L147.253 141.613L101.654 148.077C101.051 148.164 100.484 148.417 100.019 148.808C99.5533 149.198 99.2076 149.71 99.021 150.286C98.8344 150.862 98.8143 151.478 98.9631 152.065C99.1118 152.651 99.4235 153.185 99.8626 153.604L132.922 185.408L125.138 230.334C125.018 230.937 125.074 231.561 125.299 232.133C125.524 232.706 125.908 233.203 126.408 233.566C126.897 233.92 127.477 234.132 128.081 234.178C128.685 234.224 129.29 234.101 129.828 233.825L170.737 212.59L211.614 233.825C212.092 234.052 212.614 234.173 213.144 234.18C213.831 234.164 214.499 233.951 215.066 233.566C215.566 233.203 215.95 232.706 216.175 232.133C216.4 231.561 216.456 230.937 216.336 230.334L208.552 185.408L241.611 153.604C242.03 153.189 242.327 152.67 242.471 152.1C242.614 151.531 242.598 150.933 242.426 150.372L242.295 150.275Z" fill="#0F111A"/>
<path d="M243.403 282.645C244.245 282.645 245.053 282.289 245.648 281.655C246.244 281.02 246.578 280.16 246.578 279.263V269.318H256.103C256.945 269.318 257.752 268.962 258.348 268.328C258.943 267.693 259.278 266.833 259.278 265.936C259.278 265.039 258.943 264.178 258.348 263.544C257.752 262.91 256.945 262.553 256.103 262.553H246.578V252.609C246.578 251.711 246.244 250.851 245.648 250.217C245.053 249.582 244.245 249.226 243.403 249.226C242.561 249.226 241.754 249.582 241.158 250.217C240.563 250.851 240.229 251.711 240.229 252.609V262.553H230.704C229.862 262.553 229.054 262.91 228.459 263.544C227.864 264.178 227.529 265.039 227.529 265.936C227.529 266.833 227.864 267.693 228.459 268.328C229.054 268.962 229.862 269.318 230.704 269.318H240.229V279.263C240.229 279.707 240.311 280.147 240.47 280.557C240.63 280.968 240.864 281.341 241.158 281.655C241.453 281.969 241.803 282.218 242.188 282.388C242.574 282.558 242.986 282.645 243.403 282.645Z" fill="#0F111A"/>
<path d="M74.6356 65.4197C75.4776 65.4197 76.2851 65.0814 76.8805 64.4794C77.4759 63.8774 77.8104 63.0609 77.8104 62.2095V52.7717H87.3349C88.177 52.7717 88.9845 52.4334 89.5799 51.8314C90.1753 51.2294 90.5098 50.4129 90.5098 49.5615C90.5098 48.7101 90.1753 47.8936 89.5799 47.2916C88.9845 46.6896 88.177 46.3514 87.3349 46.3514H77.8104V36.8814C77.8104 36.03 77.4759 35.2135 76.8805 34.6115C76.2851 34.0095 75.4776 33.6713 74.6356 33.6713C73.7936 33.6713 72.986 34.0095 72.3906 34.6115C71.7952 35.2135 71.4607 36.03 71.4607 36.8814V46.3514H61.9362C61.0942 46.3514 60.2867 46.6896 59.6913 47.2916C59.0959 47.8936 58.7614 48.7101 58.7614 49.5615C58.7614 50.4129 59.0959 51.2294 59.6913 51.8314C60.2867 52.4334 61.0942 52.7717 61.9362 52.7717H71.4607V62.2095C71.4607 63.0609 71.7952 63.8774 72.3906 64.4794C72.986 65.0814 73.7936 65.4197 74.6356 65.4197Z" fill="#0F111A"/>
<path d="M47.0647 138.942C47.9511 138.942 48.8011 138.604 49.4278 138.002C50.0546 137.4 50.4067 136.583 50.4067 135.732V126.102H60.4325C61.3188 126.102 62.1688 125.763 62.7956 125.161C63.4223 124.559 63.7744 123.743 63.7744 122.891C63.7744 122.04 63.4223 121.223 62.7956 120.621C62.1688 120.019 61.3188 119.681 60.4325 119.681H50.4067V110.404C50.4067 109.552 50.0546 108.736 49.4278 108.134C48.8011 107.532 47.9511 107.194 47.0647 107.194C46.1784 107.194 45.3284 107.532 44.7016 108.134C44.0749 108.736 43.7228 109.552 43.7228 110.404V119.842H33.697C32.8106 119.842 31.9606 120.18 31.3339 120.782C30.7071 121.384 30.355 122.2 30.355 123.052C30.355 123.903 30.7071 124.72 31.3339 125.322C31.9606 125.924 32.8106 126.262 33.697 126.262H43.7228V135.892C43.7657 136.716 44.1366 137.492 44.7588 138.059C45.3809 138.627 46.2066 138.943 47.0647 138.942Z" fill="#0F111A"/>
<path d="M100.7 95.3757C103.36 95.4081 105.952 96.2266 108.148 97.7282C110.344 99.2299 112.048 101.348 113.043 103.815C114.039 106.282 114.283 108.989 113.744 111.595C113.205 114.2 111.908 116.588 110.015 118.458C108.123 120.328 105.719 121.597 103.107 122.104C100.495 122.611 97.7918 122.335 95.3368 121.309C92.8817 120.283 90.7848 118.555 89.3098 116.34C87.8348 114.126 87.0477 111.525 87.0475 108.864C87.0736 105.266 88.5255 101.826 91.0849 99.2971C93.6442 96.7685 97.102 95.3582 100.7 95.3757ZM100.7 128.916C104.658 128.883 108.519 127.68 111.795 125.457C115.071 123.234 117.615 120.091 119.108 116.424C120.6 112.758 120.974 108.731 120.182 104.852C119.39 100.974 117.467 97.4161 114.656 94.6282C111.846 91.8402 108.273 89.9467 104.388 89.1862C100.502 88.4257 96.4792 88.8323 92.8248 90.3547C89.1704 91.877 86.0484 94.4471 83.8523 97.741C81.6561 101.035 80.4841 104.905 80.484 108.864C80.5101 114.202 82.6535 119.312 86.4438 123.072C90.234 126.832 95.3612 128.933 100.7 128.916Z" fill="#0F111A"/>
<path d="M165.845 51.889C165.877 54.5739 165.111 57.2078 163.642 59.456C162.174 61.7042 160.071 63.4651 157.599 64.515C155.128 65.5649 152.4 65.8564 149.763 65.3525C147.126 64.8485 144.698 63.5718 142.787 61.6846C140.877 59.7975 139.571 57.3851 139.036 54.754C138.5 52.1229 138.758 49.3919 139.778 46.908C140.798 44.4241 142.534 42.2996 144.764 40.8043C146.994 39.3091 149.618 38.5106 152.304 38.5104C155.872 38.4931 159.302 39.8919 161.84 42.3999C164.379 44.908 165.819 48.3205 165.845 51.889ZM132.285 51.889C132.252 55.863 133.402 59.7569 135.587 63.0765C137.772 66.396 140.894 68.9914 144.557 70.533C148.22 72.0747 152.258 72.4932 156.159 71.7354C160.06 70.9775 163.648 69.0775 166.468 66.2765C169.287 63.4756 171.21 59.9001 171.994 56.0039C172.777 52.1077 172.385 48.0667 170.867 44.3938C169.349 40.7209 166.774 37.5819 163.469 35.3752C160.164 33.1686 156.278 31.9938 152.304 32.0001C147.014 31.9915 141.937 34.08 138.184 37.808C134.432 41.536 132.31 46.5995 132.285 51.889Z" fill="#0F111A"/>
<path d="M247.429 194.247C247.396 191.562 248.162 188.928 249.628 186.68C251.093 184.432 253.193 182.671 255.661 181.621C258.128 180.571 260.851 180.279 263.485 180.783C266.118 181.287 268.542 182.564 270.449 184.451C272.356 186.338 273.66 188.751 274.195 191.382C274.73 194.013 274.472 196.744 273.453 199.228C272.435 201.712 270.703 203.836 268.476 205.331C266.249 206.827 263.629 207.625 260.948 207.625C257.385 207.643 253.961 206.244 251.427 203.736C248.892 201.228 247.454 197.815 247.429 194.247ZM280.935 194.247C280.967 190.273 279.82 186.379 277.638 183.059C275.457 179.74 272.34 177.145 268.683 175.603C265.025 174.061 260.994 173.643 257.099 174.401C253.204 175.158 249.621 177.058 246.807 179.859C243.992 182.66 242.072 186.236 241.29 190.132C240.508 194.028 240.899 198.069 242.414 201.742C243.93 205.415 246.5 208.554 249.8 210.761C253.1 212.967 256.98 214.142 260.948 214.136C263.569 214.148 266.166 213.644 268.592 212.652C271.018 211.659 273.225 210.198 275.087 208.351C276.949 206.504 278.429 204.308 279.444 201.888C280.458 199.468 280.987 196.871 281 194.247H280.935Z" fill="#0F111A"/>
<path d="M184.346 268.251C184.384 271.456 183.468 274.601 181.715 277.284C179.962 279.968 177.45 282.07 174.5 283.323C171.549 284.576 168.292 284.924 165.144 284.322C161.995 283.72 159.096 282.196 156.816 279.942C154.535 277.689 152.977 274.809 152.337 271.668C151.697 268.526 152.006 265.266 153.224 262.3C154.442 259.335 156.514 256.799 159.177 255.013C161.839 253.228 164.973 252.275 168.179 252.275C170.293 252.25 172.391 252.644 174.351 253.435C176.312 254.227 178.096 255.4 179.599 256.886C181.103 258.372 182.297 260.141 183.112 262.092C183.927 264.043 184.346 266.136 184.346 268.251ZM145.652 268.251C145.614 272.72 146.905 277.1 149.361 280.835C151.816 284.569 155.326 287.491 159.444 289.227C163.563 290.964 168.104 291.438 172.493 290.59C176.881 289.741 180.918 287.608 184.092 284.461C187.266 281.314 189.434 277.295 190.32 272.914C191.206 268.533 190.771 263.988 189.069 259.855C187.368 255.722 184.476 252.187 180.763 249.7C177.049 247.213 172.68 245.885 168.21 245.885C165.257 245.859 162.328 246.419 159.592 247.532C156.857 248.644 154.368 250.288 152.271 252.367C150.174 254.447 148.509 256.921 147.373 259.647C146.237 262.373 145.652 265.297 145.652 268.251Z" fill="#0F111A"/>
<path d="M682.199 690.791L678.223 647.015L644.135 672.69L597.945 666.935L614.895 707.492L593.35 745.55L637.528 743.195L667.861 778.709L678.073 733.134L721.47 713.757L682.199 690.791Z" fill="#FFB52B"/>
<path d="M757.521 623.802L755.127 596.942L733.956 612.755L705.334 609.298L715.775 634.161L702.359 657.554L729.746 656.037L748.491 677.784L754.894 649.797L781.826 637.834L757.521 623.802Z" fill="#765CD7"/>
<circle cx="735.177" cy="755.118" r="15.0387" transform="rotate(166.064 735.177 755.118)" fill="#FFCB6B"/>
<path d="M718.42 632.676C718.706 632.23 718.877 631.724 718.918 631.201C718.959 630.678 718.869 630.155 718.656 629.677L709.27 608.614L732.227 613.919C732.742 614.04 733.28 614.037 733.796 613.909C734.312 613.781 734.79 613.532 735.189 613.184L752.986 597.7L754.424 620.801C754.459 621.323 754.625 621.828 754.905 622.271C755.186 622.714 755.574 623.081 756.035 623.342L776.364 634.817L754.395 643.573C753.896 643.771 753.453 644.085 753.105 644.489C752.757 644.892 752.515 645.371 752.399 645.885L747.188 668.489L732.014 650.944C731.675 650.547 731.242 650.238 730.752 650.043C730.262 649.848 729.73 649.773 729.201 649.825L705.687 652.355L718.42 632.676ZM696.681 657.894C697.003 658.402 697.465 658.809 698.013 659.07C698.562 659.331 699.176 659.435 699.786 659.37L728.271 656.432L746.605 677.587C746.998 678.04 747.513 678.375 748.092 678.554C748.671 678.734 749.292 678.751 749.884 678.604C750.476 678.457 751.017 678.152 751.445 677.722C751.873 677.293 752.171 676.756 752.307 676.173L758.592 648.908L785.146 638.189C785.719 637.963 786.217 637.584 786.584 637.096C786.95 636.608 787.17 636.03 787.218 635.429C787.267 634.827 787.141 634.227 786.857 633.695C786.572 633.164 786.14 632.723 785.609 632.424L761.022 618.503L759.133 590.723C759.102 590.111 758.892 589.523 758.53 589.027C758.167 588.532 757.666 588.15 757.086 587.927C756.523 587.704 755.906 587.64 755.304 587.743C754.702 587.846 754.14 588.11 753.68 588.507L732.149 607.066L704.439 600.726C703.917 600.623 703.377 600.633 702.857 600.756C702.182 600.921 701.575 601.291 701.125 601.813C700.723 602.284 700.466 602.856 700.382 603.462C700.299 604.068 700.394 604.682 700.655 605.234L711.972 630.675L696.746 654.475C696.423 654.972 696.244 655.545 696.228 656.131C696.213 656.717 696.361 657.295 696.658 657.801L696.681 657.894Z" fill="#0F111A"/>
<path d="M618.492 708.772C618.774 708.324 618.942 707.815 618.981 707.289C619.02 706.763 618.929 706.235 618.716 705.753L602.275 668.439L642.313 678.052C642.831 678.183 643.373 678.186 643.892 678.06C644.402 677.935 644.871 677.681 645.253 677.322L676.153 650.107L679.064 690.778C679.1 691.304 679.266 691.813 679.547 692.26C679.827 692.707 680.214 693.078 680.673 693.342L716.188 713.801L677.955 729.316C677.467 729.517 677.036 729.833 676.697 730.236C676.359 730.639 676.124 731.117 676.012 731.63L667.066 771.58L640.527 740.502C640.189 740.101 639.758 739.788 639.27 739.59C638.783 739.392 638.253 739.315 637.728 739.365L596.599 743.477L618.492 708.772ZM587.617 749.069C587.938 749.581 588.398 749.993 588.944 750.258C589.491 750.522 590.101 750.629 590.707 750.567L636.521 745.858L666.236 780.677C666.626 781.143 667.141 781.49 667.722 781.679C668.303 781.867 668.926 781.888 669.52 781.741C670.114 781.594 670.654 781.283 671.08 780.845C671.505 780.407 671.799 779.86 671.926 779.265L681.947 734.586L724.648 717.33C725.212 717.1 725.701 716.718 726.059 716.227C726.416 715.736 726.629 715.155 726.671 714.552C726.714 713.948 726.585 713.345 726.299 712.812C726.013 712.278 725.582 711.836 725.055 711.534L685.309 688.629L682.044 643.15C682.015 642.536 681.811 641.944 681.455 641.442C681.098 640.941 680.605 640.551 680.033 640.319C679.473 640.093 678.859 640.027 678.262 640.128C677.665 640.229 677.107 640.494 676.651 640.892L642.061 671.354L597.273 660.589C596.754 660.484 596.218 660.492 595.702 660.613C595.039 660.794 594.442 661.162 593.985 661.672C593.587 662.145 593.334 662.72 593.253 663.329C593.173 663.939 593.269 664.558 593.53 665.115L611.906 706.843L587.479 745.673C587.172 746.176 587.009 746.753 587.007 747.34C587.005 747.927 587.164 748.503 587.467 749.006L587.617 749.069Z" fill="#0F111A"/>
<path d="M738.267 768.25C735.677 768.859 732.964 768.689 730.471 767.761C727.977 766.832 725.814 765.187 724.254 763.032C722.693 760.877 721.804 758.309 721.7 755.65C721.595 752.992 722.279 750.361 723.666 748.091C725.053 745.82 727.08 744.01 729.493 742.888C731.905 741.767 734.596 741.384 737.226 741.788C739.856 742.192 742.307 743.365 744.272 745.159C746.237 746.953 747.627 749.288 748.268 751.871C749.109 755.369 748.529 759.058 746.654 762.128C744.779 765.199 741.763 767.4 738.267 768.25ZM730.189 735.697C726.354 736.682 722.897 738.78 720.253 741.726C717.609 744.673 715.897 748.336 715.331 752.254C714.766 756.172 715.373 760.17 717.076 763.744C718.779 767.318 721.501 770.308 724.901 772.337C728.3 774.366 732.224 775.343 736.178 775.145C740.132 774.948 743.939 773.584 747.119 771.227C750.299 768.869 752.71 765.623 754.048 761.897C755.387 758.171 755.592 754.132 754.639 750.29C753.328 745.115 750.016 740.672 745.432 737.936C740.848 735.2 735.366 734.394 730.189 735.697Z" fill="#0F111A"/>
<path d="M762.231 576.358C763.117 576.358 763.967 576.02 764.594 575.418C765.221 574.816 765.573 573.999 765.573 573.148V563.518H775.598C776.485 563.518 777.335 563.179 777.962 562.577C778.588 561.975 778.94 561.159 778.94 560.307C778.94 559.456 778.588 558.64 777.962 558.038C777.335 557.436 776.485 557.097 775.598 557.097H765.573V547.82C765.573 546.969 765.221 546.152 764.594 545.55C763.967 544.948 763.117 544.61 762.231 544.61C761.344 544.61 760.494 544.948 759.868 545.55C759.241 546.152 758.889 546.969 758.889 547.82V557.258H748.863C747.977 557.258 747.127 557.596 746.5 558.198C745.873 558.8 745.521 559.617 745.521 560.468C745.521 561.319 745.873 562.136 746.5 562.738C747.127 563.34 747.977 563.678 748.863 563.678H758.889V573.309C758.932 574.132 759.303 574.908 759.925 575.475C760.547 576.043 761.373 576.359 762.231 576.358Z" fill="#0F111A"/>
<path d="M762.231 727.358C763.117 727.358 763.967 727.02 764.594 726.418C765.22 725.816 765.572 724.999 765.572 724.148V714.518H775.598C776.485 714.518 777.335 714.179 777.961 713.577C778.588 712.975 778.94 712.159 778.94 711.307C778.94 710.456 778.588 709.64 777.961 709.038C777.335 708.436 776.485 708.097 775.598 708.097H765.572V698.82C765.572 697.969 765.22 697.152 764.594 696.55C763.967 695.948 763.117 695.61 762.231 695.61C761.344 695.61 760.494 695.948 759.867 696.55C759.241 697.152 758.889 697.969 758.889 698.82V708.258H748.863C747.976 708.258 747.126 708.596 746.5 709.198C745.873 709.8 745.521 710.617 745.521 711.468C745.521 712.319 745.873 713.136 746.5 713.738C747.126 714.34 747.976 714.678 748.863 714.678H758.889V724.309C758.932 725.132 759.302 725.908 759.925 726.475C760.547 727.043 761.372 727.359 762.231 727.358Z" fill="#0F111A"/>
</g>
<defs>
<clipPath id="clip0">
<rect width="800" height="800" fill="white"/>
</clipPath>
</defs>
</svg>
