<svg width="50" height="50" viewBox="0 0 800 800" fill="none" xmlns="http://www.w3.org/2000/svg">
<g clip-path="url(#clip0)">
<path fill-rule="evenodd" clip-rule="evenodd" d="M163.669 172.185C150.677 146.804 146.575 124.838 152.446 97.9171C164.378 42.9681 206.408 28.7737 256.197 48.3451C278.403 57.0542 296.615 71.8621 312.553 89.0757C378.306 68.814 449.042 71.9035 512.778 97.8209L517.662 99.0238C537.666 75.0377 570.001 56.7174 600.17 52.832C641.995 47.4309 682.617 57.0061 686.406 106.313C687.766 124.032 681.847 145.757 674.281 161.732L661.759 188.196L658.547 187.137C666.895 201.572 674.065 216.007 678.347 228.878C684.494 247.307 692.193 276.838 686.467 296.374L685.36 300.163L683.616 303.182C679.827 310.111 675.52 324.053 678.191 331.703C689.017 362.654 681.583 404.167 661.458 430.053C658.79 433.477 655.866 436.694 652.713 439.677C650.488 445.98 647.805 453.234 644.93 461.185C645.135 462.388 645.291 463.591 645.435 464.878C667.172 463.434 687.802 465.804 708.384 479.216C708.384 479.216 666.51 478.916 645.977 481.622C645.848 484.229 645.628 486.839 645.315 489.453C670.696 495.059 693.516 504.466 712.317 526.828C712.317 526.828 664.453 511.984 641.345 508.423C636.967 522.858 629.653 536.09 619.693 546.026C617.385 557.317 615.921 568.765 615.314 580.273C623.336 582.646 631.617 584.032 639.974 584.399C691.699 586.011 733.055 563.95 733.055 563.95C715.553 787.054 376.548 795.51 226.184 709.153C29.7965 596.404 22.555 333.953 163.633 172.137" fill="#0F111A"/>
<path fill-rule="evenodd" clip-rule="evenodd" d="M515.196 516.326C515.196 516.326 498.8 514.438 471.675 523.893C444.549 533.348 430.655 539.663 415.523 536.511C400.39 533.36 394.7 519.478 394.7 519.478C394.7 519.478 406.729 510.637 429.404 506.859C452.079 503.082 476.715 501.819 476.715 501.819C476.715 501.819 437.019 495.516 419.312 496.779C401.605 498.042 392.174 502.457 392.174 502.457C392.174 502.457 388.397 492.364 394.075 487.312C399.752 482.26 421.826 478.483 437.596 478.483C447.302 478.499 456.996 479.13 466.622 480.371C466.622 480.371 440.748 468.342 420.563 467.139C400.378 465.936 390.911 468.414 390.911 468.414C390.911 468.414 394.7 457.696 402.94 453.979C411.18 450.262 417.459 449.553 428.201 452.704C438.943 455.856 454.064 462.797 454.064 462.797C454.064 462.797 433.879 445.126 423.149 442.612C417.159 441.133 411.031 440.286 404.865 440.086L417.471 427.467C417.471 427.467 398.562 426.842 380.253 447.027C361.945 467.211 366.311 499.281 366.311 499.281C366.311 499.281 356.207 487.938 317.1 466.49C277.994 445.042 269.152 424.231 265.989 398.982C262.825 373.733 267.889 357.975 267.889 357.975C267.889 357.975 229.829 380.83 219.111 432.555C191.227 566.981 230.033 612.992 281.566 679.574C300.813 704.51 220.783 656.357 195.137 630.254C89.6174 522.714 62.5158 312.685 232.62 178.681C232.62 178.681 257.039 161.84 238.959 134.714C220.879 107.589 210.546 101.045 201.512 110.103C192.479 119.161 196.352 164.33 196.352 164.33C196.352 164.33 178.308 134.642 184.732 104.942C191.155 75.2423 207.972 64.9093 244.132 79.1036C280.291 93.298 308.692 135.917 321.599 153.997C334.506 172.077 335.806 175.962 335.806 175.962L331.932 133.343C331.932 133.343 349.976 121.723 431.353 121.723C512.73 121.723 555.313 148.836 555.313 148.836L539.82 124.297C539.82 124.297 564.359 90.7117 604.392 85.5512C644.425 80.3907 652.172 92.0229 653.459 108.804C654.746 125.584 644.413 147.537 644.413 147.537C644.413 147.537 650.86 115.263 631.494 116.55C612.127 117.837 595.346 152.71 595.346 152.71C595.346 152.71 635.379 204.363 646.999 239.211C658.619 274.06 654.746 286.991 654.746 286.991C654.746 286.991 637.965 316.691 646.999 342.505C656.033 368.32 644.401 398.032 635.367 409.652C626.333 421.272 618.586 422.559 618.586 422.559L581.14 413.525C581.14 413.525 596.633 425.158 609.552 456.133C618.526 477.665 611.285 503.563 599.544 518.227C597.632 542.454 589.199 568.22 573.898 583.521C577.579 568.809 577.375 548.468 574.403 529.883C556.083 528.512 534.707 516.82 534.707 516.82C534.707 516.82 535.994 496.165 556.66 481.935C577.326 467.705 573.357 442.937 583.786 435.454C594.215 427.972 572.154 441.914 535.994 445.788C499.835 449.661 470.147 435.454 470.147 435.454C470.147 435.454 470.147 452.235 488.191 465.154C506.234 478.074 534.719 516.82 515.196 516.326Z" fill="#F2F2F2"/>
<path fill-rule="evenodd" clip-rule="evenodd" d="M116.671 479.866C94.8979 378.497 123.563 264.545 232.631 178.597C232.631 178.597 251.662 165.449 243.662 143.712C247.776 148.524 249.424 143.929 255.391 174.603C261.357 205.277 166.628 259.865 137.758 361.391C108.888 462.917 118.03 457.817 116.719 479.866" fill="white"/>
<path fill-rule="evenodd" clip-rule="evenodd" d="M555.241 148.704V148.62L555.373 148.704H555.241ZM333.773 153.516L331.932 133.343C331.932 133.343 349.976 121.723 431.353 121.723C509.338 121.723 551.716 146.623 555.096 148.692C480.311 141.378 415.474 132.79 333.833 153.504L333.773 153.516Z" fill="white"/>
<path fill-rule="evenodd" clip-rule="evenodd" d="M555.326 148.824L539.82 124.297C539.82 124.297 564.359 90.7115 604.392 85.551C641.803 80.7394 651.017 90.5672 653.11 105.58C615.628 101.129 581.922 125.115 555.326 148.824Z" fill="white"/>
<path fill-rule="evenodd" clip-rule="evenodd" d="M197.975 78.9471C207.683 70.8876 222.406 70.5267 244.131 79.0914C280.291 93.2978 308.691 135.905 321.599 153.985C333.303 170.38 335.456 175.096 335.769 175.83L299.597 176.022C299.597 176.022 288.122 144.482 241.208 102.464C224.079 87.1149 209.547 80.8116 197.999 78.9471" fill="white"/>
<path fill-rule="evenodd" clip-rule="evenodd" d="M468.042 368.091C468.042 368.091 456.109 308.415 444.718 298.659C433.326 288.904 388.843 268.887 368.237 272.628C347.631 276.369 340.028 298.118 340.028 298.118C340.028 298.118 356.304 306.25 368.237 314.959C380.17 323.668 383.417 329.057 401.317 332.317C412.121 334.262 423.216 333.893 433.868 331.234C433.868 331.234 449.048 363.231 468.042 368.115" fill="#0F111A"/>
<path fill-rule="evenodd" clip-rule="evenodd" d="M568.4 364.831C568.4 364.831 552.678 305.167 553.761 299.742C554.844 294.317 577.627 281.842 591.184 279.136C604.74 276.429 613.425 274.793 622.64 283.478C625.336 286.034 627.419 289.166 628.734 292.641C630.048 296.116 630.56 299.843 630.23 303.543C624.538 305.157 619.322 308.125 615.025 312.192C608.518 318.688 602.539 331.162 592.783 333.844C586.967 335.477 580.9 336.028 574.884 335.468L568.4 364.831Z" fill="#0F111A"/>
<path fill-rule="evenodd" clip-rule="evenodd" d="M416.436 324.774C433.422 325.087 440.807 313.142 440.807 313.142L432.471 310.315C432.471 310.315 421.477 316.126 415.967 313.299C410.458 310.472 407.8 303.675 407.8 303.675L388.781 300.849C393.389 312.745 402.447 324.474 416.448 324.738" fill="#F11012"/>
<g filter="url(#filter0_d)">
<path fill-rule="evenodd" clip-rule="evenodd" d="M589.319 316.679C575.991 318.676 568.954 310.027 568.954 310.027L575.221 306.947C575.221 306.947 584.472 310.4 588.513 307.609C592.555 304.818 593.963 299.188 593.963 299.188L608.638 295.014C606.232 304.854 600.302 315.007 589.319 316.667" fill="#F11012"/>
</g>
<path fill-rule="evenodd" clip-rule="evenodd" d="M340.028 298.118C340.028 298.118 370.473 343.408 401.208 355.858C431.942 368.308 468.042 368.079 468.042 368.079C449.048 363.196 433.867 331.198 433.867 331.198C423.215 333.857 412.121 334.226 401.316 332.281C383.417 329.021 380.169 323.608 368.236 314.923C356.303 306.238 340.028 298.082 340.028 298.082V298.118ZM560.365 504.983L588.032 514.305C596.57 504.2 600.97 491.24 600.35 478.026C599.351 455.724 592.687 446.75 592.687 446.75C592.687 446.75 592.687 465.72 581.043 475.379C569.399 485.039 560.365 504.983 560.365 504.983ZM413.513 431.28L417.411 427.383C417.411 427.383 398.489 426.757 380.193 446.942C361.896 467.127 366.311 499.293 366.311 499.293C366.311 499.293 356.231 487.938 317.112 466.49C277.993 445.042 269.164 424.231 266 398.994C262.837 373.757 267.901 357.975 267.901 357.975C132.465 463.976 280.495 700.444 462.977 724.021C290.528 719.643 156.054 655.215 117.224 480.888C151.399 411.925 248.185 297.757 319.277 296.013C319.277 296.013 275.708 355.497 305.817 388.866C339.643 426.348 370.666 387.374 418.313 426.89L413.513 431.28ZM470.375 524.362C449.3 531.784 407.956 551.884 394.7 519.49C394.7 519.49 406.729 510.661 429.404 506.871C452.079 503.082 476.715 501.831 476.715 501.831C476.715 501.831 437.018 495.528 419.311 496.791C401.605 498.054 392.186 502.457 392.186 502.457C392.186 502.457 388.397 492.376 394.074 487.324C399.752 482.272 421.826 478.495 437.596 478.495C447.301 478.511 456.996 479.142 466.622 480.383C466.622 480.383 440.747 468.354 420.563 467.151C400.378 465.948 390.911 468.354 390.911 468.354C390.911 468.354 394.7 457.636 402.94 453.847C411.18 450.058 417.459 449.432 428.201 452.644C431.99 453.847 435.96 455.459 439.809 456.722C443.719 458.671 449.661 460.716 454.052 462.737L452.933 461.786C465.287 467.127 476.582 473.334 476.582 473.334C476.582 473.334 464.986 469.04 457.047 450.792C449.264 432.916 455.579 411.252 455.844 410.374C457.047 405.562 466.466 393.256 469.894 389.455C468.15 420.105 465.576 451.056 488.238 465.239C507.677 477.388 534.719 516.88 515.256 516.386C515.256 516.386 498.86 514.498 471.734 523.953L470.375 524.362ZM594.684 402.627L616.337 409.291C616.337 409.291 629.677 398.056 635.92 384.728C642.163 371.399 639.24 360.994 639.24 360.994C639.24 360.994 609.3 399.704 594.684 402.615V402.627ZM611.08 316.823C609.083 323.403 603.321 337.573 591.99 346.415L568.401 364.831L574.908 335.541C580.924 336.1 586.991 335.55 592.808 333.917L593.169 333.808H593.265L593.529 333.724L593.71 333.652L593.89 333.592L594.155 333.496H594.239L594.588 333.363L594.925 333.207H595.009L595.262 333.087L595.442 333.002L595.598 332.93L595.863 332.798H595.935L596.272 332.617L596.585 332.437H596.693L596.922 332.305L597.102 332.184L597.246 332.1L597.499 331.932L597.824 331.715L598.112 331.511L598.209 331.439L598.425 331.282L598.606 331.15L598.738 331.054L598.991 330.849L599.303 330.609L599.58 330.38L599.688 330.296L599.881 330.127L600.061 329.971L600.181 329.875L600.434 329.634L600.879 329.033L601.132 328.792L601.24 328.696L601.42 328.516L601.601 328.335L601.709 328.239L601.95 327.986L602.238 327.698L602.479 327.433L602.587 327.325L602.756 327.144L602.936 326.94L603.032 326.843L603.285 326.567L603.562 326.254L603.79 326.001L603.911 325.869L604.067 325.689L604.247 325.484L604.332 325.376L604.584 325.075L604.849 324.774V324.702L605.065 324.45L605.186 324.305L605.318 324.125L605.498 323.896L605.583 323.8L605.823 323.499L606.076 323.175V323.102L606.28 322.862L606.401 322.705L606.533 322.525L606.713 322.296L606.785 322.2L607.038 321.875L607.279 321.551V321.466L607.471 321.214L607.603 321.057L607.724 320.889L607.916 320.648V320.564L608.157 320.239L608.409 319.915L608.47 319.831L608.65 319.59L608.782 319.422L608.891 319.265L609.083 319.013V318.94L609.324 318.628L609.564 318.315L609.636 318.231L609.817 318.002L609.937 317.834L610.057 317.689L610.238 317.437L611.08 316.823Z" fill="#E6E6E6"/>
<line x1="426.797" y1="322.577" x2="822.868" y2="614.496" stroke="#F11012" stroke-width="4" stroke-linecap="round" stroke-linejoin="round"/>
<line x1="597.716" y1="312.21" x2="1028.99" y2="549.042" stroke="#F11012" stroke-width="4" stroke-linecap="round" stroke-linejoin="round"/>
<g filter="url(#filter1_f)">
<line x1="425.779" y1="322.46" x2="805.752" y2="602.513" stroke="#F11012" stroke-width="24" stroke-linecap="round" stroke-linejoin="round"/>
</g>
<g filter="url(#filter2_f)">
<line x1="597.294" y1="311.258" x2="1011.04" y2="538.463" stroke="#F11012" stroke-width="24" stroke-linecap="round" stroke-linejoin="round"/>
</g>
<path d="M458.643 596.462C475.238 582.234 513.841 563.578 535.494 602.774C522.65 611.699 489.299 622.932 458.643 596.462Z" fill="#F11012"/>
<path d="M448.127 584.068C453.453 588.724 460.31 592.778 468.236 595.955C476.162 599.133 484.972 601.36 494.07 602.487C503.169 603.614 512.344 603.614 520.977 602.487C529.61 601.36 537.499 599.132 544.112 595.955C545.152 595.419 546.515 595.123 547.984 595.114C549.452 595.105 550.944 595.384 552.222 595.905C553.499 596.427 554.491 597.162 555.039 597.994C555.588 598.827 555.661 599.709 555.249 600.501C548.383 614.842 521.162 622.655 491.491 618.98C461.82 615.305 438.115 601.186 436.225 585.761C436.22 584.961 436.641 584.21 437.432 583.609C438.222 583.008 439.344 582.587 440.644 582.402C441.944 582.217 443.359 582.278 444.698 582.576C446.037 582.874 447.234 583.395 448.127 584.068Z" fill="#E6E6E6"/>
</g>
<defs>
<filter id="filter0_d" x="564.954" y="295.014" width="47.6841" height="29.9638" filterUnits="userSpaceOnUse" color-interpolation-filters="sRGB">
<feFlood flood-opacity="0" result="BackgroundImageFix"/>
<feColorMatrix in="SourceAlpha" type="matrix" values="0 0 0 0 0 0 0 0 0 0 0 0 0 0 0 0 0 0 127 0"/>
<feOffset dy="4"/>
<feGaussianBlur stdDeviation="2"/>
<feColorMatrix type="matrix" values="0 0 0 0 0 0 0 0 0 0 0 0 0 0 0 0 0 0 0.25 0"/>
<feBlend mode="normal" in2="BackgroundImageFix" result="effect1_dropShadow"/>
<feBlend mode="normal" in="SourceGraphic" in2="effect1_dropShadow" result="shape"/>
</filter>
<filter id="filter1_f" x="393" y="289.68" width="445.531" height="345.612" filterUnits="userSpaceOnUse" color-interpolation-filters="sRGB">
<feFlood flood-opacity="0" result="BackgroundImageFix"/>
<feBlend mode="normal" in="SourceGraphic" in2="BackgroundImageFix" result="shape"/>
<feGaussianBlur stdDeviation="8" result="effect1_foregroundBlur"/>
</filter>
<filter id="filter2_f" x="565" y="278.963" width="478.336" height="291.794" filterUnits="userSpaceOnUse" color-interpolation-filters="sRGB">
<feFlood flood-opacity="0" result="BackgroundImageFix"/>
<feBlend mode="normal" in="SourceGraphic" in2="BackgroundImageFix" result="shape"/>
<feGaussianBlur stdDeviation="8" result="effect1_foregroundBlur"/>
</filter>
<clipPath id="clip0">
<rect width="800" height="800" fill="white"/>
</clipPath>
</defs>
</svg>
