<svg width="50" height="50" viewBox="0 0 800 800" fill="none" xmlns="http://www.w3.org/2000/svg">
<path fill-rule="evenodd" clip-rule="evenodd" d="M203.54 210.61C192.74 189.51 189.33 171.25 194.21 148.87C204.13 103.19 239.07 91.39 280.46 107.66C298.92 114.9 314.06 127.21 327.31 141.52C381.971 124.676 440.775 127.244 493.76 148.79L497.82 149.79C514.45 129.85 541.33 114.62 566.41 111.39C601.18 106.9 634.95 114.86 638.1 155.85C639.23 170.58 634.31 188.64 628.02 201.92L617.61 223.92L614.94 223.04C621.88 235.04 627.84 247.04 631.4 257.74C636.51 273.06 642.91 297.61 638.15 313.85L637.23 317L635.78 319.51C632.63 325.27 629.05 336.86 631.27 343.22C640.27 368.95 634.09 403.46 617.36 424.98C615.142 427.826 612.711 430.5 610.09 432.98C608.24 438.22 606.01 444.25 603.62 450.86C603.79 451.86 603.92 452.86 604.04 453.93C622.11 452.73 639.26 454.7 656.37 465.85C656.37 465.85 621.56 465.6 604.49 467.85C604.383 470.017 604.2 472.187 603.94 474.36C625.04 479.02 644.01 486.84 659.64 505.43C659.64 505.43 619.85 493.09 600.64 490.13C597 502.13 590.92 513.13 582.64 521.39C580.721 530.776 579.504 540.293 579 549.86C585.668 551.833 592.553 552.984 599.5 553.29C642.5 554.63 676.88 536.29 676.88 536.29C662.33 721.76 380.51 728.79 255.51 657C92.2499 563.27 86.2299 345.09 203.51 210.57" fill="#0F111A"/>
<path fill-rule="evenodd" clip-rule="evenodd" d="M495.77 496.7C495.77 496.7 482.14 495.13 459.59 502.99C437.04 510.85 425.49 516.1 412.91 513.48C400.33 510.86 395.6 499.32 395.6 499.32C395.6 499.32 405.6 491.97 424.45 488.83C443.3 485.69 463.78 484.64 463.78 484.64C463.78 484.64 430.78 479.4 416.06 480.45C401.34 481.5 393.5 485.17 393.5 485.17C393.5 485.17 390.36 476.78 395.08 472.58C399.8 468.38 418.15 465.24 431.26 465.24C439.328 465.254 447.388 465.778 455.39 466.81C455.39 466.81 433.88 456.81 417.1 455.81C400.32 454.81 392.45 456.87 392.45 456.87C392.45 456.87 395.6 447.96 402.45 444.87C409.3 441.78 414.52 441.19 423.45 443.81C432.38 446.43 444.95 452.2 444.95 452.2C444.95 452.2 428.17 437.51 419.25 435.42C414.271 434.19 409.176 433.486 404.05 433.32L414.53 422.83C414.53 422.83 398.81 422.31 383.59 439.09C368.37 455.87 372 482.53 372 482.53C372 482.53 363.6 473.1 331.09 455.27C298.58 437.44 291.23 420.14 288.6 399.15C285.97 378.16 290.18 365.06 290.18 365.06C290.18 365.06 258.54 384.06 249.63 427.06C226.45 538.81 258.71 577.06 301.55 632.41C317.55 653.14 251.02 613.11 229.7 591.41C141.98 502.01 119.45 327.41 260.86 216.01C260.86 216.01 281.16 202.01 266.13 179.46C251.1 156.91 242.51 151.47 235 159C227.49 166.53 230.71 204.08 230.71 204.08C230.71 204.08 215.71 179.4 221.05 154.71C226.39 130.02 240.37 121.43 270.43 133.23C300.49 145.03 324.1 180.46 334.83 195.49C345.56 210.52 346.64 213.75 346.64 213.75L343.42 178.32C343.42 178.32 358.42 168.66 426.07 168.66C493.72 168.66 529.12 191.2 529.12 191.2L516.24 170.8C516.24 170.8 536.64 142.88 569.92 138.59C603.2 134.3 609.64 143.97 610.71 157.92C611.78 171.87 603.19 190.12 603.19 190.12C603.19 190.12 608.55 163.29 592.45 164.36C576.35 165.43 562.4 194.42 562.4 194.42C562.4 194.42 595.68 237.36 605.34 266.33C615 295.3 611.78 306.05 611.78 306.05C611.78 306.05 597.83 330.74 605.34 352.2C612.85 373.66 603.18 398.36 595.67 408.02C588.16 417.68 581.72 418.75 581.72 418.75L550.59 411.24C550.59 411.24 563.47 420.91 574.21 446.66C581.67 464.56 575.65 486.09 565.89 498.28C564.3 518.42 557.29 539.84 544.57 552.56C547.63 540.33 547.46 523.42 544.99 507.97C529.76 506.83 511.99 497.11 511.99 497.11C511.99 497.11 513.06 479.94 530.24 468.11C547.42 456.28 544.12 435.69 552.79 429.47C561.46 423.25 543.12 434.84 513.06 438.06C483 441.28 458.32 429.47 458.32 429.47C458.32 429.47 458.32 443.42 473.32 454.16C488.32 464.9 512 497.11 495.77 496.7Z" fill="#F2F2F2"/>
<path fill-rule="evenodd" clip-rule="evenodd" d="M164.47 466.39C146.37 382.12 170.2 287.39 260.87 215.94C260.87 215.94 276.69 205.01 270.04 186.94C273.46 190.94 274.83 187.12 279.79 212.62C284.75 238.12 206 283.5 182 367.9C158 452.3 165.6 448.06 164.51 466.39" fill="white"/>
<path fill-rule="evenodd" clip-rule="evenodd" d="M529.06 191.09V191.02L529.17 191.09H529.06ZM344.95 195.09L343.42 178.32C343.42 178.32 358.42 168.66 426.07 168.66C490.9 168.66 526.13 189.36 528.94 191.08C466.77 185 412.87 177.86 345 195.08L344.95 195.09Z" fill="white"/>
<path fill-rule="evenodd" clip-rule="evenodd" d="M529.13 191.19L516.24 170.8C516.24 170.8 536.64 142.88 569.92 138.59C601.02 134.59 608.68 142.76 610.42 155.24C579.26 151.54 551.24 171.48 529.13 191.19Z" fill="white"/>
<path fill-rule="evenodd" clip-rule="evenodd" d="M232.06 133.1C240.13 126.4 252.37 126.1 270.43 133.22C300.49 145.03 324.1 180.45 334.83 195.48C344.56 209.11 346.35 213.03 346.61 213.64L316.54 213.8C316.54 213.8 307 187.58 268 152.65C253.76 139.89 241.68 134.65 232.08 133.1" fill="white"/>
<path fill-rule="evenodd" clip-rule="evenodd" d="M533.32 487.27L556.32 495.02C563.417 486.619 567.075 475.845 566.56 464.86C565.73 446.32 560.19 438.86 560.19 438.86C560.19 438.86 560.19 454.63 550.51 462.66C540.83 470.69 533.32 487.27 533.32 487.27ZM411.24 426L414.48 422.76C414.48 422.76 398.75 422.24 383.54 439.02C368.33 455.8 372 482.54 372 482.54C372 482.54 363.62 473.1 331.1 455.27C298.58 437.44 291.24 420.14 288.61 399.16C285.98 378.18 290.19 365.06 290.19 365.06C177.6 453.18 300.66 649.76 452.36 669.36C309 665.72 197.21 612.16 164.93 467.24C193.34 409.91 273.8 315 332.9 313.55C332.9 313.55 296.68 363 321.71 390.74C349.83 421.9 375.62 389.5 415.23 422.35L411.24 426ZM458.51 503.38C440.99 509.55 406.62 526.26 395.6 499.33C395.6 499.33 405.6 491.99 424.45 488.84C443.3 485.69 463.78 484.65 463.78 484.65C463.78 484.65 430.78 479.41 416.06 480.46C401.34 481.51 393.51 485.17 393.51 485.17C393.51 485.17 390.36 476.79 395.08 472.59C399.8 468.39 418.15 465.25 431.26 465.25C439.328 465.264 447.388 465.788 455.39 466.82C455.39 466.82 433.88 456.82 417.1 455.82C400.32 454.82 392.45 456.82 392.45 456.82C392.45 456.82 395.6 447.91 402.45 444.76C409.3 441.61 414.52 441.09 423.45 443.76C426.6 444.76 429.9 446.1 433.1 447.15C436.35 448.77 441.29 450.47 444.94 452.15L444.01 451.36C454.28 455.8 463.67 460.96 463.67 460.96C463.67 460.96 454.03 457.39 447.43 442.22C440.96 427.36 446.21 409.35 446.43 408.62C447.43 404.62 455.26 394.39 458.11 391.23C456.66 416.71 454.52 442.44 473.36 454.23C489.52 464.33 512 497.16 495.82 496.75C495.82 496.75 482.19 495.18 459.64 503.04L458.51 503.38ZM561.85 402.18L579.85 407.72C579.85 407.72 590.94 398.38 596.13 387.3C601.32 376.22 598.89 367.57 598.89 367.57C598.89 367.57 574 399.75 561.85 402.17V402.18Z" fill="#E6E6E6"/>
<path d="M369.998 321.51C373.654 325.77 378.171 329.186 383.242 331.527C388.314 333.867 393.822 335.079 399.396 335.079C404.969 335.079 410.477 333.867 415.549 331.527C420.62 329.186 425.137 325.77 428.793 321.51C429.365 320.801 430.154 320.306 431.035 320.103C431.916 319.9 432.839 319.999 433.657 320.387C434.476 320.774 435.144 321.427 435.555 322.242C435.966 323.056 436.097 323.987 435.928 324.886C433.22 341.079 417.649 353 399.474 353C381.299 353 365.675 341.079 363.019 324.886C362.938 324.034 363.116 323.178 363.532 322.433C363.947 321.688 364.579 321.091 365.341 320.722C366.103 320.353 366.959 320.231 367.792 320.372C368.625 320.513 369.395 320.91 369.998 321.51Z" fill="#0F111A"/>
<path d="M507.998 321.51C511.654 325.77 516.171 329.186 521.242 331.527C526.314 333.867 531.822 335.079 537.396 335.079C542.969 335.079 548.477 333.867 553.549 331.527C558.62 329.186 563.137 325.77 566.793 321.51C567.365 320.801 568.154 320.306 569.035 320.103C569.916 319.9 570.839 319.999 571.657 320.387C572.476 320.774 573.144 321.427 573.555 322.242C573.966 323.056 574.097 323.987 573.928 324.886C571.22 341.079 555.649 353 537.474 353C519.299 353 503.675 341.079 501.019 324.886C500.938 324.034 501.116 323.178 501.532 322.433C501.947 321.688 502.579 321.091 503.341 320.722C504.103 320.353 504.959 320.231 505.792 320.372C506.625 320.513 507.395 320.91 507.998 321.51Z" fill="#0F111A"/>
<path d="M740.973 385.86L782.219 320.412C782.543 320.012 782.787 319.539 782.907 319.003C783.011 318.633 783.089 318.238 783.106 317.837C783.163 316.53 782.749 315.311 781.818 314.349C780.947 313.409 779.824 312.875 778.569 312.711L778.482 312.699L778.395 312.696L778.285 312.691L778.224 312.688L778.163 312.689C773.349 312.777 768.65 312.796 764.065 312.746L764.065 312.746C759.518 312.698 755.011 312.577 750.545 312.386C746.152 312.197 741.856 311.939 737.656 311.611C733.455 311.284 729.275 310.884 725.118 310.411L725.048 310.403L724.978 310.4L724.702 310.388C723.457 310.335 722.319 310.739 721.377 311.536C720.44 312.293 719.844 313.302 719.616 314.48L719.604 314.542L719.596 314.604C719.163 317.957 718.567 321.304 717.808 324.645C717.053 327.941 716.118 331.212 715.003 334.459L714.909 334.733L714.906 334.809L714.896 334.834C714.747 335.225 714.706 335.611 714.693 335.9C714.638 337.185 715.115 338.324 715.918 339.26L715.939 339.284L715.961 339.308C716.889 340.322 718.096 340.875 719.464 340.933C720.512 340.978 721.502 340.702 722.378 340.13C723.27 339.548 723.916 338.733 724.308 337.754L724.336 337.685L724.359 337.613C725.351 334.479 726.232 331.357 727 328.247C727.65 325.736 728.205 323.209 728.663 320.665C731.854 320.999 735.073 321.283 738.319 321.516C742.197 321.794 746.132 322.018 750.124 322.19L753.544 322.337L711.045 388.545L711.01 388.6L710.978 388.657L710.618 389.307L710.55 389.431L710.499 389.563C710.323 390.027 710.246 390.504 710.226 390.959C710.171 392.254 710.626 393.415 711.449 394.374L711.47 394.399L711.491 394.422C712.401 395.417 713.582 395.987 714.94 396.045L715.16 396.055L715.242 396.058L715.324 396.055C721.612 395.81 727.895 395.675 734.173 395.651C740.445 395.663 746.749 395.805 753.085 396.077C756.529 396.225 759.953 396.409 763.357 396.629L763.367 396.63L763.378 396.63C766.769 396.813 770.157 397.068 773.542 397.397L773.596 397.402L773.65 397.404L773.87 397.414C775.172 397.47 776.338 397.005 777.277 396.141C778.269 395.229 778.836 394.047 778.895 392.691L778.954 391.308C779.12 387.455 779.442 383.762 779.92 380.227L779.92 380.225C780.391 376.714 780.997 373.299 781.738 369.981C781.891 369.597 781.949 369.216 781.963 368.882C782.02 367.553 781.52 366.376 780.686 365.407C779.809 364.389 778.644 363.745 777.255 363.686C776.053 363.634 774.95 364.016 774.02 364.754C773.149 365.442 772.552 366.35 772.265 367.423L772.257 367.451L772.251 367.48C771.423 370.987 770.782 374.539 770.327 378.136C769.954 381.081 769.653 384.127 769.424 387.274C767.129 387.096 764.855 386.929 762.603 386.775C759.682 386.575 756.724 386.411 753.727 386.282C751 386.165 748.273 386.067 745.544 385.986C744.027 385.921 742.503 385.879 740.973 385.86Z" fill="white" stroke="#0F111A" stroke-width="4"/>
<path d="M672.781 422.969L694.662 375.165C694.879 374.799 695.027 374.381 695.071 373.923C695.112 373.631 695.134 373.311 695.106 372.981C695.017 371.932 694.562 370.972 693.705 370.275C692.91 369.603 691.952 369.288 690.945 369.284L690.857 369.283L690.769 369.291L690.693 369.297L690.632 369.302L690.57 369.312C687.305 369.793 684.112 370.216 680.992 370.583L680.991 370.583C677.897 370.947 674.823 371.258 671.771 371.516C668.77 371.77 665.828 371.967 662.946 372.109C660.064 372.25 657.189 372.34 654.324 372.377L654.252 372.378L654.181 372.384L653.992 372.4C652.972 372.487 652.087 372.943 651.415 373.685C650.744 374.397 650.374 375.279 650.314 376.243L650.31 376.305L650.31 376.367C650.31 378.702 650.199 381.046 649.978 383.401C649.756 385.722 649.41 388.042 648.94 390.362L648.883 390.642L648.887 390.689C648.819 391.028 648.828 391.336 648.846 391.551C648.936 392.611 649.444 393.49 650.169 394.154L650.193 394.176L650.217 394.197C651.066 394.924 652.106 395.255 653.214 395.161C654.071 395.089 654.847 394.756 655.492 394.199L654.185 392.685L655.492 394.199C656.151 393.63 656.582 392.9 656.791 392.079L656.809 392.008L656.822 391.935C657.224 389.673 657.551 387.428 657.802 385.202C658.003 383.587 658.149 381.969 658.241 380.349C660.259 380.298 662.289 380.217 664.331 380.104C667.003 379.956 669.709 379.766 672.449 379.534L673.729 379.426L651.046 427.919L651.019 427.978L650.995 428.038L650.808 428.518L650.756 428.649L650.724 428.786C650.627 429.196 650.616 429.597 650.647 429.959C650.737 431.018 651.226 431.916 651.973 432.601L651.997 432.622L652.022 432.643C652.849 433.353 653.87 433.705 654.98 433.611L655.132 433.598L655.214 433.591L655.296 433.578C659.55 432.859 663.809 432.217 668.076 431.651C672.34 431.111 676.636 430.659 680.966 430.292C683.321 430.093 685.664 429.921 687.997 429.775L688.008 429.774L688.019 429.773C690.336 429.603 692.657 429.483 694.982 429.414L695.036 429.412L695.091 429.408L695.242 429.395C696.32 429.304 697.224 428.788 697.886 427.992C698.582 427.154 698.915 426.133 698.822 425.035L698.741 424.075C698.516 421.417 698.411 418.856 698.426 416.392L698.426 416.391C698.437 413.956 698.548 411.576 698.757 409.251C698.836 408.912 698.84 408.592 698.818 408.327C698.725 407.234 698.197 406.331 697.447 405.648C696.651 404.922 695.632 404.501 694.478 404.598C693.489 404.682 692.631 405.117 691.964 405.811C691.337 406.458 690.955 407.258 690.837 408.148L690.834 408.176L690.831 408.205C690.573 410.72 690.448 413.249 690.455 415.793C690.459 417.677 690.512 419.613 690.612 421.601C689.245 421.67 687.889 421.745 686.545 421.823C684.532 421.942 682.497 422.088 680.44 422.262C678.57 422.42 676.702 422.591 674.835 422.774C674.152 422.832 673.467 422.897 672.781 422.969Z" fill="white" stroke="#0F111A" stroke-width="4"/>
<path d="M719.775 464.596L740.551 439.191C740.799 438.938 741.008 438.629 741.144 438.264C741.23 438.057 741.312 437.812 741.359 437.541C741.505 436.698 741.344 435.827 740.8 435.083C740.308 434.389 739.615 433.947 738.84 433.741L738.755 433.719L738.668 433.704L738.619 433.695L738.558 433.685L738.497 433.678C736.374 433.445 734.306 433.188 732.293 432.908L732.292 432.907C730.297 432.629 728.323 432.322 726.371 431.985C724.453 431.653 722.581 431.296 720.756 430.914C718.93 430.532 717.118 430.119 715.32 429.675L715.251 429.658L715.181 429.646L715.06 429.625C714.227 429.481 713.42 429.662 712.734 430.108C712.056 430.533 711.579 431.16 711.334 431.905L711.315 431.964L711.299 432.024C710.922 433.465 710.475 434.896 709.958 436.315C709.447 437.71 708.859 439.084 708.195 440.439L708.069 440.697L708.062 440.736C707.955 440.983 707.905 441.21 707.879 441.36C707.727 442.241 707.959 443.052 708.387 443.713L708.405 443.74L708.423 443.766C708.945 444.517 709.709 444.998 710.603 445.153C711.301 445.273 711.992 445.169 712.619 444.862C713.262 444.546 713.756 444.054 714.088 443.455L714.124 443.39L714.155 443.323C714.783 441.958 715.362 440.593 715.889 439.225C716.205 438.433 716.499 437.634 716.771 436.828C717.849 437.076 718.936 437.31 720.032 437.532C721.619 437.854 723.231 438.158 724.867 438.444L703.457 464.187L703.415 464.237L703.377 464.289L703.377 464.289L703.377 464.29L703.376 464.291L703.376 464.291L703.375 464.292L703.375 464.292L703.375 464.293L703.374 464.293L703.374 464.294L703.374 464.294L703.373 464.295L703.373 464.295L703.372 464.296L703.372 464.296L703.372 464.297L703.371 464.297L703.371 464.298L703.37 464.298L703.37 464.299L703.37 464.3L703.369 464.3L703.369 464.301L703.369 464.301L703.368 464.302L703.368 464.302L703.367 464.303L703.367 464.303L703.367 464.304L703.366 464.304L703.366 464.305L703.365 464.305L703.365 464.306L703.365 464.306L703.364 464.307L703.364 464.307L703.364 464.308L703.363 464.308L703.363 464.309L703.362 464.31L703.362 464.31L703.362 464.311L703.361 464.311L703.361 464.312L703.36 464.312L703.36 464.313L703.36 464.313L703.359 464.314L703.359 464.314L703.359 464.315L703.358 464.315L703.358 464.316L703.357 464.316L703.357 464.317L703.357 464.317L703.356 464.318L703.356 464.319L703.355 464.319L703.355 464.32L703.355 464.32L703.354 464.321L703.354 464.321L703.354 464.322L703.353 464.322L703.353 464.323L703.352 464.323L703.352 464.324L703.352 464.324L703.351 464.325L703.351 464.325L703.351 464.326L703.35 464.326L703.35 464.327L703.349 464.327L703.349 464.328L703.349 464.329L703.348 464.329L703.348 464.33L703.347 464.33L703.347 464.331L703.347 464.331L703.346 464.332L703.346 464.332L703.346 464.333L703.345 464.333L703.345 464.334L703.344 464.334L703.344 464.335L703.344 464.335L703.343 464.336L703.343 464.336L703.342 464.337L703.342 464.337L703.342 464.338L703.341 464.339L703.341 464.339L703.341 464.34L703.34 464.34L703.34 464.341L703.339 464.341L703.339 464.342L703.339 464.342L703.338 464.343L703.338 464.343L703.337 464.344L703.337 464.344L703.337 464.345L703.336 464.345L703.336 464.346L703.336 464.346L703.335 464.347L703.335 464.348L703.334 464.348L703.334 464.349L703.334 464.349L703.333 464.35L703.333 464.35L703.332 464.351L703.332 464.351L703.332 464.352L703.331 464.352L703.331 464.353L703.331 464.353L703.33 464.354L703.33 464.354L703.329 464.355L703.329 464.355L703.329 464.356L703.328 464.356L703.328 464.357L703.327 464.358L703.327 464.358L703.327 464.359L703.326 464.359L703.326 464.36L703.326 464.36L703.325 464.361L703.325 464.361L703.324 464.362L703.324 464.362L703.324 464.363L703.323 464.363L703.323 464.364L703.322 464.364L703.322 464.365L703.322 464.365L703.321 464.366L703.321 464.367L703.321 464.367L703.32 464.368L703.32 464.368L703.319 464.369L703.319 464.369L703.319 464.37L703.318 464.37L703.318 464.371L703.317 464.371L703.317 464.372L703.317 464.372L703.316 464.373L703.316 464.373L703.316 464.374L703.315 464.374L703.315 464.375L703.314 464.375L703.314 464.376L703.314 464.377L703.313 464.377L703.313 464.378L703.312 464.378L703.312 464.379L703.312 464.379L703.311 464.38L703.311 464.38L703.311 464.381L703.31 464.381L703.31 464.382L703.309 464.382L703.309 464.383L703.309 464.383L703.308 464.384L703.308 464.384L703.307 464.385L703.307 464.386L703.307 464.386L703.306 464.387L703.306 464.387L703.306 464.388L703.305 464.388L703.305 464.389L703.304 464.389L703.304 464.39L703.304 464.39L703.303 464.391L703.303 464.391L703.303 464.392L703.302 464.392L703.302 464.393L703.301 464.393L703.301 464.394L703.301 464.394L703.3 464.395L703.3 464.396L703.299 464.396L703.299 464.397L703.299 464.397L703.298 464.398L703.298 464.398L703.298 464.399L703.297 464.399L703.297 464.4L703.296 464.4L703.296 464.401L703.296 464.401L703.295 464.402L703.295 464.402L703.294 464.403L703.294 464.403L703.294 464.404L703.293 464.404L703.293 464.405L703.293 464.406L703.292 464.406L703.292 464.407L703.291 464.407L703.291 464.408L703.291 464.408L703.29 464.409L703.29 464.409L703.289 464.41L703.289 464.41L703.289 464.411L703.288 464.411L703.288 464.412L703.288 464.412L703.287 464.413L703.287 464.413L703.286 464.414L703.286 464.415L703.286 464.415L703.285 464.416L703.285 464.416L703.284 464.417L703.284 464.417L703.284 464.418L703.283 464.418L703.283 464.419L703.283 464.419L703.282 464.42L703.282 464.42L703.281 464.421L703.281 464.421L703.281 464.422L703.28 464.422L703.28 464.423L703.279 464.423L703.279 464.424L703.279 464.425L703.278 464.425L703.278 464.426L703.278 464.426L703.277 464.427L703.277 464.427L703.276 464.428L703.276 464.428L703.276 464.429L703.275 464.429L703.275 464.43L703.274 464.43L703.274 464.431L703.274 464.431L703.273 464.432L703.273 464.432L703.273 464.433L703.272 464.434L703.272 464.434L703.271 464.435L703.271 464.435L703.271 464.436L703.27 464.436L703.27 464.437L703.269 464.437L703.269 464.438L703.269 464.438L703.268 464.439L703.268 464.439L703.268 464.44L703.267 464.44L703.267 464.441L703.266 464.441L703.266 464.442L703.266 464.442L703.265 464.443L703.265 464.444L703.264 464.444L703.264 464.445L703.264 464.445L703.263 464.446L703.263 464.446L703.263 464.447L703.262 464.447L703.262 464.448L703.261 464.448L703.261 464.449L703.261 464.449L703.26 464.45L703.26 464.45L703.26 464.451L703.259 464.451L703.259 464.452L703.258 464.453L703.258 464.453L703.258 464.454L703.257 464.454L703.257 464.455L703.256 464.455L703.256 464.456L703.256 464.456L703.255 464.457L703.255 464.457L703.255 464.458L703.254 464.458L703.254 464.459L703.253 464.459L703.253 464.46L703.253 464.46L703.252 464.461L703.252 464.461L703.251 464.462L703.251 464.463L703.251 464.463L703.25 464.464L703.25 464.464L703.25 464.465L703.249 464.465L703.249 464.466L703.248 464.466L703.248 464.467L703.248 464.467L703.247 464.468L703.247 464.468L703.246 464.469L703.246 464.469L703.246 464.47L703.245 464.47L703.245 464.471L703.245 464.471L703.244 464.472L703.244 464.473L703.243 464.473L703.243 464.474L703.243 464.474L703.242 464.475L703.242 464.475L703.241 464.476L703.241 464.476L703.241 464.477L703.24 464.477L703.24 464.478L703.24 464.478L703.239 464.479L703.239 464.479L703.238 464.48L703.238 464.48L703.238 464.481L703.237 464.482L703.237 464.482L703.236 464.483L703.236 464.483L703.236 464.484L703.235 464.484L703.235 464.485L703.235 464.485L703.234 464.486L703.234 464.486L703.233 464.487L703.233 464.487L703.233 464.488L703.232 464.488L703.232 464.489L703.231 464.489L703.231 464.49L703.231 464.49L703.23 464.491L703.23 464.492L703.23 464.492L703.229 464.493L703.229 464.493L703.228 464.494L703.228 464.494L703.228 464.495L703.227 464.495L703.227 464.496L703.226 464.496L703.226 464.497L703.226 464.497L703.225 464.498L703.225 464.498L703.225 464.499L703.224 464.499L703.224 464.5L703.223 464.501L703.223 464.501L703.223 464.502L703.222 464.502L703.222 464.503L703.221 464.503L703.221 464.504L703.221 464.504L703.22 464.505L703.22 464.505L703.22 464.506L703.219 464.506L703.219 464.507L703.218 464.507L703.218 464.508L703.218 464.508L703.217 464.509L703.217 464.509L703.216 464.51L703.216 464.511L703.216 464.511L703.215 464.512L703.215 464.512L703.215 464.513L703.214 464.513L703.214 464.514L703.213 464.514L703.213 464.515L703.213 464.515L703.212 464.516L703.212 464.516L703.212 464.517L703.211 464.517L703.211 464.518L703.21 464.518L703.21 464.519L703.21 464.52L703.209 464.52L703.209 464.521L703.208 464.521L703.208 464.522L703.208 464.522L703.207 464.523L703.207 464.523L703.207 464.524L703.206 464.524L703.206 464.525L703.205 464.525L703.205 464.526L703.205 464.526L703.204 464.527L703.204 464.527L703.203 464.528L703.203 464.528L703.203 464.529L703.202 464.53L703.202 464.53L703.202 464.531L703.201 464.531L703.201 464.532L703.2 464.532L703.2 464.533L703.2 464.533L703.199 464.534L703.199 464.534L703.198 464.535L703.198 464.535L703.198 464.536L703.197 464.536L703.197 464.537L703.197 464.537L703.196 464.538L703.196 464.538L703.195 464.539L703.195 464.54L703.195 464.54L703.194 464.541L703.194 464.541L703.193 464.542L703.193 464.542L703.193 464.543L703.192 464.543L703.192 464.544L703.192 464.544L703.191 464.545L703.191 464.545L703.19 464.546L703.19 464.546L703.19 464.547L703.189 464.547L703.189 464.548L703.188 464.549L703.188 464.549L703.188 464.55L703.187 464.55L703.187 464.551L703.187 464.551L703.186 464.552L703.186 464.552L703.185 464.553L703.185 464.553L703.185 464.554L703.184 464.554L703.184 464.555L703.183 464.555L703.183 464.556L703.183 464.556L703.182 464.557L703.182 464.557L703.182 464.558L703.181 464.559L703.181 464.559L703.098 464.673L703.032 464.797C702.86 465.12 702.769 465.444 702.719 465.732C702.569 466.602 702.778 467.423 703.222 468.109L703.24 468.136L703.258 468.162C703.765 468.891 704.51 469.388 705.414 469.545L705.511 469.561L705.593 469.575L705.675 469.583C708.456 469.829 711.227 470.123 713.99 470.467C716.747 470.826 719.509 471.245 722.279 471.724C723.785 471.984 725.281 472.259 726.765 472.549L726.775 472.551L726.786 472.553C728.259 472.824 729.726 473.127 731.188 473.463L731.241 473.475L731.295 473.484L731.392 473.501C732.282 473.655 733.122 473.426 733.81 472.934L732.646 471.308L733.81 472.934C734.531 472.418 735.012 471.671 735.166 470.78L735.272 470.165C735.563 468.481 735.913 466.88 736.319 465.36L736.32 465.358C736.717 463.868 737.165 462.427 737.664 461.037C737.796 460.773 737.864 460.517 737.9 460.306C738.057 459.402 737.814 458.572 737.375 457.897C736.901 457.169 736.17 456.609 735.214 456.444C734.403 456.304 733.622 456.475 732.952 456.884L719.775 464.596ZM719.775 464.596L718.311 466.386C717.541 466.268 716.766 466.164 715.984 466.072L719.775 464.596ZM728.939 468.291C729.588 468.425 730.241 468.561 730.897 468.7C731.025 468.035 731.159 467.382 731.298 466.74C730.642 466.601 729.989 466.465 729.34 466.332C729.201 466.975 729.067 467.628 728.939 468.291ZM719.908 464.619C719.904 464.619 719.899 464.618 719.895 464.617C719.89 464.616 719.886 464.616 719.881 464.615L719.568 466.59L719.908 464.619Z" fill="white" stroke="#0F111A" stroke-width="4"/>
</svg>
