<svg width="50" height="50" viewBox="0 0 800 800" fill="none" xmlns="http://www.w3.org/2000/svg">
<path fill-rule="evenodd" clip-rule="evenodd" d="M163.669 172.185C150.677 146.804 146.575 124.838 152.446 97.9171C164.378 42.9681 206.408 28.7737 256.197 48.3451C278.403 57.0542 296.615 71.8621 312.553 89.0757C378.306 68.814 449.042 71.9035 512.778 97.8209L517.662 99.0238C537.666 75.0377 570.001 56.7174 600.17 52.832C641.995 47.4309 682.617 57.0061 686.407 106.313C687.766 124.032 681.848 145.757 674.281 161.732L661.759 188.196L658.547 187.137C666.895 201.572 674.065 216.007 678.347 228.878C684.494 247.307 692.193 276.838 686.467 296.374L685.36 300.163L683.616 303.182C679.827 310.111 675.52 324.053 678.191 331.703C689.017 362.654 681.583 404.167 661.458 430.053C658.79 433.477 655.866 436.694 652.713 439.677C650.488 445.98 647.805 453.234 644.93 461.185C645.135 462.388 645.291 463.591 645.435 464.878C667.172 463.434 687.802 465.804 708.384 479.216C708.384 479.216 666.51 478.916 645.977 481.622C645.848 484.229 645.628 486.839 645.315 489.453C670.696 495.059 693.516 504.466 712.317 526.828C712.317 526.828 664.453 511.984 641.345 508.423C636.967 522.858 629.653 536.09 619.693 546.026C617.385 557.317 615.921 568.765 615.314 580.273C623.336 582.646 631.617 584.032 639.974 584.399C691.699 586.011 733.056 563.95 733.056 563.95C715.553 787.054 376.548 795.51 226.184 709.153C29.7965 596.404 22.555 333.953 163.633 172.137" fill="#0F111A"/>
<path fill-rule="evenodd" clip-rule="evenodd" d="M515.196 516.326C515.196 516.326 498.8 514.438 471.674 523.893C444.549 533.348 430.655 539.663 415.522 536.511C400.39 533.36 394.7 519.478 394.7 519.478C394.7 519.478 406.729 510.637 429.404 506.859C452.079 503.082 476.715 501.819 476.715 501.819C476.715 501.819 437.019 495.516 419.312 496.779C401.605 498.042 392.174 502.457 392.174 502.457C392.174 502.457 388.397 492.364 394.075 487.312C399.752 482.26 421.826 478.483 437.596 478.483C447.302 478.499 456.996 479.13 466.622 480.371C466.622 480.371 440.748 468.342 420.563 467.139C400.378 465.936 390.911 468.414 390.911 468.414C390.911 468.414 394.7 457.696 402.94 453.979C411.18 450.262 417.459 449.553 428.201 452.704C438.943 455.856 454.064 462.797 454.064 462.797C454.064 462.797 433.879 445.126 423.149 442.612C417.159 441.133 411.031 440.286 404.865 440.086L417.471 427.467C417.471 427.467 398.561 426.842 380.253 447.027C361.945 467.211 366.311 499.281 366.311 499.281C366.311 499.281 356.207 487.938 317.1 466.49C277.993 445.042 269.152 424.231 265.988 398.982C262.825 373.733 267.889 357.975 267.889 357.975C267.889 357.975 229.829 380.83 219.111 432.555C191.227 566.981 230.033 612.992 281.566 679.574C300.813 704.51 220.783 656.357 195.137 630.254C89.6173 522.714 62.5157 312.685 232.62 178.681C232.62 178.681 257.039 161.84 238.959 134.714C220.879 107.589 210.546 101.045 201.512 110.103C192.478 119.161 196.352 164.33 196.352 164.33C196.352 164.33 178.308 134.642 184.732 104.942C191.155 75.2423 207.972 64.9093 244.131 79.1036C280.291 93.298 308.692 135.917 321.599 153.997C334.506 172.077 335.805 175.962 335.805 175.962L331.932 133.343C331.932 133.343 349.976 121.723 431.353 121.723C512.73 121.723 555.313 148.836 555.313 148.836L539.819 124.297C539.819 124.297 564.359 90.7117 604.392 85.5512C644.425 80.3907 652.172 92.0229 653.459 108.804C654.746 125.584 644.413 147.537 644.413 147.537C644.413 147.537 650.86 115.263 631.493 116.55C612.127 117.837 595.346 152.71 595.346 152.71C595.346 152.71 635.379 204.363 646.999 239.211C658.619 274.06 654.746 286.991 654.746 286.991C654.746 286.991 637.965 316.691 646.999 342.505C656.033 368.32 644.401 398.032 635.367 409.652C626.333 421.272 618.586 422.559 618.586 422.559L581.14 413.525C581.14 413.525 596.633 425.158 609.552 456.133C618.526 477.665 611.285 503.563 599.544 518.227C597.631 542.454 589.199 568.22 573.898 583.521C577.579 568.809 577.374 548.468 574.403 529.883C556.083 528.512 534.707 516.82 534.707 516.82C534.707 516.82 535.994 496.165 556.66 481.935C577.326 467.705 573.357 442.937 583.786 435.454C594.215 427.972 572.154 441.914 535.994 445.788C499.835 449.661 470.147 435.454 470.147 435.454C470.147 435.454 470.147 452.235 488.19 465.154C506.234 478.074 534.719 516.82 515.196 516.326Z" fill="#F2F2F2"/>
<path fill-rule="evenodd" clip-rule="evenodd" d="M116.671 479.866C94.8984 378.497 123.564 264.545 232.632 178.597C232.632 178.597 251.662 165.449 243.663 143.712C247.777 148.524 249.425 143.929 255.391 174.603C261.358 205.277 166.628 259.865 137.758 361.391C108.888 462.917 118.03 457.817 116.719 479.866" fill="white"/>
<path fill-rule="evenodd" clip-rule="evenodd" d="M555.241 148.704V148.62L555.373 148.704H555.241ZM333.773 153.516L331.932 133.343C331.932 133.343 349.976 121.723 431.353 121.723C509.338 121.723 551.716 146.623 555.096 148.692C480.311 141.378 415.474 132.79 333.833 153.504L333.773 153.516Z" fill="white"/>
<path fill-rule="evenodd" clip-rule="evenodd" d="M555.325 148.824L539.82 124.297C539.82 124.297 564.359 90.7114 604.392 85.5509C641.803 80.7393 651.017 90.5671 653.11 105.579C615.627 101.129 581.922 125.115 555.325 148.824Z" fill="white"/>
<path fill-rule="evenodd" clip-rule="evenodd" d="M197.976 78.9471C207.683 70.8876 222.407 70.5267 244.132 79.0914C280.291 93.2978 308.692 135.905 321.599 153.985C333.304 170.38 335.457 175.096 335.769 175.83L299.598 176.022C299.598 176.022 288.122 144.482 241.209 102.464C224.079 87.1149 209.548 80.8116 198 78.9471" fill="white"/>
<path fill-rule="evenodd" clip-rule="evenodd" d="M560.365 504.983L588.032 514.305C596.57 504.2 600.97 491.24 600.35 478.026C599.352 455.724 592.687 446.75 592.687 446.75C592.687 446.75 592.687 465.72 581.043 475.379C569.399 485.039 560.365 504.983 560.365 504.983ZM413.514 431.28L417.411 427.383C417.411 427.383 398.489 426.757 380.193 446.942C361.897 467.127 366.311 499.293 366.311 499.293C366.311 499.293 356.231 487.938 317.112 466.49C277.993 445.042 269.164 424.231 266 398.994C262.837 373.757 267.901 357.975 267.901 357.975C132.465 463.976 280.495 700.444 462.977 724.021C290.528 719.643 156.054 655.215 117.224 480.888C151.399 411.925 248.185 297.757 319.277 296.013C319.277 296.013 275.708 355.497 305.817 388.866C339.643 426.348 370.666 387.374 418.313 426.89L413.514 431.28ZM470.375 524.362C449.3 531.784 407.956 551.884 394.7 519.49C394.7 519.49 406.729 510.661 429.404 506.871C452.079 503.082 476.715 501.831 476.715 501.831C476.715 501.831 437.018 495.528 419.312 496.791C401.605 498.054 392.186 502.457 392.186 502.457C392.186 502.457 388.397 492.376 394.074 487.324C399.752 482.272 421.826 478.495 437.596 478.495C447.301 478.511 456.996 479.142 466.622 480.383C466.622 480.383 440.748 468.354 420.563 467.151C400.378 465.948 390.911 468.354 390.911 468.354C390.911 468.354 394.7 457.636 402.94 453.847C411.18 450.058 417.459 449.432 428.201 452.644C431.99 453.847 435.96 455.459 439.809 456.722C443.719 458.671 449.661 460.716 454.052 462.737L452.933 461.786C465.287 467.127 476.582 473.334 476.582 473.334C476.582 473.334 464.986 469.04 457.047 450.792C449.264 432.916 455.579 411.252 455.844 410.374C457.047 405.562 466.466 393.256 469.894 389.455C468.15 420.105 465.576 451.056 488.238 465.239C507.678 477.388 534.719 516.88 515.256 516.386C515.256 516.386 498.86 514.498 471.735 523.953L470.375 524.362ZM594.684 402.627L616.337 409.291C616.337 409.291 629.677 398.056 635.92 384.728C642.163 371.399 639.24 360.994 639.24 360.994C639.24 360.994 609.3 399.704 594.684 402.615V402.627Z" fill="#E6E6E6"/>
<path d="M379.543 292.344L343.456 301.967L365.108 331.438V366.924L392.174 352.489L431.87 368.729V327.83L447.508 304.373L420.442 300.163L396.384 268.286L379.543 292.344Z" fill="#FFCB6B"/>
<path d="M422.334 355.437L420.218 331.864C420.097 330.605 420.229 329.335 420.605 328.128C420.981 326.922 421.594 325.804 422.407 324.84L437.637 307.142L415.179 301.991C413.971 301.703 412.833 301.173 411.834 300.43C410.835 299.688 409.996 298.75 409.366 297.673L397.612 277.287L385.859 297.673C385.229 298.75 384.39 299.688 383.391 300.43C382.392 301.173 381.254 301.703 380.046 301.991L357.588 307.161L372.744 324.859C373.572 325.815 374.2 326.93 374.589 328.137C374.978 329.345 375.12 330.619 375.006 331.883L372.891 355.362L393.989 346.096C395.131 345.592 396.365 345.332 397.612 345.332C398.86 345.332 400.094 345.592 401.236 346.096L422.334 355.362V355.437ZM361.505 379.528C359.09 379.268 356.875 378.055 355.343 376.155C353.796 374.235 353.063 371.778 353.302 369.317L356.465 334.106L333.712 307.606C332.661 306.377 331.939 304.897 331.617 303.307C331.295 301.717 331.383 300.071 331.873 298.525C332.358 296.988 333.232 295.606 334.409 294.514C335.587 293.422 337.027 292.658 338.587 292.298L372.155 284.571L389.795 254.215C390.586 252.825 391.727 251.67 393.103 250.867C394.479 250.064 396.041 249.641 397.631 249.641C399.221 249.641 400.783 250.064 402.159 250.867C403.535 251.67 404.676 252.825 405.467 254.215L423.106 284.645L456.638 292.372C458.194 292.74 459.627 293.508 460.798 294.604C461.969 295.699 462.836 297.082 463.315 298.618C463.794 300.162 463.877 301.803 463.555 303.388C463.233 304.973 462.518 306.449 461.476 307.68L438.778 334.106L441.96 369.317C442.112 370.917 441.854 372.529 441.209 373.999C440.565 375.469 439.557 376.747 438.281 377.712C437.011 378.657 435.517 379.25 433.949 379.432C432.38 379.615 430.792 379.379 429.342 378.75L397.686 364.832L366.03 378.75C364.634 379.378 363.104 379.646 361.579 379.528H361.505Z" fill="#FFB52B"/>
<path d="M538.328 288.735L502.24 298.358L523.893 327.83V363.316L550.958 348.881L590.655 365.12V324.221L606.292 300.764L579.227 296.554L555.169 264.677L538.328 288.735Z" fill="#FFCB6B"/>
<path d="M581.118 351.828L579.003 328.255C578.881 326.996 579.013 325.726 579.389 324.519C579.765 323.313 580.378 322.195 581.191 321.232L596.421 303.534L573.963 298.382C572.755 298.094 571.617 297.564 570.618 296.822C569.619 296.08 568.78 295.141 568.15 294.064L556.397 273.679L544.643 294.064C544.013 295.141 543.174 296.08 542.175 296.822C541.176 297.564 540.038 298.094 538.831 298.382L516.372 303.552L531.528 321.25C532.357 322.206 532.984 323.322 533.373 324.529C533.762 325.736 533.904 327.01 533.791 328.274L531.675 351.754L552.773 342.488C553.916 341.984 555.149 341.723 556.397 341.723C557.644 341.723 558.878 341.984 560.02 342.488L581.118 351.754V351.828ZM520.29 375.919C517.874 375.659 515.659 374.447 514.128 372.547C512.58 370.627 511.847 368.17 512.086 365.708L515.25 330.498L492.497 303.997C491.445 302.768 490.724 301.288 490.402 299.698C490.08 298.108 490.168 296.462 490.657 294.916C491.142 293.38 492.016 291.997 493.193 290.905C494.371 289.813 495.811 289.049 497.371 288.69L530.94 280.962L548.579 250.606C549.37 249.216 550.511 248.061 551.887 247.258C553.263 246.455 554.825 246.032 556.415 246.032C558.005 246.032 559.567 246.455 560.943 247.258C562.319 248.061 563.46 249.216 564.251 250.606L581.89 281.036L615.422 288.764C616.978 289.131 618.412 289.9 619.582 290.995C620.753 292.09 621.621 293.473 622.099 295.009C622.578 296.553 622.661 298.194 622.339 299.779C622.018 301.364 621.302 302.841 620.26 304.071L597.562 330.498L600.744 365.708C600.896 367.308 600.638 368.92 599.994 370.39C599.349 371.86 598.341 373.139 597.065 374.103C595.795 375.048 594.302 375.642 592.733 375.824C591.165 376.006 589.576 375.77 588.126 375.141L556.47 361.223L524.814 375.141C523.418 375.769 521.888 376.037 520.363 375.919H520.29Z" fill="#FFB52B"/>
</svg>
