<svg width="50" height="50" viewBox="0 0 800 800" fill="none" xmlns="http://www.w3.org/2000/svg">
<path fill-rule="evenodd" clip-rule="evenodd" d="M163.669 172.185C150.677 146.804 146.575 124.838 152.446 97.9171C164.378 42.9681 206.408 28.7737 256.197 48.3451C278.403 57.0542 296.615 71.8621 312.553 89.0757C378.306 68.814 449.042 71.9035 512.778 97.8209L517.662 99.0238C537.666 75.0377 570.001 56.7174 600.17 52.832C641.995 47.4309 682.617 57.0061 686.407 106.313C687.766 124.032 681.848 145.757 674.281 161.732L661.759 188.196L658.547 187.137C666.895 201.572 674.065 216.007 678.347 228.878C684.494 247.307 692.193 276.838 686.467 296.374L685.36 300.163L683.616 303.182C679.827 310.111 675.52 324.053 678.191 331.703C689.017 362.654 681.583 404.167 661.458 430.053C658.79 433.477 655.866 436.694 652.713 439.677C650.488 445.98 647.805 453.234 644.93 461.185C645.135 462.388 645.291 463.591 645.435 464.878C667.172 463.434 687.802 465.804 708.384 479.216C708.384 479.216 666.51 478.916 645.977 481.622C645.848 484.229 645.628 486.839 645.315 489.453C670.696 495.059 693.516 504.466 712.317 526.828C712.317 526.828 664.453 511.984 641.345 508.423C636.967 522.858 629.653 536.09 619.693 546.026C617.385 557.317 615.921 568.765 615.314 580.273C623.336 582.646 631.617 584.032 639.974 584.399C691.699 586.011 733.056 563.95 733.056 563.95C715.553 787.054 376.548 795.51 226.184 709.153C29.7965 596.404 22.555 333.953 163.633 172.137" fill="#0F111A"/>
<path fill-rule="evenodd" clip-rule="evenodd" d="M515.196 516.326C515.196 516.326 498.8 514.438 471.675 523.893C444.549 533.348 430.655 539.663 415.523 536.511C400.39 533.36 394.7 519.478 394.7 519.478C394.7 519.478 406.729 510.637 429.404 506.859C452.079 503.082 476.715 501.819 476.715 501.819C476.715 501.819 437.019 495.516 419.312 496.779C401.605 498.042 392.174 502.457 392.174 502.457C392.174 502.457 388.397 492.364 394.075 487.312C399.753 482.26 421.826 478.483 437.596 478.483C447.302 478.499 456.997 479.13 466.622 480.371C466.622 480.371 440.748 468.342 420.563 467.139C400.378 465.936 390.911 468.414 390.911 468.414C390.911 468.414 394.7 457.696 402.94 453.979C411.18 450.262 417.459 449.553 428.201 452.704C438.943 455.856 454.064 462.797 454.064 462.797C454.064 462.797 433.879 445.126 423.149 442.612C417.16 441.133 411.031 440.286 404.865 440.086L417.471 427.467C417.471 427.467 398.562 426.842 380.253 447.027C361.945 467.211 366.312 499.281 366.312 499.281C366.312 499.281 356.207 487.938 317.1 466.49C277.994 445.042 269.152 424.231 265.989 398.982C262.825 373.733 267.889 357.975 267.889 357.975C267.889 357.975 229.829 380.83 219.111 432.555C191.228 566.981 230.034 612.992 281.566 679.574C300.813 704.51 220.783 656.357 195.137 630.254C89.6176 522.714 62.5159 312.685 232.62 178.681C232.62 178.681 257.039 161.84 238.959 134.714C220.879 107.589 210.546 101.045 201.513 110.103C192.479 119.161 196.352 164.33 196.352 164.33C196.352 164.33 178.308 134.642 184.732 104.942C191.155 75.2423 207.972 64.9093 244.132 79.1036C280.291 93.298 308.692 135.917 321.599 153.997C334.507 172.077 335.806 175.962 335.806 175.962L331.932 133.343C331.932 133.343 349.976 121.723 431.353 121.723C512.73 121.723 555.313 148.836 555.313 148.836L539.82 124.297C539.82 124.297 564.359 90.7117 604.392 85.5512C644.425 80.3907 652.172 92.0229 653.459 108.804C654.746 125.584 644.413 147.537 644.413 147.537C644.413 147.537 650.861 115.263 631.494 116.55C612.127 117.837 595.346 152.71 595.346 152.71C595.346 152.71 635.379 204.363 646.999 239.211C658.619 274.06 654.746 286.991 654.746 286.991C654.746 286.991 637.965 316.691 646.999 342.505C656.033 368.32 644.401 398.032 635.367 409.652C626.333 421.272 618.586 422.559 618.586 422.559L581.14 413.525C581.14 413.525 596.633 425.158 609.553 456.133C618.526 477.665 611.285 503.563 599.544 518.227C597.632 542.454 589.199 568.22 573.898 583.521C577.579 568.809 577.375 548.468 574.403 529.883C556.083 528.512 534.707 516.82 534.707 516.82C534.707 516.82 535.994 496.165 556.66 481.935C577.327 467.705 573.357 442.937 583.786 435.454C594.215 427.972 572.154 441.914 535.994 445.788C499.835 449.661 470.147 435.454 470.147 435.454C470.147 435.454 470.147 452.235 488.191 465.154C506.234 478.074 534.719 516.82 515.196 516.326Z" fill="#F2F2F2"/>
<path fill-rule="evenodd" clip-rule="evenodd" d="M116.671 479.866C94.8982 378.497 123.564 264.545 232.632 178.597C232.632 178.597 251.662 165.449 243.662 143.712C247.776 148.524 249.424 143.929 255.391 174.603C261.357 205.277 166.628 259.865 137.758 361.391C108.888 462.917 118.03 457.817 116.719 479.866" fill="white"/>
<path fill-rule="evenodd" clip-rule="evenodd" d="M555.241 148.704V148.62L555.373 148.704H555.241ZM333.773 153.516L331.932 133.343C331.932 133.343 349.976 121.723 431.353 121.723C509.338 121.723 551.716 146.623 555.096 148.692C480.311 141.378 415.474 132.79 333.833 153.504L333.773 153.516Z" fill="white"/>
<path fill-rule="evenodd" clip-rule="evenodd" d="M555.325 148.824L539.819 124.297C539.819 124.297 564.359 90.7114 604.392 85.5509C641.802 80.7393 651.017 90.5671 653.11 105.579C615.627 101.129 581.921 125.115 555.325 148.824Z" fill="white"/>
<path fill-rule="evenodd" clip-rule="evenodd" d="M197.976 78.9471C207.683 70.8876 222.407 70.5267 244.131 79.0914C280.291 93.2978 308.692 135.905 321.599 153.985C333.303 170.38 335.456 175.096 335.769 175.83L299.598 176.022C299.598 176.022 288.122 144.482 241.208 102.464C224.079 87.1149 209.548 80.8116 198 78.9471" fill="white"/>
<path fill-rule="evenodd" clip-rule="evenodd" d="M560.365 504.983L588.032 514.305C596.57 504.2 600.97 491.24 600.35 478.026C599.352 455.724 592.687 446.75 592.687 446.75C592.687 446.75 592.687 465.72 581.043 475.379C569.399 485.039 560.365 504.983 560.365 504.983ZM413.514 431.28L417.411 427.383C417.411 427.383 398.489 426.757 380.193 446.942C361.897 467.127 366.311 499.293 366.311 499.293C366.311 499.293 356.231 487.938 317.112 466.49C277.993 445.042 269.164 424.231 266 398.994C262.837 373.757 267.901 357.975 267.901 357.975C132.465 463.976 280.495 700.444 462.977 724.021C290.528 719.643 156.054 655.215 117.224 480.888C151.399 411.925 248.185 297.757 319.277 296.013C319.277 296.013 275.708 355.497 305.817 388.866C339.643 426.348 370.666 387.374 418.313 426.89L413.514 431.28ZM470.375 524.362C449.3 531.784 407.956 551.884 394.7 519.49C394.7 519.49 406.729 510.661 429.404 506.871C452.079 503.082 476.715 501.831 476.715 501.831C476.715 501.831 437.018 495.528 419.312 496.791C401.605 498.054 392.186 502.457 392.186 502.457C392.186 502.457 388.397 492.376 394.074 487.324C399.752 482.272 421.826 478.495 437.596 478.495C447.301 478.511 456.996 479.142 466.622 480.383C466.622 480.383 440.748 468.354 420.563 467.151C400.378 465.948 390.911 468.354 390.911 468.354C390.911 468.354 394.7 457.636 402.94 453.847C411.18 450.058 417.459 449.432 428.201 452.644C431.99 453.847 435.96 455.459 439.809 456.722C443.719 458.671 449.661 460.716 454.052 462.737L452.933 461.786C465.287 467.127 476.582 473.334 476.582 473.334C476.582 473.334 464.986 469.04 457.047 450.792C449.264 432.916 455.579 411.252 455.844 410.374C457.047 405.562 466.466 393.256 469.894 389.455C468.15 420.105 465.576 451.056 488.238 465.239C507.678 477.388 534.719 516.88 515.256 516.386C515.256 516.386 498.86 514.498 471.735 523.953L470.375 524.362ZM594.684 402.627L616.337 409.291C616.337 409.291 629.677 398.056 635.92 384.728C642.163 371.399 639.24 360.994 639.24 360.994C639.24 360.994 609.3 399.704 594.684 402.615V402.627Z" fill="#E6E6E6"/>
<ellipse cx="393.5" cy="333" rx="41.5" ry="43" fill="white"/>
<ellipse cx="539.5" cy="306" rx="59.5" ry="62" fill="white"/>
<path d="M374.957 367.984C370.355 365.04 366.411 361.177 363.373 356.637C360.335 352.097 358.268 346.978 357.302 341.602C356.336 336.225 356.492 330.706 357.76 325.393C359.028 320.079 361.38 315.085 364.67 310.723C367.959 306.362 372.115 302.727 376.875 300.048C381.636 297.369 386.899 295.703 392.334 295.155C397.769 294.606 403.259 295.187 408.458 296.861C413.658 298.535 418.456 301.266 422.55 304.882C427.655 309.422 431.512 315.195 433.752 321.649C435.993 328.104 436.542 335.024 435.347 341.751C434.181 348.156 431.455 354.174 427.41 359.274C423.365 364.374 418.125 368.398 412.155 370.992C406.185 373.585 399.668 374.667 393.18 374.143C386.692 373.618 380.433 371.503 374.957 367.984ZM388.344 370.081C389.96 370.368 391.59 370.573 393.227 370.696L395.809 371.021L393.447 369.596C389.233 367.155 386.075 363.236 384.584 358.599C383.65 355.869 383.399 352.952 383.851 350.103C384.565 345.037 387.233 340.453 391.285 337.331C395.338 334.21 400.451 332.799 405.531 333.402C409.639 334.126 413.465 335.978 416.581 338.751C419.317 341.484 421.2 344.954 422.001 348.738C422.801 352.521 422.485 356.456 421.09 360.063L420.412 362.028L422.22 360.206C425.209 357.341 427.593 353.905 429.232 350.102C432.729 343.351 433.876 335.626 432.49 328.15C431.384 321.445 428.433 315.18 423.968 310.057C419.503 304.934 413.7 301.155 407.209 299.144C400.718 297.132 393.796 296.967 387.216 298.667C380.637 300.368 374.661 303.866 369.957 308.77C367.185 311.509 364.955 314.747 363.384 318.314C361.549 321.752 360.381 325.507 359.94 329.379C359.089 335.916 360.003 342.561 362.588 348.625C365.172 354.689 369.332 359.951 374.636 363.864C378.846 366.551 383.414 368.631 388.205 370.043L388.344 370.081Z" fill="black"/>
<path d="M494.728 357.627C485.806 350.37 478.969 340.907 474.907 330.195C470.845 319.484 469.702 307.903 471.593 296.623C473.002 286.837 476.822 277.552 482.715 269.591C486.529 263.758 491.412 258.688 497.111 254.643C508.988 245.726 523.575 241.091 538.475 241.502C553.376 241.913 567.701 247.345 579.095 256.904C583.078 260.009 586.585 263.672 589.508 267.777C595.238 275.314 599.268 283.986 601.324 293.2C603.379 302.415 603.413 311.958 601.421 321.179C597.829 337.059 588.529 351.086 575.262 360.636C567.746 366.126 559.053 369.818 549.858 371.424C542.569 372.946 535.063 373.171 527.69 372.086C515.551 370.435 504.125 365.408 494.733 357.586L494.728 357.627ZM514.901 364.515C524.962 368.467 535.915 369.619 546.576 367.844C554.62 366.641 562.337 363.849 569.27 359.635C576.204 355.42 582.214 349.868 586.946 343.307C591.678 336.745 595.036 329.306 596.822 321.429C598.607 313.553 598.784 305.398 597.343 297.446C594.86 284.054 589.944 274.743 579.139 263.511C574.032 259.16 568.406 255.449 562.388 252.46C554.138 248.832 545.219 246.954 536.202 246.946C531.758 246.965 519.793 248.748 519.205 249.439C519.054 249.648 520.822 250.181 523.226 250.629C530.587 252.165 537.188 256.187 541.903 262.01C546.618 267.833 549.154 275.095 549.08 282.557C549.006 290.02 546.325 297.221 541.496 302.932C536.666 308.643 529.987 312.51 522.597 313.874C518.196 314.811 513.639 314.774 509.25 313.767C504.861 312.76 500.747 310.806 497.201 308.045C494.37 306.18 491.95 303.763 490.088 300.941C485.853 294.972 483.75 287.771 484.116 280.487C484.28 277.362 484.167 276.934 483.457 277.942C482.392 279.831 481.45 281.786 480.634 283.794C475.637 295.31 474.353 308.084 476.956 320.367C479.56 332.65 485.924 343.841 495.177 352.407C501.032 357.496 507.686 361.599 514.875 364.553L514.901 364.515Z" fill="black"/>
<path d="M388.956 377.456C377.435 375.986 366.918 370.148 359.576 361.148C352.234 352.148 348.628 340.673 349.502 329.091C350.376 317.509 355.664 306.705 364.273 298.909C372.882 291.113 384.156 286.919 395.768 287.195C407.379 287.47 418.442 292.193 426.672 300.389C434.902 308.584 439.671 319.627 439.995 331.237C440.319 342.848 436.173 354.139 428.413 362.781C420.652 371.423 409.87 376.755 398.292 377.678C395.181 377.922 392.053 377.848 388.956 377.456ZM398.886 299.81C391.033 298.801 383.08 300.652 376.48 305.026C369.88 309.399 365.075 316.002 362.943 323.628C360.812 331.253 361.497 339.391 364.872 346.553C368.248 353.715 374.089 359.422 381.327 362.631C388.565 365.84 396.716 366.337 404.29 364.03C411.864 361.723 418.354 356.766 422.574 350.067C426.794 343.368 428.461 335.373 427.271 327.546C426.081 319.718 422.113 312.581 416.092 307.438C411.257 303.282 405.314 300.627 398.991 299.802L398.886 299.81Z" fill="black"/>
<path d="M530.95 375.366C520.526 374.045 510.545 370.346 501.778 364.554C487.646 355.243 477.434 341.057 473.087 324.701C468.741 308.344 470.564 290.961 478.21 275.862C485.856 260.764 498.79 249.006 514.547 242.83C530.304 236.654 547.782 236.491 563.651 242.373C579.521 248.254 592.671 259.769 600.597 274.722C608.523 289.676 610.67 307.023 606.628 323.457C602.587 339.892 592.641 354.265 578.684 363.838C564.728 373.411 547.737 377.514 530.95 375.366ZM508.564 354.167C517.912 360.322 528.875 363.568 540.068 363.494C551.26 363.419 562.179 360.027 571.444 353.747C580.71 347.468 587.905 338.581 592.12 328.213C596.335 317.844 597.381 306.458 595.125 295.495C592.87 284.531 587.414 274.483 579.448 266.62C571.482 258.757 561.364 253.433 550.372 251.321C539.381 249.208 528.009 250.402 517.696 254.752C507.383 259.102 498.591 266.412 492.433 275.758C484.194 288.3 481.265 303.598 484.289 318.297C487.313 332.995 496.043 345.895 508.564 354.167Z" fill="black"/>
<path d="M426.625 602.404C426.625 602.404 399.477 683.314 449.949 688.482C449.949 688.482 493.347 702.816 501.693 621.766L426.625 602.404Z" fill="#F11012"/>
<path d="M488.417 657.588C486.259 665.954 480.867 673.12 473.425 677.51C465.984 681.9 457.104 683.154 448.738 680.996C440.372 678.838 433.206 673.446 428.816 666.004C424.426 658.563 423.173 649.683 425.33 641.317L433.682 608.934C438.03 607.162 442.831 606.827 447.383 607.978C452.85 609.419 457.568 612.88 460.583 617.662L460.955 618.229L450.553 658.56C450.294 659.563 450.445 660.628 450.971 661.521C451.497 662.413 452.357 663.06 453.36 663.319C454.363 663.577 455.428 663.427 456.321 662.901C457.213 662.374 457.86 661.515 458.119 660.512L468.521 620.181L469.121 619.864C474.072 617.132 479.877 616.385 485.358 617.773C489.853 618.981 493.848 621.584 496.769 625.206L488.417 657.588ZM509.33 620.392C505.125 613.645 498.731 608.545 491.217 605.947C483.703 603.349 475.525 603.41 468.051 606.119C462.819 600.133 455.69 596.124 447.857 594.764C440.024 593.404 431.961 594.774 425.017 598.646L422.533 599.999L412.716 638.063C409.695 649.775 411.451 662.206 417.596 672.624C423.741 683.041 433.773 690.59 445.484 693.611C457.196 696.631 469.627 694.876 480.045 688.731C490.462 682.585 498.011 672.553 501.032 660.842L510.849 622.778L509.33 620.392Z" fill="#0F111A"/>
<path d="M424.971 584.723C431.178 589.928 439.339 594.73 448.903 598.804C458.467 602.879 469.211 606.13 480.41 608.339C491.609 610.549 503.001 611.664 513.818 611.611C524.636 611.558 534.625 610.337 543.113 608.03C544.452 607.632 546.17 607.508 547.994 607.678C549.819 607.848 551.646 608.302 553.187 608.968C554.728 609.634 555.895 610.474 556.504 611.356C557.112 612.237 557.127 613.109 556.546 613.835C546.769 627.038 512.29 631.375 475.769 624.171C439.249 616.966 411.047 600.262 410.045 584.933C410.109 584.15 410.698 583.465 411.732 582.973C412.766 582.481 414.195 582.205 415.825 582.182C417.455 582.159 419.208 582.391 420.844 582.845C422.48 583.3 423.921 583.955 424.971 584.723Z" fill="#E6E6E6"/>
</svg>
